<svg xmlns="http://www.w3.org/2000/svg" fill="none" viewBox="0 0 40 40" height="40" width="40"><desc>Programming Streamline Icon: https://streamlinehq.com</desc><path fill="#00034a" stroke="#00034a" stroke-miterlimit="10" d="M32.923 19.708a53 53 0 0 1-2.055-2.114 37 37 0 0 1-3.945-4.889 2.02 2.02 0 0 1 .487-2.542c.546-.594 1.373-1.217 2.347-.516a36 36 0 0 1 3.338 3.01 36 36 0 0 1 2.025 2.1 51 51 0 0 1 3.536 4.236 2.103 2.103 0 0 1 0 3.097 54 54 0 0 1-3.536 4.237 36 36 0 0 1-4.51 4.266c-1.34.991-3.638-1.159-3.905-2.552a2.02 2.02 0 0 1 .218-1.36 37.6 37.6 0 0 1 3.945-4.87 60 60 0 0 1 2.055-2.103ZM23.086 9.033a2.27 2.27 0 0 0-3.01 1.228 69 69 0 0 0-3.272 8.833 68 68 0 0 0-2.318 9.136 2.27 2.27 0 0 0 .941 2.38c.52.352 1.3.781 1.922.904a2.26 2.26 0 0 0 3-1.217 67 67 0 0 0 3.282-8.834 68 68 0 0 0 2.318-9.145 2.27 2.27 0 0 0-.941-2.38c-.52-.352-1.3-.781-1.922-.905Zm-13.908.633a36 36 0 0 0-4.51 4.266 51 51 0 0 0-3.486 4.227 2.104 2.104 0 0 0 0 3.097 54 54 0 0 0 3.535 4.237 36 36 0 0 0 3.915 3.766q.776.69 1.59 1.334c.974.691 1.802.068 2.348-.526a2.016 2.016 0 0 0 .487-2.542 37.6 37.6 0 0 0-3.945-4.86 60 60 0 0 0-2.055-2.104q1.057-1.028 2.055-2.113a37 37 0 0 0 3.896-4.87 2.02 2.02 0 0 0-.487-2.542c-.784-.854-2.176-2.245-3.343-1.37Z"/><path fill="#9bff00" stroke="#00034a" stroke-miterlimit="10" d="M24.858 11.76a2.266 2.266 0 0 0-1.772-2.727 2.27 2.27 0 0 0-3.01 1.228 69 69 0 0 0-3.272 8.833 68 68 0 0 0-2.318 9.136 2.266 2.266 0 0 0 1.772 2.727 2.26 2.26 0 0 0 3-1.218 67 67 0 0 0 3.282-8.833 68 68 0 0 0 2.318-9.146ZM8.116 21.811a60 60 0 0 0-2.055-2.103q1.057-1.028 2.055-2.114a37 37 0 0 0 3.896-4.87 2.015 2.015 0 0 0-.487-2.542c-.545-.594-1.412-1.217-2.347-.516a36 36 0 0 0-4.51 4.266 51 51 0 0 0-3.486 4.227 2.105 2.105 0 0 0 0 3.097 54 54 0 0 0 3.535 4.237 36 36 0 0 0 4.51 4.246c.973.692 1.801.069 2.347-.526a2.016 2.016 0 0 0 .487-2.542 37.6 37.6 0 0 0-3.945-4.86Zm22.752-4.217a53 53 0 0 0 2.055 2.114 60 60 0 0 0-2.055 2.104 37.6 37.6 0 0 0-3.945 4.87 2.016 2.016 0 0 0 .487 2.541c.546.594 1.412 1.218 2.347.526a36 36 0 0 0 4.51-4.266 54 54 0 0 0 3.535-4.236 2.104 2.104 0 0 0 0-3.098 51 51 0 0 0-3.535-4.236 36 36 0 0 0-4.51-4.266c-.974-.701-1.802-.078-2.347.516a2.016 2.016 0 0 0-.487 2.542 37 37 0 0 0 3.945 4.889Z"/></svg>
