<svg xmlns="http://www.w3.org/2000/svg" fill="none" viewBox="0 0 24 24" height="24" width="24"><desc>Ansible Streamline Icon: https://streamlinehq.com</desc><path fill="#1a1918" d="M21.57 9.802a9.55 9.55 0 0 1-9.552 9.552 9.552 9.552 0 1 1 0-19.104 9.55 9.55 0 0 1 9.552 9.552"/><path fill="#fff" d="m12.179 6.085 2.472 6.101-3.734-2.941zm4.391 7.507L12.768 4.44a.61.61 0 0 0-.589-.404.63.63 0 0 0-.605.404L7.4 14.478h1.428l1.652-4.138 4.93 3.983c.198.16.341.232.527.232.373 0 .698-.279.698-.682a.9.9 0 0 0-.065-.281"/></svg>
