<svg xmlns="http://www.w3.org/2000/svg" width="24" height="24" fill="none" viewBox="0 0 24 24"><desc>Astro Icon Streamline Icon: https://streamlinehq.com</desc><path fill="#000" d="M15.478.839c.191.238.29.56.485 1.203L20.24 16.09a17.8 17.8 0 0 0-5.113-1.73l-2.785-9.41a.362.362 0 0 0-.695 0l-2.75 9.404c-1.822.318-3.549.91-5.137 1.734l4.298-14.05c.196-.642.295-.962.487-1.2.169-.21.39-.373.64-.474.283-.114.619-.114 1.29-.114h3.07c.672 0 1.008 0 1.292.114.25.101.471.264.64.475"/><path fill="#ff5d01" d="M15.99 16.759c-.706.602-2.113 1.014-3.734 1.014-1.989 0-3.656-.62-4.099-1.453-.158.478-.193 1.024-.193 1.373 0 0-.105 1.714 1.087 2.906 0-.62.502-1.121 1.12-1.121 1.062 0 1.06.926 1.06 1.676v.067c0 1.14.696 2.117 1.687 2.529a2.3 2.3 0 0 1-.231-1.007c0-1.087.638-1.492 1.38-1.962.59-.375 1.245-.79 1.697-1.625a3.08 3.08 0 0 0 .225-2.398"/></svg>