<svg xmlns="http://www.w3.org/2000/svg" fill="none" viewBox="0 0 24 24" height="24" width="24"><desc>Circleci Streamline Icon: https://streamlinehq.com</desc><path fill="#343434" d="M11.832 14.786a2.786 2.786 0 1 0 0-5.572 2.786 2.786 0 0 0 0 5.572"/><path fill="#343434" d="M.451 9.046c0 .033-.033.1-.033.134 0 .302.235.57.57.57h4.734c.235 0 .403-.134.504-.335a6.11 6.11 0 0 1 5.573-3.592 6.147 6.147 0 0 1 6.143 6.143A6.146 6.146 0 0 1 11.8 18.11c-2.485 0-4.6-1.477-5.573-3.559-.101-.235-.269-.369-.504-.369H.99a.566.566 0 0 0-.571.57c0 .034 0 .102.033.135 1.31 5.103 5.909 8.863 11.381 8.863 6.48 0 11.75-5.27 11.75-11.75S18.312.25 11.832.25C6.36.25 1.761 4.01.452 9.046"/></svg>
