<svg xmlns="http://www.w3.org/2000/svg" width="24" height="24" fill="none" viewBox="0 0 24 24"><desc>Elasticsearch Streamline Icon: https://streamlinehq.com</desc><path fill="#343741" d="M1.543 12c0 1.016.142 1.997.384 2.937H16.23a2.938 2.938 0 0 0 0-5.875H1.927A11.8 11.8 0 0 0 1.543 12"/><path fill="#fec514" d="M21.315 5.876q.616-.566 1.142-1.22A11.72 11.72 0 0 0 13.292.25C8.65.25 4.655 2.95 2.75 6.86h16.058a3.7 3.7 0 0 0 2.507-.984"/><path fill="#00bfb3" d="M18.808 17.14H2.75c1.906 3.909 5.9 6.61 10.542 6.61 3.71 0 7.012-1.723 9.165-4.406q-.526-.654-1.142-1.22a3.7 3.7 0 0 0-2.507-.983"/></svg>