<svg xmlns="http://www.w3.org/2000/svg" fill="none" viewBox="0 0 24 24" height="24" width="24"><desc>Fastify Icon Streamline Icon: https://streamlinehq.com</desc><path fill="#000" d="m23.01 6.605.74-1.916-.032-.119L16.4 6.498c.78-1.129.512-2.034.512-2.034s-2.337 1.493-4.104 1.454-2.337-.511-5.047.353-3.475 3.516-4.26 4.085c-.786.57-3.251 2.425-3.251 2.425l.005.033 2.222-.707s-.61.574-1.904 2.32l-.06-.057.002.012s1.04 1.59 2.062 1.297q.155-.046.345-.143c.41.229.947.454 1.54.516 0 0-.401-.467-.736-.997l.277-.18-.043.03.846.311-.094-.795.009-.006.831.306-.103-.724q.158-.083.316-.155l.866-3.279 3.585-2.445-.285.717c-.727 1.787-2.091 2.209-2.091 2.209l-.57.216c-.424.5-.602.624-.747 2.305.341-.086.667-.107.963-.027 1.531.413 2.062 2.258 1.65 2.769-.104.128-.35.346-.66.602h-.622l-.008.504-.064.05H7.15l-.008.491-.165.125c-.595.013-1.347-.506-1.347-.506 0 .472.393 1.198.393 1.198l.07-.034-.06.044s1.59 1.06 2.591.667c.89-.349 3.196-2.167 5.186-3.027l6.023-1.587.794-2.057-4.59 1.209v-1.848l5.385-1.419.794-2.057-6.177 1.628V8.44z"/></svg>
