<svg xmlns="http://www.w3.org/2000/svg" xmlns:xlink="http://www.w3.org/1999/xlink" fill="#fff" fill-rule="evenodd" stroke="#000" stroke-linecap="round" stroke-linejoin="round" viewBox="0 0 85 85"><use xlink:href="#a" x="2.5" y="2.5"/><symbol id="a" overflow="visible"><g fill="#8a4182" stroke="none"><path d="M36.901 33.125h6.196l1.54-2.119V14.407h-9.274v16.6zm-3.993 7.404 1.914-5.892-1.54-2.119-15.788-5.129-2.865 8.819 15.789 5.13zm5.809 6.086-5.013-3.642-2.491.81-9.757 13.429 7.503 5.45 9.758-13.43zm7.583-3.643-5.014 3.642.001 2.619 9.757 13.429 7.503-5.45-9.759-13.43-2.489-.809"/><path d="m45.177 34.635 1.915 5.893 2.491.809 15.788-5.129-2.866-8.82-15.788 5.13zM40 0C17.945 0 0 17.941 0 39.994 0 62.054 17.945 80 40 80s40-17.946 40-40.006C80 17.941 62.057 0 40 0h.002zm0 8.098c17.616 0 31.9 14.278 31.9 31.895C71.9 57.616 57.616 71.9 40 71.9c-18.618 0-31.9-14.284-31.9-31.907C8.1 22.376 22.382 8.098 40 8.098m24.229 40.785-12.001-3.9.793-2.444 12.001 3.9zM48.923 29.617l-2.08-1.51 7.417-10.208 2.08 1.511-7.417 10.208m-17.717-.094L23.79 19.316l2.08-1.511 7.416 10.208zM15.722 48.73l-.794-2.444 12-3.898.794 2.444zm22.914 16.765h2.57V52.876h-2.57z"/></g></symbol></svg>