<svg xmlns="http://www.w3.org/2000/svg" fill="none" viewBox="0 0 24 24" height="24" width="24"><desc>Materializecss Streamline Icon: https://streamlinehq.com</desc><path fill="#eb7077" stroke="#eb7077" stroke-width=".024" d="M6.053 6.36c.085-.146.196-.285.354-.353.066-.011.131-.005.196-.005h3.212a1 1 0 0 0-.247.27c-.164.269-.275.57-.377.87-.29.908-.49 1.842-.687 2.775a67 67 0 0 0-.252 1.271c-.244 1.385-.497 2.767-.812 4.137-.15.633-.303 1.266-.536 1.876-.108.253-.213.522-.42.71-.048.042-.096.096-.164.087H3.482c-.193-.005-.383.012-.576-.008.128-.1.241-.219.315-.36.213-.406.346-.846.474-1.283.198-.704.357-1.416.508-2.128.093-.468.204-.934.272-1.405.077-.525.193-1.044.287-1.566.147-.769.303-1.538.476-2.301.14-.596.281-1.19.471-1.77.094-.282.196-.56.344-.818Z"/><path fill="#f6a2ad" stroke="#f6a2ad" stroke-width=".024" d="M9.815 6.002c.082 0 .165-.003.247 0 .182.096.335.25.42.44.113.215.207.442.292.675.284.876.477 1.779.67 2.678q.246 1.21.468 2.426c.011.043-.003.102.054.114-.204 1.067-.406 2.136-.661 3.195-.14.57-.287 1.138-.497 1.688-.113.275-.23.576-.47.772-.154.034-.265-.082-.358-.187-.162-.208-.261-.452-.358-.696-.32-.873-.516-1.784-.715-2.692-.15-.707-.284-1.419-.423-2.128-.062-.36-.147-.715-.195-1.076l-.037-.023c.08-.422.164-.848.252-1.27.196-.934.397-1.868.687-2.776.102-.3.213-.601.377-.87.063-.109.154-.191.247-.27Z"/><path fill="#eb7077" stroke="#eb7077" stroke-width=".024" d="M13.365 6.492c.102-.195.227-.414.448-.488 1.127-.005 2.253-.002 3.38-.002-.105.105-.216.21-.287.343-.218.391-.346.826-.477 1.254-.334 1.18-.57 2.386-.794 3.592a96 96 0 0 1-.681 3.561c-.13.596-.267 1.19-.44 1.777-.11.363-.227.729-.409 1.067-.088.153-.19.32-.357.4-1.075.008-2.154 0-3.23.002q-.09.002-.18-.008c.24-.196.357-.497.47-.772.21-.55.358-1.118.497-1.688.255-1.059.457-2.128.661-3.195.247-1.376.505-2.753.834-4.112.153-.587.301-1.183.565-1.73Z"/><path fill="#f6a2ad" stroke="#f6a2ad" stroke-width=".024" d="M17.193 6.002c.09 0 .184-.003.275 0 .147.076.252.207.346.34.153.244.25.52.349.789.235.723.411 1.467.573 2.21a99 99 0 0 1 .587 3.017c.046.24.091.485.12.729l.042.042c-.102.142-.142.312-.198.474a13 13 0 0 0-.395 1.765 9.5 9.5 0 0 1-.326 1.376c-.108.332-.238.661-.454.94a1 1 0 0 1-.395.303c-.235.026-.374-.201-.488-.369-.235-.411-.363-.87-.499-1.32-.448-1.66-.74-3.359-1.056-5.047a.08.08 0 0 0-.04-.06c.225-1.206.46-2.412.795-3.592.13-.428.258-.863.477-1.254.07-.133.182-.238.287-.343ZM.25 12.457c.074-.006.148-.017.224-.017h3.093c.13.017.267.005.392.062.181.074.343.199.462.355l.054-.043c-.068.471-.179.937-.272 1.405-.15.712-.31 1.424-.508 2.128-.128.437-.261.877-.474 1.283a1.1 1.1 0 0 1-.315.36c-.048.008-.085-.026-.125-.051-.133-.085-.21-.233-.292-.366-.389-.885-.432-1.864-.673-2.79a6.5 6.5 0 0 0-.493-1.347A2.5 2.5 0 0 0 .8 12.74a1.4 1.4 0 0 0-.55-.284Z"/><path fill="#eb7077" stroke="#eb7077" stroke-width=".024" d="M19.735 12.752a.93.93 0 0 1 .715-.318h2.327c.323.006.65-.011.973.009-.096.065-.213.09-.315.144a1.9 1.9 0 0 0-.851.77c-.31.538-.417 1.157-.508 1.764-.09.596-.088 1.212-.281 1.79-.13.406-.33.815-.673 1.082-1.066.011-2.133.003-3.197.005-.071 0-.14.003-.207-.011.153-.068.292-.17.394-.304.216-.278.346-.607.454-.939.145-.448.25-.91.326-1.376.1-.593.216-1.189.395-1.765.056-.162.096-.332.198-.474.085-.125.142-.27.25-.377Z"/></svg>
