<svg xmlns="http://www.w3.org/2000/svg" width="24" height="24" fill="none" viewBox="0 0 24 24"><desc>Mobx Streamline Icon: https://streamlinehq.com</desc><path fill="#ea6618" d="M23.75 21.95V2.05A1.8 1.8 0 0 0 22.461.324l-.845.506-9.388 10.01-.294.92-.172.882 2.927 10.94.453.168h6.808a1.8 1.8 0 0 0 1.8-1.8"/><path fill="#d65813" d="M.25 2.05v19.9c0 .616.309 1.159.78 1.483l.577-.276 9.937-10.639.39-.759.014-.733L9.244.737 8.834.25H2.05a1.8 1.8 0 0 0-1.8 1.8"/><path fill="#e05e11" d="M11.934 11.76 22.46.323a1.8 1.8 0 0 0-.51-.074H8.833z"/><path fill="#de5c16" d="M2.05 23.75h13.092l-3.208-11.99L1.03 23.432c.29.2.641.317 1.02.317"/><path fill="#fff" d="M8.963 9.157h1.306a38.6 38.6 0 0 0 1.773 5.24c.748-1.749 1.297-3.472 1.761-5.24h1.234c-.553 2.196-1.457 4.41-2.49 6.695h-1.092a46.4 46.4 0 0 1-2.492-6.695M4.656 5.755H7.56v12.452H4.643v-.96h1.788V6.69H4.656zm14.703.935h-1.775v10.557h1.788v.96h-2.917V5.755h2.904z"/></svg>