<svg xmlns="http://www.w3.org/2000/svg" width="24" height="24" fill="none" viewBox="0 0 96 96"><desc>Neon Icon Streamline Icon: https://streamlinehq.com</desc><path fill="#00e0d9" d="M1 17.207C1 8.257 8.256 1 17.207 1h61.586C87.743 1 95 8.256 95 17.207v52.38c0 9.258-11.719 13.277-17.4 5.968L59.83 52.697v27.717C59.83 88.47 53.3 95 45.246 95H17.207C8.257 95 1 87.744 1 78.793zm16.207-3.24a3.24 3.24 0 0 0-3.24 3.238v61.588a3.24 3.24 0 0 0 3.238 3.243H45.73c.896 0 1.133-.726 1.133-1.622V43.248c0-9.262 11.719-13.28 17.403-5.97l17.769 22.856V17.207c0-1.791.167-3.24-1.622-3.24z"/><path fill="url(#a)" d="M1 17.207C1 8.257 8.256 1 17.207 1h61.586C87.743 1 95 8.256 95 17.207v52.38c0 9.258-11.719 13.277-17.4 5.968L59.83 52.697v27.717C59.83 88.47 53.3 95 45.246 95H17.207C8.257 95 1 87.744 1 78.793zm16.207-3.24a3.24 3.24 0 0 0-3.24 3.238v61.588a3.24 3.24 0 0 0 3.238 3.243H45.73c.896 0 1.133-.726 1.133-1.622V43.248c0-9.262 11.719-13.28 17.403-5.97l17.769 22.856V17.207c0-1.791.167-3.24-1.622-3.24z"/><path fill="url(#b)" fill-opacity=".4" d="M1 17.207C1 8.257 8.256 1 17.207 1h61.586C87.743 1 95 8.256 95 17.207v52.38c0 9.258-11.719 13.277-17.4 5.968L59.83 52.697v27.717C59.83 88.47 53.3 95 45.246 95H17.207C8.257 95 1 87.744 1 78.793zm16.207-3.24a3.24 3.24 0 0 0-3.24 3.238v61.588a3.24 3.24 0 0 0 3.238 3.243H45.73c.896 0 1.133-.726 1.133-1.622V43.248c0-9.262 11.719-13.28 17.403-5.97l17.769 22.856V17.207c0-1.791.167-3.24-1.622-3.24z"/><path fill="#63f655" d="M78.793 1C87.743 1 95 8.256 95 17.207v52.38c0 9.258-11.719 13.277-17.4 5.968L59.83 52.697v27.717C59.83 88.47 53.3 95 45.246 95a1.62 1.62 0 0 0 1.619-1.619V43.248c0-9.262 11.719-13.28 17.403-5.97l17.769 22.856V4.24A3.24 3.24 0 0 0 78.793 1"/><defs><linearGradient id="a" x1="9401" x2="1135.53" y1="9401" y2="1" gradientUnits="userSpaceOnUse"><stop stop-color="#62f755"/><stop offset="1" stop-color="#8ff986" stop-opacity="0"/></linearGradient><linearGradient id="b" x1="9401" x2="3817.66" y1="9401" y2="7229.34" gradientUnits="userSpaceOnUse"><stop stop-opacity=".9"/><stop offset="1" stop-color="#1a1a1a" stop-opacity="0"/></linearGradient></defs></svg>