<svg xmlns="http://www.w3.org/2000/svg" xml:space="preserve" width="800" height="800" viewBox="0 0 298.708 298.708"><path d="M149.357.003C66.993.003 0 66.996 0 149.354c0 82.353 66.998 149.351 149.357 149.351s149.351-66.998 149.351-149.351C298.708 66.996 231.71.003 149.357.003m-33.635 195.289H90.8l-21.191-39.7c-5.885-10.601-12.515-20.13-17.231-36.447h-.582c.729 16.317-1.343 30.209-1.343 46.401v29.746H28.697V97.389h29.719l20.614 36.534c5.891 10.454 11.634 23.296 16.192 34.174h.299c-1.327-16.317-1.556-28.017-1.556-43.028v-27.68h21.756zm25.574 5.439H126.42L157.94 91.95h14.854zm100.4-5.439-7.653-27.195h-28.419l-7.065 27.195h-23.127l30.192-97.903h29.436l30.932 97.903zm-22.077-81.586h-.305c-1.474 5.439-2.948 12.341-4.569 18.074l-5.885 19.999h21.936l-6.179-19.999c-1.773-5.879-3.53-12.635-4.998-18.074" style="fill:#888"/></svg>