<svg xmlns="http://www.w3.org/2000/svg" width="24" height="24" fill="none" viewBox="0 0 24 24"><desc>Protractor Streamline Icon: https://streamlinehq.com</desc><path fill="#e23237" d="M23.75 12c0 6.49-5.26 11.75-11.75 11.75S.25 18.49.25 12 5.51.25 12 .25 23.75 5.51 23.75 12"/><path fill="#b52e31" d="m23.75 12-.003-.114C21.4 9.623 19.025 7.33 18.958 7.251a9.024 9.024 0 0 0-15.692 7.826c3.27 3.446 6.312 6.58 8.589 8.67l.145.003c6.49 0 11.75-5.26 11.75-11.75"/><path fill="#fff" d="M17.863 12.941H6.31v-.046a5.778 5.778 0 1 1 11.555 0zm1.368-.261h1.845a9 9 0 0 0-2.606-5.96l-1.274 1.275-.309-.309 1.27-1.268a9 9 0 0 0-5.91-2.365v1.643h-.437V4.055a9 9 0 0 0-5.898 2.418l1.16 1.16-.308.309L5.6 6.778a9 9 0 0 0-2.55 5.902h1.69v.436h-1.7c.004.674.082 1.33.226 1.961H20.86a9 9 0 0 0 .225-1.961H19.23z"/></svg>