<svg xmlns="http://www.w3.org/2000/svg" width="24" height="24" fill="none" viewBox="0 0 24 24"><desc>Puppeteer Streamline Icon: https://streamlinehq.com</desc><path fill="#dfdedf" d="M19.713 13.425H4.263v-.871c0-.586.475-1.06 1.06-1.06h13.33c.585 0 1.06.474 1.06 1.06z"/><path fill="#fff" d="M18.636 23.53H5.34a1.076 1.076 0 0 1-1.077-1.077v-9.028h15.45v9.028c0 .594-.482 1.076-1.077 1.076"/><path fill="#000" d="M19.52 13.25v-.781a.835.835 0 0 0-.834-.836H5.314a.835.835 0 0 0-.835.836v.78zm0 9.314V13.6H4.48v8.965c0 .46.373.835.834.835h13.372a.835.835 0 0 0 .835-.836M5.394 11.283l.052-.568-.221.573q.045-.005.09-.005zm13.123-.957.077.957h.093q.074 0 .146.01zm1.06 1.362c.183.21.295.482.295.78v10.096c0 .654-.532 1.186-1.185 1.186H5.314a1.187 1.187 0 0 1-1.185-1.186V12.47c0-.317.125-.605.328-.818L5.64 8.588l.516-5.63.581.053-.464 5.073.163.063-.222.575-.234 2.561h12.028l-.667-8.286.582-.047.393 4.887zm-14.146.516a.265.265 0 1 1 0 .53.265.265 0 0 1 0-.53m.904 0a.265.265 0 1 1 0 .53.265.265 0 0 1 0-.53m.876 0a.265.265 0 1 1 0 .53.265.265 0 0 1 0-.53"/><path fill="#000" d="M6.344 17.945a.3.3 0 0 0 .07-.208.3.3 0 0 0-.07-.204q-.072-.079-.201-.078h-.421v.567h.42q.13.001.202-.077m-.201-.83q.272-.001.433.169t.16.453-.158.454a.57.57 0 0 1-.435.172h-.421v.763h-.326v-2.011zm1.755 1.233v-.586h.35v1.324h-.35v-.12a.56.56 0 0 1-.416.16.5.5 0 0 1-.385-.156.56.56 0 0 1-.146-.401v-.807h.35v.732q0 .14.074.226a.24.24 0 0 0 .194.085q.33.001.33-.457m1.718.364q.103-.108.103-.287c0-.179-.034-.217-.103-.289a.36.36 0 0 0-.269-.109.37.37 0 0 0-.262.112.38.38 0 0 0-.114.286.37.37 0 0 0 .114.284.37.37 0 0 0 .262.112.36.36 0 0 0 .269-.109m-.207-.99q.26 0 .456.2.195.201.194.503a.7.7 0 0 1-.194.502.62.62 0 0 1-.457.2.68.68 0 0 1-.437-.144v.735h-.35v-1.956h.35v.106a.66.66 0 0 1 .437-.146m1.91.99q.104-.108.104-.287c0-.179-.034-.217-.103-.289a.36.36 0 0 0-.268-.109.37.37 0 0 0-.263.112.38.38 0 0 0-.114.286.37.37 0 0 0 .114.284.37.37 0 0 0 .263.112.36.36 0 0 0 .268-.109m-.207-.99q.26 0 .457.2.194.201.194.503a.7.7 0 0 1-.194.502.62.62 0 0 1-.456.2.68.68 0 0 1-.438-.144v.735h-.35v-1.956h.35v.106a.66.66 0 0 1 .438-.146m1.168.55h.64a.3.3 0 0 0-.117-.184.35.35 0 0 0-.398.003.3.3 0 0 0-.125.18m.327-.55q.271.001.467.188.194.191.205.489v.12h-1.01a.4.4 0 0 0 .12.222q.09.085.213.085.225 0 .329-.175l.313.066a.63.63 0 0 1-.252.306.73.73 0 0 1-.39.103.66.66 0 0 1-.484-.196.7.7 0 0 1-.196-.505q0-.307.2-.507a.66.66 0 0 1 .485-.196m1.638 1.078q.1 0 .22-.064l.1.292a.7.7 0 0 1-.344.098.54.54 0 0 1-.383-.133q-.138-.13-.138-.395v-.55h-.284v-.286h.284v-.401h.35v.4h.434v.287h-.433v.523q0 .229.194.229m.735-.529h.64a.3.3 0 0 0-.117-.183.35.35 0 0 0-.398.003.3.3 0 0 0-.125.18m.326-.55q.271.001.467.19.194.19.205.488v.12h-1.009a.4.4 0 0 0 .12.222q.09.084.212.085.226 0 .33-.175l.312.066a.63.63 0 0 1-.252.306.73.73 0 0 1-.39.103.66.66 0 0 1-.483-.196.7.7 0 0 1-.197-.505q0-.307.2-.507a.66.66 0 0 1 .485-.196m1.248.55h.64a.3.3 0 0 0-.117-.183.35.35 0 0 0-.398.003.3.3 0 0 0-.125.18m.326-.55q.271.001.467.19.194.19.205.488v.12h-1.009a.4.4 0 0 0 .12.222q.09.084.212.085.226 0 .33-.175l.312.066a.63.63 0 0 1-.252.306.73.73 0 0 1-.39.103.66.66 0 0 1-.483-.196.7.7 0 0 1-.197-.505q0-.307.2-.507a.66.66 0 0 1 .485-.196m1.763.022q.06 0 .093.01l-.019.338h-.077q-.473-.001-.472.568v.427h-.35v-1.324h.35v.241a.56.56 0 0 1 .475-.26"/><path fill="#00d8a2" d="M17.11 8.407 19 7.494v-.913l-4.367-2.086L19 2.246v-.88L17.175.52l-5.171 2.575L6.745.519l-1.695.913v.782l4.107 2.249L5.05 6.549v.945l1.76.913 5.215-2.673z"/><path fill="#000" d="M17.347 8.034v-.393l1.423-.737v.441zM5.165 6.894l1.375.789v.314l-1.375-.696zm7.043-1.66 4.73 2.337v.47l-4.73-2.424zm-5.26 2.405L11.8 5.234v.383L6.95 8.071zm3.435-3.93L5.475 1.34l1.27-.646 5.259 2.726 5.17-2.725 1.316.674-4.787 2.41a.26.26 0 0 0 0 .465l4.738 2.371-1.228.636-5.21-2.669-5.3 2.724-1.211-.695 4.894-2.433a.26.26 0 0 0-.003-.468M5.226 2.142v-.431l4.578 2.284-.463.185zm9.387 2.063c-.006-.004-.438-.207-.438-.207l4.595-2.313v.433zm.46.227 4.039-2.028a.12.12 0 0 0 .067-.108v-.96a.12.12 0 0 0-.066-.108L17.229.264a.12.12 0 0 0-.11 0l-5.061 2.568a.12.12 0 0 1-.109 0L6.8.262a.12.12 0 0 0-.11.001l-1.867.95a.12.12 0 0 0-.066.107v.975c0 .046.026.088.067.109L8.88 4.407 4.842 6.412a.12.12 0 0 0-.067.106l-.018.959c0 .046.025.09.067.11l1.94.981a.12.12 0 0 0 .108 0L11.95 6.02a.12.12 0 0 1 .11 0l5.013 2.55a.12.12 0 0 0 .107 0l1.931-.934a.12.12 0 0 0 .069-.11V6.525a.12.12 0 0 0-.068-.109z"/></svg>