<svg xmlns="http://www.w3.org/2000/svg" width="24" height="24" fill="none" viewBox="0 0 24 24"><desc>Pwa Streamline Icon: https://streamlinehq.com</desc><path fill="#3d3d3d" d="m17.545 14.84.68-1.718h1.96l-.93-2.604 1.163-2.942 3.332 8.848h-2.457l-.57-1.585z"/><path fill="#5a0fc8" d="m15.449 16.424 3.567-8.848h-2.365l-2.44 5.718-1.735-5.718h-1.818l-1.863 5.718-1.315-2.606-1.189 3.664L7.5 16.424h2.327l1.684-5.128 1.605 5.128z"/><path fill="#3d3d3d" d="M2.495 13.387h1.457q.662 0 1.179-.148l.376-1.16L6.56 8.833a2.6 2.6 0 0 0-.275-.36q-.81-.898-2.372-.898H.25v8.848h2.245zm1.928-3.775q.317.318.317.853 0 .539-.279.854-.305.35-1.124.35h-.842V9.294h.848q.763 0 1.08.319"/></svg>