<svg xmlns="http://www.w3.org/2000/svg" fill="none" viewBox="0 0 24 24" height="24" width="24"><desc>Rabbitmq Icon Streamline Icon: https://streamlinehq.com</desc><path fill="#f60" d="M22.805 9.651h-7.517a.936.936 0 0 1-.942-.942V1.192a.936.936 0 0 0-.942-.936H10.59a.936.936 0 0 0-.942.936v7.517a.936.936 0 0 1-.942.942H5.892a.936.936 0 0 1-.942-.942V1.192A.936.936 0 0 0 4.01.25H1.19a.936.936 0 0 0-.936.942v21.616a.936.936 0 0 0 .942.942h21.61a.936.936 0 0 0 .942-.942V10.611a.936.936 0 0 0-.942-.96m-3.78 7.983a1.407 1.407 0 0 1-1.406 1.412h-1.884a1.407 1.407 0 0 1-1.407-1.412v-1.878a1.407 1.407 0 0 1 1.407-1.413h1.884a1.407 1.407 0 0 1 1.407 1.413z"/></svg>
