<svg xmlns="http://www.w3.org/2000/svg" width="24" height="24" fill="none" viewBox="0 0 96 96"><desc>Rollupjs Streamline Icon: https://streamlinehq.com</desc><path fill="url(#a)" d="M83.964 31.948a30.7 30.7 0 0 0-4.002-15.219c-6.77-6.967-21.494-8.58-25.15-.033-3.756 8.763 6.307 18.513 10.705 17.74 5.6-.99-.988-13.836-.988-13.836 8.564 16.141 6.588 11.2-8.894 26.023s-31.294 46.101-33.6 47.419a2 2 0 0 1-.313.164H82.45c1.07 0 1.762-1.136 1.284-2.091L67.856 60.689a1.44 1.44 0 0 1 .56-1.894c9.29-5.337 15.548-15.35 15.548-26.847"/><path fill="url(#b)" d="M83.964 31.948a30.7 30.7 0 0 0-4.002-15.219c-6.77-6.967-21.494-8.58-25.15-.033-3.756 8.763 6.307 18.513 10.705 17.74 5.6-.99-.988-13.836-.988-13.836 8.564 16.141 6.588 11.2-8.894 26.023s-31.294 46.101-33.6 47.419a2 2 0 0 1-.313.164H82.45c1.07 0 1.762-1.136 1.284-2.091L67.856 60.689a1.44 1.44 0 0 1 .56-1.894c9.29-5.337 15.548-15.35 15.548-26.847"/><path fill="url(#c)" d="M22.035 94.041c2.306-1.317 18.118-32.611 33.6-47.435 15.482-14.823 17.459-9.882 8.894-26.023 0 0-32.776 45.953-44.635 68.682"/><path fill="url(#d)" d="M26.647 52.866c22.136-40.699 25.035-44.8 36.564-44.8 6.061 0 12.172 2.734 16.125 7.593C73.95 6.979 64.413 1.165 53.494 1H15.89c-.79 0-1.432.642-1.432 1.433V78.23c2.24-5.781 6.044-14.05 12.188-25.364"/><path fill="url(#e)" d="M55.635 46.607C40.153 61.43 24.34 92.724 22.035 94.042c-2.306 1.317-6.176 1.482-8.235-.824-2.19-2.454-5.6-6.423 12.847-40.352 22.136-40.699 25.035-44.8 36.564-44.8 6.061 0 12.172 2.734 16.125 7.593.214.346.428.708.642 1.07-6.77-6.967-21.494-8.58-25.15-.033-3.755 8.763 6.308 18.513 10.706 17.74 5.6-.99-.989-13.836-.989-13.836 8.549 16.124 6.572 11.183-8.91 26.007"/><path fill="url(#f)" d="M28.459 54.677c22.136-40.698 25.035-44.8 36.564-44.8 4.99 0 10.014 1.862 13.835 5.222-3.953-4.513-9.816-7.033-15.647-7.033-11.53 0-14.428 4.101-36.564 44.8C8.2 86.795 11.609 90.764 13.8 93.218c.313.346.675.642 1.054.89-1.927-2.8-2.783-9.306 13.605-39.43" opacity=".3"/><defs><linearGradient id="a" x1="1691.32" x2="4261.38" y1="4029.26" y2="4364.46" gradientUnits="userSpaceOnUse"><stop stop-color="#ff6533"/><stop offset=".157" stop-color="#ff5633"/><stop offset=".434" stop-color="#ff4333"/><stop offset=".714" stop-color="#ff3733"/><stop offset="1" stop-color="#f33"/></linearGradient><linearGradient id="b" x1="1294.59" x2="6408.25" y1="3188.46" y2="5400.62" gradientUnits="userSpaceOnUse"><stop stop-color="#bf3338"/><stop offset="1" stop-color="#f33"/></linearGradient><linearGradient id="c" x1="1623.89" x2="2429.2" y1="2921.95" y2="3308.56" gradientUnits="userSpaceOnUse"><stop stop-color="#ff6533"/><stop offset=".157" stop-color="#ff5633"/><stop offset=".434" stop-color="#ff4333"/><stop offset=".714" stop-color="#ff3733"/><stop offset="1" stop-color="#f33"/></linearGradient><linearGradient id="d" x1="3359.79" x2="3080.51" y1="6051.54" y2="3226.69" gradientUnits="userSpaceOnUse"><stop stop-color="#ff6533"/><stop offset=".157" stop-color="#ff5633"/><stop offset=".434" stop-color="#ff4333"/><stop offset=".714" stop-color="#ff3733"/><stop offset="1" stop-color="#f33"/></linearGradient><linearGradient id="e" x1="2743.39" x2="3766.94" y1="4112.65" y2="4537.78" gradientUnits="userSpaceOnUse"><stop stop-color="#fbb040"/><stop offset="1" stop-color="#fb8840"/></linearGradient><linearGradient id="f" x1="3702.1" x2="2132.22" y1="514.664" y2="10930.2" gradientUnits="userSpaceOnUse"><stop stop-color="#fff"/><stop offset="1" stop-color="#fff" stop-opacity="0"/></linearGradient></defs></svg>