<svg xmlns="http://www.w3.org/2000/svg" fill="none" viewBox="0 0 96 96" height="24" width="24"><desc>Ruby Streamline Icon: https://streamlinehq.com</desc><path fill="url(#a)" d="M73.826 63.002 20.158 94.869l69.49-4.715 5.353-70.07z"/><path fill="url(#b)" d="M89.762 90.107 83.79 48.883 67.521 70.365z"/><path fill="url(#c)" d="M89.843 90.106 46.086 86.67l-25.695 8.108z"/><path fill="url(#d)" d="m20.452 94.789 10.931-35.81-24.054 5.143z"/><path fill="url(#e)" d="M67.516 70.483 57.458 31.086 28.674 58.067z"/><path fill="url(#f)" d="M92.718 31.641 65.51 9.418l-7.576 24.496z"/><path fill="url(#g)" d="M79.994 1.496 63.992 10.34 53.896 1.377z"/><path fill="url(#h)" d="m1 76.134 6.704-12.226L2.28 49.343z"/><path fill="#fff" d="M1.92 48.882 7.376 64.36l23.708-5.32 27.067-25.154 7.638-24.262L53.762 1.13 33.313 8.783C26.871 14.775 14.37 26.631 13.92 26.854c-.446.228-8.255 14.988-11.999 22.028"/><path fill="url(#i)" d="M21.078 21.08C35.04 7.238 53.04-.941 59.948 6.028c6.904 6.97-.417 23.907-14.38 37.746-13.962 13.84-31.74 22.47-38.643 15.5-6.907-6.965.19-24.353 14.153-38.192"/><path fill="url(#j)" d="M20.452 94.774 31.297 58.85l36.02 11.571C54.292 82.633 39.808 92.957 20.451 94.774"/><path fill="url(#k)" d="m58.198 33.814 9.247 36.626C78.324 59.002 88.088 46.704 92.87 31.494z"/><path fill="url(#l)" d="M92.775 31.68c3.7-11.168 4.554-27.19-12.896-30.165L65.561 9.424z"/><path fill="#9e1209" d="M1 75.972c.512 18.433 13.81 18.707 19.476 18.87L7.39 64.281z"/><path fill="url(#m)" d="M58.25 33.872c8.36 5.138 25.207 15.457 25.549 15.647.53.298 7.263-11.354 8.791-17.939z"/><path fill="url(#n)" d="m31.283 58.85 14.499 27.972c8.573-4.65 15.286-10.314 21.435-16.382z"/><path fill="url(#o)" d="M7.334 64.32 5.28 88.782c3.876 5.295 9.209 5.755 14.802 5.342C16.035 84.052 7.951 63.912 7.334 64.32"/><path fill="url(#p)" d="m65.476 9.485 28.803 4.042C92.74 7.013 88.02 2.81 79.974 1.496z"/><defs><linearGradient id="a" x1="6363.07" x2="4382.33" y1="8351.12" y2="4848.71" gradientUnits="userSpaceOnUse"><stop stop-color="#fb7655"/><stop offset=".41" stop-color="#e42b1e"/><stop offset=".99" stop-color="#900"/><stop offset="1" stop-color="#900"/></linearGradient><linearGradient id="b" x1="2662.02" x2="-122.406" y1="2559.01" y2="2015.09" gradientUnits="userSpaceOnUse"><stop stop-color="#871101"/><stop offset=".99" stop-color="#911209"/><stop offset="1" stop-color="#911209"/></linearGradient><linearGradient id="c" x1="5283.09" x2="5247.22" y1="1865.1" y2="98.97" gradientUnits="userSpaceOnUse"><stop stop-color="#871101"/><stop offset=".99" stop-color="#911209"/><stop offset="1" stop-color="#911209"/></linearGradient><linearGradient id="d" x1="1210.32" x2="2038.21" y1="318.049" y2="2745.62" gradientUnits="userSpaceOnUse"><stop stop-color="#fff"/><stop offset=".23" stop-color="#e57252"/><stop offset=".46" stop-color="#de3b20"/><stop offset=".99" stop-color="#a60003"/><stop offset="1" stop-color="#a60003"/></linearGradient><linearGradient id="e" x1="1822.17" x2="1972.34" y1="675.147" y2="3302.66" gradientUnits="userSpaceOnUse"><stop stop-color="#fff"/><stop offset=".23" stop-color="#e4714e"/><stop offset=".56" stop-color="#be1a0d"/><stop offset=".99" stop-color="#a80d00"/><stop offset="1" stop-color="#a80d00"/></linearGradient><linearGradient id="f" x1="1343.8" x2="1563.37" y1="391.387" y2="2299.69" gradientUnits="userSpaceOnUse"><stop stop-color="#fff"/><stop offset=".18" stop-color="#e46342"/><stop offset=".4" stop-color="#c82410"/><stop offset=".99" stop-color="#a80d00"/><stop offset="1" stop-color="#a80d00"/></linearGradient><linearGradient id="g" x1="409.063" x2="718.641" y1="524.277" y2="-788.408" gradientUnits="userSpaceOnUse"><stop stop-color="#fff"/><stop offset=".54" stop-color="#c81f11"/><stop offset=".99" stop-color="#bf0905"/><stop offset="1" stop-color="#bf0905"/></linearGradient><linearGradient id="h" x1="186.187" x2="995.795" y1="615.568" y2="1123.08" gradientUnits="userSpaceOnUse"><stop stop-color="#fff"/><stop offset=".31" stop-color="#de4024"/><stop offset=".99" stop-color="#bf190b"/><stop offset="1" stop-color="#bf190b"/></linearGradient><linearGradient id="i" x1="-1201.27" x2="6074.01" y1="7126.08" y2="-376.272" gradientUnits="userSpaceOnUse"><stop stop-color="#bd0012"/><stop offset=".07" stop-color="#fff"/><stop offset=".17" stop-color="#fff"/><stop offset=".27" stop-color="#c82f1c"/><stop offset=".33" stop-color="#820c01"/><stop offset=".46" stop-color="#a31601"/><stop offset=".72" stop-color="#b31301"/><stop offset=".99" stop-color="#e82609"/><stop offset="1" stop-color="#e82609"/></linearGradient><linearGradient id="j" x1="2775.72" x2="716.851" y1="2401.29" y2="1536.51" gradientUnits="userSpaceOnUse"><stop stop-color="#8c0c01"/><stop offset=".54" stop-color="#990c00"/><stop offset=".99" stop-color="#a80d0e"/><stop offset="1" stop-color="#a80d0e"/></linearGradient><linearGradient id="k" x1="2808.31" x2="687.53" y1="2475.53" y2="969.137" gradientUnits="userSpaceOnUse"><stop stop-color="#7e110b"/><stop offset=".99" stop-color="#9e0c00"/><stop offset="1" stop-color="#9e0c00"/></linearGradient><linearGradient id="l" x1="2795.68" x2="1798.36" y1="2237.39" y2="1224.96" gradientUnits="userSpaceOnUse"><stop stop-color="#79130d"/><stop offset=".99" stop-color="#9e120b"/><stop offset="1" stop-color="#9e120b"/></linearGradient><linearGradient id="o" x1="842.655" x2="-945.466" y1="3108.24" y2="1623.94" gradientUnits="userSpaceOnUse"><stop stop-color="#8b2114"/><stop offset=".43" stop-color="#9e100a"/><stop offset=".99" stop-color="#b3100c"/><stop offset="1" stop-color="#b3100c"/></linearGradient><linearGradient id="p" x1="954.621" x2="1462.17" y1="429.812" y2="1713.76" gradientUnits="userSpaceOnUse"><stop stop-color="#b31000"/><stop offset=".44" stop-color="#910f08"/><stop offset=".99" stop-color="#791c12"/><stop offset="1" stop-color="#791c12"/></linearGradient><radialGradient id="m" cx="0" cy="0" r="1" gradientTransform="matrix(2389.15 0 0 1248.42 1157.16 753.112)" gradientUnits="userSpaceOnUse"><stop stop-color="#a80d00"/><stop offset=".99" stop-color="#7e0e08"/><stop offset="1" stop-color="#7e0e08"/></radialGradient><radialGradient id="n" cx="0" cy="0" r="1" gradientTransform="matrix(3176.05 0 0 2472.4 518.164 1201.81)" gradientUnits="userSpaceOnUse"><stop stop-color="#a30c00"/><stop offset=".99" stop-color="#800e08"/><stop offset="1" stop-color="#800e08"/></radialGradient></defs></svg>
