<svg xmlns="http://www.w3.org/2000/svg" fill="none" viewBox="0 0 24 24" height="24" width="24"><desc>Seaborn Icon Streamline Icon: https://streamlinehq.com</desc><path fill="#fff" d="M12.083.47a11.448 11.448 0 1 0 11.446 11.592l.001-.145v-.145A11.447 11.447 0 0 0 12.082.47"/><path fill="#afdad2" stroke="#fff" stroke-width=".063" d="M9.47 7.041a.44.44 0 1 0 0-.881.44.44 0 0 0 0 .881Zm-.95.665a.427.427 0 1 0 0-.854.427.427 0 0 0 0 .854Zm-.914.424a.402.402 0 1 0 0-.805.402.402 0 0 0 0 .804Zm2.664-1.614a.454.454 0 1 0 0-.908.454.454 0 0 0 0 .908Zm-3.349.66a.305.305 0 1 0 0-.61.305.305 0 0 0 0 .61Zm-.753 1.671a.362.362 0 1 0 0-.725.362.362 0 0 0 0 .725Zm.461-2.87a.437.437 0 1 0 0-.873.437.437 0 0 0 0 .873Zm1.178.817a.338.338 0 1 0 0-.675.338.338 0 0 0 0 .675Zm5.824-1.008a.395.395 0 1 0 0-.79.395.395 0 0 0 0 .79ZM5.348 7.88a.24.24 0 1 0 0-.479.24.24 0 0 0 0 .479Zm.796-.225a.284.284 0 1 0 0-.569.284.284 0 0 0 0 .569Zm-1.451-.901a.377.377 0 1 0 0-.753.377.377 0 0 0 0 .753Zm1.482-.166a.196.196 0 1 0 0-.392.196.196 0 0 0 0 .392Zm2.629-.306a.367.367 0 1 0 0-.733.367.367 0 0 0 0 .733Zm2.784.212a.316.316 0 1 0 0-.632.316.316 0 0 0 0 .632Zm.579-1.973a.207.207 0 1 0 0-.414.207.207 0 0 0 0 .414Zm.673 1.192a.346.346 0 1 0 0-.692.346.346 0 0 0 0 .692ZM9.384 5.51a.355.355 0 1 0 0-.71.355.355 0 0 0 0 .71ZM4.932 8.927a.288.288 0 1 0 0-.577.288.288 0 0 0 0 .577Z"/><path fill="#afdad2" stroke="#fff" stroke-width=".063" d="M14.431 5.862a.44.44 0 1 0 0-.879.44.44 0 0 0 0 .879Zm-4.238-.298a.403.403 0 1 0 0-.806.403.403 0 0 0 0 .806Zm-4.685.326a.374.374 0 1 0 0-.748.374.374 0 0 0 0 .747Zm2.081-.966a.432.432 0 1 0 0-.864.432.432 0 0 0 0 .864Zm8.108.582a.267.267 0 1 0 0-.534.267.267 0 0 0 0 .534Zm-9.298-1.09a.34.34 0 1 0 0-.68.34.34 0 0 0 0 .68ZM7.93 5.937a.289.289 0 1 0 0-.578.289.289 0 0 0 0 .578Zm.692-.627a.294.294 0 1 0 0-.587.294.294 0 0 0 0 .587Zm-4.535.746a.296.296 0 1 0 0-.591.296.296 0 0 0 0 .59Zm.814-1.15a.271.271 0 1 0 0-.542.271.271 0 0 0 0 .542Zm6.257.842a.227.227 0 1 0 0-.455.227.227 0 0 0 0 .455ZM3.879 7.552a.376.376 0 1 0 0-.751.376.376 0 0 0 0 .751Zm-.839-.633a.282.282 0 1 0 0-.565.282.282 0 0 0 0 .565Zm8.893-1.237a.284.284 0 1 0 0-.568.284.284 0 0 0 0 .568ZM5.475 7.157a.438.438 0 1 0 0-.876.438.438 0 0 0 0 .876Zm9.648-1.991a.439.439 0 1 0 0-.878.439.439 0 0 0 0 .878ZM4.112 9.303a.255.255 0 1 0 0-.51.255.255 0 0 0 0 .51Zm6.365-4.971a.35.35 0 1 0 0-.7.35.35 0 0 0 0 .7Zm7.279.483a.358.358 0 1 0 0-.716.358.358 0 0 0 0 .716Zm-4.761-.183a.285.285 0 1 0 0-.57.285.285 0 0 0 0 .57Zm-6.213 3.76a.372.372 0 1 0 0-.743.372.372 0 0 0 0 .743Zm7.18-3.637a.356.356 0 1 0 0-.711.356.356 0 0 0 0 .711Zm2.518.347a.295.295 0 1 0 0-.59.295.295 0 0 0 0 .59Zm2.783.638a.266.266 0 1 0 0-.53.266.266 0 0 0 0 .53ZM9.32 3.788a.229.229 0 1 0 0-.458.229.229 0 0 0 0 .458Zm2.082-.628a.335.335 0 1 0 0-.67.335.335 0 0 0 0 .67Zm7.802 1.797a.442.442 0 1 0 0-.884.442.442 0 0 0 0 .884Zm-8.307.18a.417.417 0 1 0 0-.835.417.417 0 0 0 0 .835Zm1.543-1.564a.416.416 0 1 0 0-.833.416.416 0 0 0 0 .833Zm3.61.507a.431.431 0 1 0 0-.863.431.431 0 0 0 0 .863Zm4.466 2.712a.408.408 0 1 0 0-.817.408.408 0 0 0 0 .817Zm-9.208-4.944a.233.233 0 1 0 0-.467.233.233 0 0 0 0 .467Z"/><path fill="#afdad2" stroke="#fff" stroke-width=".063" d="M15.032 4.323a.392.392 0 1 0 0-.783.392.392 0 0 0 0 .783Zm-.524-.752a.316.316 0 1 0 0-.632.316.316 0 0 0 0 .632Zm-1.588-.688a.406.406 0 1 0 0-.811.406.406 0 0 0 0 .81ZM8.446 4.537a.455.455 0 1 0 0-.91.455.455 0 0 0 0 .91Zm-2.805-.67a.248.248 0 1 0 0-.495.248.248 0 0 0 0 .495Zm1.178-.166a.32.32 0 1 0 0-.642.32.32 0 0 0 0 .642Zm10.783 1.945a.396.396 0 1 0 0-.792.396.396 0 0 0 0 .792Zm-4.34-2.086a.22.22 0 1 0 0-.439.22.22 0 0 0 0 .44Zm-4.665.044a.417.417 0 1 0 0-.833.417.417 0 0 0 0 .833ZM2.483 8.712a.362.362 0 1 0 0-.724.362.362 0 0 0 0 .724Zm.965.125a.42.42 0 1 0 0-.842.42.42 0 0 0 0 .842ZM6.85 5.126a.405.405 0 1 0 0-.81.405.405 0 0 0 0 .81ZM2.602 7.81a.314.314 0 1 0 0-.628.314.314 0 0 0 0 .628ZM15.26 3.253a.344.344 0 1 0 0-.687.344.344 0 0 0 0 .687ZM5.697 4.696a.313.313 0 1 0 0-.626.313.313 0 0 0 0 .626Z"/><path fill="#afdad2" stroke="#fff" stroke-width=".063" d="M4.182 8.461a.439.439 0 1 0 0-.877.439.439 0 0 0 0 .877Zm14.252-2.984a.43.43 0 1 0 0-.859.43.43 0 0 0 0 .86Zm1.549-.051a.296.296 0 1 0 0-.591.296.296 0 0 0 0 .591ZM9.769 4.695a.33.33 0 1 0 0-.658.33.33 0 0 0 0 .658Zm7.224-.37a.276.276 0 1 0 0-.551.276.276 0 0 0 0 .551Zm-.119-.691a.45.45 0 1 0 0-.899.45.45 0 0 0 0 .9Zm-5.542.766a.402.402 0 1 0 0-.803.402.402 0 0 0 0 .803Zm8.493 1.943a.345.345 0 1 0 0-.69.345.345 0 0 0 0 .69ZM3.366 9.456a.202.202 0 1 0 0-.404.202.202 0 0 0 0 .404Zm4.249-5.607a.378.378 0 1 0 0-.755.378.378 0 0 0 0 .755Zm2.756-.616a.27.27 0 1 0 0-.539.27.27 0 0 0 0 .54Zm7.826.831a.34.34 0 1 0 0-.679.34.34 0 0 0 0 .679ZM9.618 2.689a.422.422 0 1 0 0-.844.422.422 0 0 0 0 .844Z"/><path fill="#afdad2" stroke="#fff" stroke-width=".063" d="M16.237 3.092a.39.39 0 1 0 0-.78.39.39 0 0 0 0 .78Zm-8.521-.416a.313.313 0 1 0 0-.625.313.313 0 0 0 0 .625Zm.75-.242a.345.345 0 1 0 0-.69.345.345 0 0 0 0 .69Zm5.315-.432a.405.405 0 1 0 0-.81.405.405 0 0 0 0 .81Zm-1.625.086a.315.315 0 1 0 0-.63.315.315 0 0 0 0 .63Zm2.434.384a.24.24 0 1 0 0-.482.24.24 0 0 0 0 .482Z"/><path fill="#afdad2" stroke="#fff" stroke-width=".063" d="M13.785 2.842a.447.447 0 1 0 0-.893.447.447 0 0 0 0 .893Zm1.772-.434a.309.309 0 1 0 0-.617.309.309 0 0 0 0 .617ZM1.712 9.935a.388.388 0 1 0 0-.775.388.388 0 0 0 0 .775Zm8.794-7.553a.209.209 0 1 0 0-.417.209.209 0 0 0 0 .417Zm7.168.955a.252.252 0 1 0 0-.504.252.252 0 0 0 0 .504Zm-4.706-1.26a.364.364 0 1 0 0-.728.364.364 0 0 0 0 .728Zm-8.316 5.53a.42.42 0 1 0 0-.839.42.42 0 0 0 0 .84Z"/><path fill="#fff" d="m16.255 5.626-.433-.01-.434.01-.433.03-.432.05-.433.068-.432.088-.431.104-.43.121-.43.135-.43.149-.428.16-.428.17-.427.177-.427.184-.426.189-.425.191-.848.386-.424.19-.423.189-.423.184-.422.178-.422.172-.422.166-.421.158-.421.15-.421.14-.42.133-.421.124-.421.115-.42.106-.421.098-.42.09-.421.08-.421.074-.462.073-.02.14a11.2 11.2 0 0 0-.046 2.87l.03.26.61-.27.424-.192.85-.386.423-.19.423-.188.422-.182.422-.176.421-.167.42-.157.42-.145.42-.132.418-.117.417-.101.417-.085.416-.066.416-.048.416-.029.415-.01.415.01.415.03.415.048.416.067.417.084.417.102.417.117.418.132.42.145.42.156.42.167.42.176.422.182.423.187.423.19.848.386.424.191.425.189.426.185.426.18.426.174.427.168.426.16.428.151.427.144.427.135.428.126.428.117.427.108.428.1.602.127.05-.172a11.3 11.3 0 0 0 .446-2.996l.001-.142v-.143l-.004-.152a11.2 11.2 0 0 0-.85-4.005l-.04-.093-.07-.16-.436-.197-.425-.188-.426-.184-.427-.178-.427-.17-.428-.159-.428-.148-.43-.135-.43-.121-.43-.105-.431-.087-.432-.07-.433-.05zm-.438.182.424.01.424.03.424.049.425.067.424.086.424.103.424.12.424.133.424.147.424.158.424.168.424.177.425.183.424.188.369.166.077.181c.518 1.25.801 2.584.837 3.935l.003.15v.281c-.013.999-.161 1.99-.44 2.946l-.422-.09-.424-.099-.424-.107-.425-.116-.424-.125-.424-.134-.424-.142-.424-.15-.424-.16-.424-.166-.424-.173-.424-.18-.425-.184-.424-.188-.424-.192-.848-.385-.424-.191-.424-.188-.424-.183-.424-.177-.425-.168-.424-.158-.424-.147L12 11.15l-.424-.12-.424-.102-.424-.086-.424-.068-.424-.05-.425-.029-.424-.01-.424.01-.424.03-.424.049-.424.068-.424.086-.424.103-.425.119-.424.133-.424.147-.424.158-.424.168-.424.177-.424.183-.424.188-.424.19-.849.386-.424.192-.37.164a11 11 0 0 1 .046-2.82l.324-.051.424-.074.424-.083.425-.09.424-.098.424-.108.424-.115.424-.125.424-.134.424-.142.424-.151.424-.159.425-.166.424-.174.424-.179.424-.184.424-.189.424-.191.848-.385.425-.191.424-.188.424-.183.424-.177.424-.168.424-.158.424-.147.424-.134.424-.119.425-.103.424-.086.424-.067.424-.05.424-.03z"/><path fill="#7db0bc" stroke="#fff" d="m15.817 5.762.426.01.426.03.427.05.426.067.426.087.425.103.426.12.425.133.426.147.425.16.425.168.424.177.425.183.424.188.386.174q.043.098.084.198a11.1 11.1 0 0 1 .842 4.009l.002.093v.281a11 11 0 0 1-.453 3l-.466-.1-.425-.098-.425-.108-.425-.116-.425-.125-.425-.134-.424-.143-.425-.15-.425-.16-.425-.166-.424-.174-.425-.18-.424-.184-.425-.188-.424-.192-.848-.385-.424-.191-.424-.188-.423-.183-.424-.176-.423-.168-.423-.158-.423-.146-.423-.133-.423-.119-.422-.102-.423-.086-.422-.068-.422-.048-.422-.03-.422-.01-.422.01-.422.03-.422.048-.422.068-.422.086-.423.102-.423.119-.422.133-.423.146-.423.158-.423.168-.424.176-.424.183-.424.188-.424.19-.848.386-.424.192-.427.19a11 11 0 0 1 .043-2.928l.357-.056.423-.074.424-.082.423-.09.423-.099.424-.107.423-.115.423-.125.423-.133.424-.142.423-.15.424-.16.423-.166.424-.173.423-.179.424-.184.424-.188.424-.192.848-.385.425-.191.424-.188.425-.184.425-.176.425-.17.424-.158.426-.147.425-.134.426-.119.425-.103.426-.087.426-.068.426-.05.427-.029z" stroke-width=".25"/><path fill="#5c7da2" d="m9.031 10.897.424.01.424.03.425.049.424.068.424.086.424.103.424.119.424.133.424.147.424.158.424.169.425.176.424.183.424.188.424.191.424.193.424.193.424.19.424.19.424.184.425.179.424.173.424.167.424.158.424.151.424.143.424.133.424.125.424.116.425.107.424.099.363.077a11.05 11.05 0 0 1-6.317 6.916 11.042 11.042 0 0 1-15.173-8.764l.345-.153.424-.191.424-.193.425-.193.424-.19.424-.189.424-.183.424-.176.424-.169.424-.158.424-.147.424-.133.425-.12.424-.102.424-.086.424-.068.424-.05.424-.029z"/><path fill="#444876" d="M9.88 13.756v1.423h2.544v1.964h2.545v1.343h2.544v.567h2.545v.496a11.042 11.042 0 0 1-17.813-2.375v-1.326H4.79v-1.772h2.545v-.32z"/><path fill="#fff" d="M9.966 13.67v1.422h2.545v1.964h2.545v1.343H17.6v.567h2.545v.489l-.174.186v-.501h-2.37v2.376l-.174.1v-3.043h-2.371v4.037l-.174.049v-5.43h-2.37l-.001 5.8q-.087.006-.174.008v-7.772h-2.37v7.588l-.175-.034v-8.976h-2.37v8.205l-.174-.081v-7.804H4.877v6.274l-.174-.15v-4.352h-2.37v1.399q-.09-.162-.175-.328v-1.245h2.545V13.99h2.545v-.32z"/><path fill="#444876" d="M12 .25a11.75 11.75 0 0 1 11.749 11.6l.001.15-.001.15A11.75 11.75 0 1 1 12 .25m0 .386a11.364 11.364 0 1 0 11.363 11.508l.001-.144v-.144A11.364 11.364 0 0 0 12 .636"/></svg>
