<svg xmlns="http://www.w3.org/2000/svg" fill="none" viewBox="0 0 24 24" height="24" width="24"><desc>Sequelize Streamline Icon: https://streamlinehq.com</desc><path fill="#2f406a" d="M19.228 7.744v8.466l-7.193 4.256-.065.059v3.164l.065.061 10.13-5.852V6.102l-.095-.024-2.856 1.597z"/><path fill="#2379bd" d="m4.818 16.279 7.217 4.186v3.285l-10.2-5.875V6.125l.104-.016 2.848 1.656.031.095z"/><path fill="#03afef" d="M4.818 7.86 1.834 6.125 12.012.25l10.154 5.852-2.938 1.642-7.216-4.117z"/><path fill="#2f406a" d="m11.91 15.31-.077-.079v-3.179l.078-.04.019-.079 2.725-1.59.084.02v3.275z"/><path fill="#2379bd" d="M9.036 13.74v-3.401l.079-.004 2.772 1.613.024.064v3.299z"/><path fill="#03afef" d="m11.864 8.666-2.828 1.673 2.875 1.673 2.827-1.65z"/><path fill="#2f406a" d="m8.392 17.384-.078-.08v-3.178l.078-.04.019-.079 2.725-1.59.084.02v3.274z"/><path fill="#2379bd" d="M5.517 15.814v-3.402l.08-.003 2.771 1.613.024.063v3.3z"/><path fill="#03afef" d="m8.345 10.74-2.828 1.673 2.875 1.673 2.828-1.65z"/><path fill="#2f406a" d="m15.68 17.463-.077-.08v-3.179l.078-.04.019-.078 2.725-1.59.084.019v3.275z"/><path fill="#2379bd" d="M12.806 15.892v-3.4l.08-.005 2.771 1.614.024.063v3.3z"/><path fill="#03afef" d="m15.634 10.818-2.828 1.673 2.875 1.673 2.828-1.65z"/><path fill="#2f406a" d="m12.162 19.537-.078-.08v-3.179l.078-.04.02-.079 2.724-1.59.084.02v3.275z"/><path fill="#2379bd" d="M9.287 17.966v-3.401l.08-.004 2.771 1.613.024.064v3.299z"/><path fill="#03afef" d="m12.115 12.892-2.828 1.673 2.875 1.673 2.828-1.65z"/><path fill="#2f406a" d="m11.91 10.802-.077-.08V7.545l.078-.04.019-.079 2.725-1.59.084.019V9.13z"/><path fill="#2379bd" d="M9.036 9.231v-3.4l.079-.004 2.772 1.613.024.063v3.3z"/><path fill="#03afef" d="M11.864 4.157 9.036 5.83l2.875 1.673 2.827-1.649z"/><path fill="#2f406a" d="m8.392 12.876-.078-.08V9.618l.078-.04.019-.08 2.725-1.589.084.019v3.275z"/><path fill="#2379bd" d="M5.517 11.305V7.904l.08-.004 2.771 1.613.024.064v3.299z"/><path fill="#03afef" d="M8.345 6.231 5.517 7.904l2.875 1.673 2.828-1.65z"/><path fill="#2f406a" d="m15.68 12.955-.077-.08V9.696l.078-.04.019-.079 2.725-1.59.084.02v3.275z"/><path fill="#2379bd" d="M12.806 11.383v-3.4l.08-.004 2.771 1.613.024.063v3.3z"/><path fill="#03afef" d="m15.634 6.31-2.828 1.673 2.875 1.673 2.828-1.65z"/><path fill="#2f406a" d="m12.162 15.028-.078-.08V11.77l.078-.04.02-.078 2.724-1.59.084.019v3.275z"/><path fill="#2379bd" d="M9.287 13.457v-3.4l.08-.005 2.771 1.614.024.063v3.3z"/><path fill="#03afef" d="m12.115 8.383-2.828 1.673 2.875 1.673 2.828-1.65z"/></svg>
