<svg xmlns="http://www.w3.org/2000/svg" fill="none" viewBox="0 0 24 24" height="24" width="24"><desc>Socket.io Streamline Icon: https://streamlinehq.com</desc><path fill="#010101" d="M9.024.633c3.04-.78 6.401-.326 9.083 1.33 3.377 2.019 5.582 5.84 5.638 9.772.123 3.972-1.947 7.91-5.274 10.07-3.702 2.49-8.824 2.586-12.605.219-3.854-2.3-6.104-6.94-5.526-11.394.466-4.707 4.1-8.86 8.684-9.997"/><path fill="#fff" d="M8.559 2.557c5.744-2.3 12.79 1.947 13.385 8.106.926 5.543-3.674 11.175-9.29 11.338-5.34.533-10.502-3.994-10.653-9.357C1.602 8.3 4.463 3.993 8.559 2.557"/><path fill="#010101" d="M9.136 11.404c2.575-2.104 5.094-4.28 7.725-6.323-1.38 2.121-2.799 4.214-4.179 6.334-1.184.006-2.367.006-3.546-.011m2.177 1.172c1.19 0 2.373 0 3.557.017-2.592 2.093-5.1 4.286-7.736 6.323 1.38-2.12 2.799-4.219 4.179-6.34"/></svg>
