<svg xmlns="http://www.w3.org/2000/svg" width="24" height="24" fill="none" viewBox="0 0 96 96"><desc>Sublimetext Icon Streamline Icon: https://streamlinehq.com</desc><path fill="url(#a)" d="M84.175 48.278c0-1.102-.814-1.737-1.813-1.422L13.628 68.652c-1.001.318-1.813 1.47-1.813 2.57v22.275c0 1.102.812 1.74 1.813 1.422l68.734-21.794c.999-.318 1.813-1.47 1.813-2.571z"/><path fill="#ff9800" d="M11.815 47.567c0 1.102.812 2.254 1.813 2.571l68.744 21.798c1.001.318 1.813-.32 1.813-1.42V48.24c0-1.1-.812-2.252-1.813-2.57L13.628 23.873c-1.001-.318-1.813.318-1.813 1.42z"/><path fill="#ff9800" d="M84.175 2.503c0-1.102-.814-1.739-1.813-1.421L13.628 22.875c-1.001.318-1.813 1.47-1.813 2.571v22.277c0 1.101.812 1.737 1.813 1.42l68.734-21.795c.999-.317 1.813-1.47 1.813-2.569z"/><defs><linearGradient id="a" x1="4000.12" x2="4303.61" y1="2876.58" y2="1861.79" gradientUnits="userSpaceOnUse"><stop stop-color="#ff9700"/><stop offset=".53" stop-color="#f48e00"/><stop offset="1" stop-color="#d06f00"/></linearGradient></defs></svg>