<svg xmlns="http://www.w3.org/2000/svg" width="24" height="24" fill="none" viewBox="0 0 24 24"><desc>React Query Icon Streamline Icon: https://streamlinehq.com</desc><path fill="#00435b" d="m14.752 14.555-.45.783a.76.76 0 0 1-.66.381H10.19a.76.76 0 0 1-.66-.38l-.45-.784zm1.262-2.19-.795 1.38H8.612l-.795-1.38zm-.766-2.143.767 1.331h-8.2l.768-1.331zm-1.606-2.026a.76.76 0 0 1 .66.381l.48.833H9.05l.48-.833a.76.76 0 0 1 .659-.381z"/><path fill="#002b3b" d="M5.163 7.833c-.382-1.855-.464-3.278-.217-4.31.147-.615.416-1.116.825-1.478.431-.382.977-.569 1.59-.569 1.012 0 2.075.461 3.211 1.337q.696.537 1.444 1.293.06-.077.135-.144c1.413-1.259 2.602-2.04 3.619-2.342.604-.18 1.172-.197 1.69-.023.545.184.98.564 1.287 1.096.506.877.64 2.03.45 3.454q-.115.87-.393 1.898.105.013.21.047c1.792.594 3.06 1.233 3.829 1.963.457.434.755.917.863 1.452.114.565.003 1.132-.303 1.663-.506.877-1.435 1.568-2.759 2.115q-.797.33-1.805.598.045.105.07.22c.383 1.855.465 3.278.218 4.31-.147.615-.416 1.116-.825 1.478-.432.382-.977.57-1.59.57-1.012 0-2.075-.462-3.212-1.338a15 15 0 0 1-1.46-1.31 1 1 0 0 1-.191.225c-1.412 1.259-2.602 2.04-3.619 2.342-.604.18-1.172.197-1.69.023-.545-.184-.98-.564-1.287-1.096-.506-.877-.64-2.03-.45-3.455q.119-.9.414-1.972a1 1 0 0 1-.23-.05c-1.793-.593-3.062-1.232-3.83-1.961-.457-.435-.755-.918-.863-1.453-.114-.565-.003-1.132.303-1.663.506-.876 1.435-1.568 2.759-2.115q.82-.338 1.865-.614a1 1 0 0 1-.058-.191"/><path fill="#ff4154" d="M17.659 16.285a.34.34 0 0 1 .389.258l.002.01.019.1q.924 4.857-1.302 4.857-2.177 0-5.544-4.145a.338.338 0 0 1 .255-.551h.129q1.416.009 2.754-.098a35 35 0 0 0 3.298-.43m-10.19-2.447.006.01.06.103q.713 1.239 1.485 2.352a35 35 0 0 0 2.046 2.654.34.34 0 0 1-.029.467l-.008.008-.076.065q-3.76 3.222-4.888 1.287-1.104-1.895.8-6.89a.338.338 0 0 1 .604-.056M18.931 9.06l.01.004.095.032q4.64 1.615 3.526 3.549-1.09 1.89-6.338 2.754a.338.338 0 0 1-.346-.505q.751-1.279 1.354-2.544a35 35 0 0 0 1.282-3.082.34.34 0 0 1 .407-.21zM8 8.517a.34.34 0 0 1 .121.463q-.751 1.279-1.354 2.545a35 35 0 0 0-1.282 3.081.34.34 0 0 1-.417.208l-.01-.004-.095-.032q-4.641-1.615-3.526-3.549 1.09-1.89 6.338-2.754a.34.34 0 0 1 .226.042m9.934-5.3q1.104 1.894-.8 6.888a.338.338 0 0 1-.605.057l-.005-.01-.06-.103q-.713-1.239-1.485-2.352a35 35 0 0 0-2.046-2.655.34.34 0 0 1 .028-.466l.009-.008.076-.065q3.76-3.222 4.888-1.287m-10.576-.77q2.178 0 5.544 4.146a.338.338 0 0 1-.255.55h-.128a33 33 0 0 0-2.755.099 35 35 0 0 0-3.297.43.34.34 0 0 1-.389-.258l-.002-.01-.02-.099Q5.135 2.448 7.36 2.448"/><path fill="#ffd94c" d="M10.466 8.238h2.899c.424 0 .815.227 1.026.595l1.456 2.536c.21.365.21.813 0 1.178l-1.456 2.536a1.18 1.18 0 0 1-1.026.594h-2.899c-.423 0-.815-.226-1.026-.594l-1.455-2.536a1.18 1.18 0 0 1 0-1.178L9.44 8.833a1.18 1.18 0 0 1 1.026-.595m2.457.766c.424 0 .816.227 1.027.595l1.015 1.77c.209.365.209.813 0 1.177l-1.015 1.77a1.18 1.18 0 0 1-1.027.596h-2.015c-.424 0-.816-.227-1.027-.595l-1.014-1.77a1.18 1.18 0 0 1 0-1.178L9.88 9.6a1.18 1.18 0 0 1 1.027-.595zm-.476.837h-1.063c-.423 0-.815.226-1.026.594l-.536.933c-.21.365-.21.814 0 1.18l.536.933c.211.367.603.594 1.026.594h1.063c.424 0 .815-.227 1.026-.594l.536-.934c.21-.365.21-.814 0-1.179l-.536-.933a1.18 1.18 0 0 0-1.026-.594m-.458.801c.423 0 .814.226 1.025.593l.076.132c.21.366.21.816 0 1.181l-.076.132a1.18 1.18 0 0 1-1.025.593h-.146c-.424 0-.815-.226-1.026-.593l-.076-.132a1.18 1.18 0 0 1 0-1.18l.076-.133a1.18 1.18 0 0 1 1.026-.593zm-.073.79a.527.527 0 1 0 0 1.053.527.527 0 0 0 0-1.053m-4.27.526h.948Z"/></svg>