<svg xmlns="http://www.w3.org/2000/svg" width="24" height="24" fill="none" viewBox="0 0 24 24"><desc>Travis Ci Streamline Icon: https://streamlinehq.com</desc><path fill="#0e0f0d" d="M23.692 8.532a3 3 0 0 0-.041-.255 3 3 0 0 0-.061-.26l-.066-.105a4.5 4.5 0 0 0-.856-.513 9 9 0 0 0-.742-.308c-.698-1.938-1.898-3.656-3.476-4.853C16.818 1 14.9.345 12.9.345c-1.998 0-3.917.655-5.548 1.893-1.578 1.197-2.779 2.916-3.477 4.854q-.376.137-.741.307a4.5 4.5 0 0 0-.857.513l-.065.104a4 4 0 0 0-.103.516q-.036.255-.049.511-.026.515.03 1.027.055.51.19 1.011.07.249.165.493.048.123.105.243l.06.121c.048.082.056.098.076.127l.088.082c.058.03.106.052.158.077l.153.068.083.035a12.7 12.7 0 0 0-2.096 2.5l-.822 1.3 1.155-1.014c.02-.017.988-.856 2.603-1.806l.023.186c-.106.055-.613.322-.764.448-.25.208-.263.53-.196 1.132.035.308.15.907.306 1.456.269.944.466 1.111.639 1.15.078.019.178.027.291.027.31 0 .706-.06.965-.138a9.5 9.5 0 0 0 1.256 2.542l-.075.022c-.315-.146-1.417-.656-1.787-.822l-.774-.349.458.715c.033.051.823 1.283 1.468 2.113.603.774 1.43 1.567 2.988 1.567q.282 0 .586-.034c.465-.054.814-.096 1.08-.13a7.31 7.31 0 0 0 6.439-.646c.66-.159 1.382-.33 1.739-.43.057-.016.129-.033.203-.051.497-.114 1.327-.307 1.77-1.193.447-.894 1.174-2.263 1.182-2.277l.34-.64-.663.29a27 27 0 0 0-1.312.61c.303-.698.482-1.276.544-1.498.245.059.607.051.874.051.13 0 .265-.023.353-.045.173-.044.307-.16.558-1.134.147-.566.252-1.183.28-1.5.056-.617.038-.947-.214-1.156-.125-.104-.493-.302-.68-.4.104-.045.156-.031.16-.03l.17-.645q.088-.038.195-.079.153-.06.308-.126l.152-.068c.052-.025.1-.047.158-.077l.088-.082a3 3 0 0 0 .136-.248 4 4 0 0 0 .105-.243 5 5 0 0 0 .165-.493 6.5 6.5 0 0 0 .17-2.549"/><path fill="#e1c5a2" d="M13.973 21.808a5 5 0 0 1-.375.044c-.08.004-.165.012-.242.012h-.028q.143-.32.225-.509c.113.127.257.284.42.453"/><path fill="#a89983" d="M13.82 12.176a5.5 5.5 0 0 1-.616.437l-.716.432c-.45.055-.84.166-.862.173a.17.17 0 0 0-.111.11l-.73 2.403-3.899.867-1.228-.86-.358-2.894c.698-.128 1.63-.276 2.751-.402a7 7 0 0 0-.347.453l-.667.957.971-.647c.015-.01.633-.418 1.645-.913a45 45 0 0 1 4.168-.116m-6.069 3.261c.277-.15.59-.128 1.08-.127h.163l.148-.003c.505-.005.925.043.917-.75-.007-.792-.36-1.433-.864-1.428-.505.005-.993.654-.963 1.446.008.206.039.355.087.462-.44.11-.561.383-.568.4m12.827-2.603-.351 2.461-1.239.868-3.894-.443-.727-2.393a.16.16 0 0 0-.11-.11 6 6 0 0 0-1.018-.189l.094-.006c.08-.006 1.423-.17 3.027-.723 1.776.136 3.227.354 4.218.535m-2.488 2.278c-.005-.019-.112-.337-.58-.281.053-.118.077-.277.06-.495-.062-.791-.522-1.42-1.026-1.402-.505.018-.828.673-.8 1.467.028.791.451.786.956.768.677-.013 1.05-.221 1.39-.057"/><path fill="#fff" d="M16.759 13.689a.258.258 0 1 1-.516.009.258.258 0 0 1 .516-.01m-7.229.19a.258.258 0 1 1-.515.013.258.258 0 0 1 .515-.013"/><path fill="#e1c5a2" d="M22.279 13.917a4 4 0 0 0-.463-.274l-.326 2.288a.17.17 0 0 1-.068.11l-.467.327q-.017.08-.028.145c.458.113.904-.218 1.154-.457.116-.45.217-.986.252-1.369.053-.593.006-.72-.054-.77m-7.212 8.691a2.2 2.2 0 0 1-.823-.522l-.06-.06a5 5 0 0 1-.572.082c-.082.003-.16.01-.246.01l-.127.001h-.049c-.29.43-.776.666-1.158.792 1.134.194 2.38-.104 3.035-.303M5.09 17.005l-.03-.103-.607-.425a.17.17 0 0 1-.068-.114l-.296-2.402a5 5 0 0 0-.54.318c-.058.048-.102.171-.04.743.049.43.2 1.092.355 1.587.307.235.76.483 1.227.396m9.069-.109a.16.16 0 0 1-.138-.116l-.749-2.467a3 3 0 0 0-.33-.025q-.143 0-.331.025l-.728 2.397a.16.16 0 0 1-.12.111l-.349.078c-.03.122-.13.303-.452.402-.52.159-3.817 1.141-4.193 1.088-.22-.031-.637-.262-.946-.448a8 8 0 0 1-.207-.536h-.001c.043.128.473 1.366 1.347 2.577.937-.276 1.746-.533 2.005-.615.527-.813 1.278-1.62 1.811-1.647a6 6 0 0 1 1.024.039c-.196-.179-.237-.387-.265-.48 0 0 .68.533 1.547.42a2.73 2.73 0 0 0 1.406-.61l.017-.154z"/><path fill="#e1c5a2" d="M14.864 17.208a.73.73 0 0 1-.365-.198l-.009.079s-.003.364-.38.646c.727-.22 1.027-.294 1.233-.294.226 0 .338.094.437.177l.059.05c.559.439 1.23.973 1.427 1.13.227.026.949.108 1.403.15.262.024.499.044.73.044q.112 0 .212-.007.361-.687.656-1.526c-.268.189-.88.601-1.167.654-.373.07-3.71-.769-4.236-.905"/><path fill="#e0d896" d="M23.26 8.58a6 6 0 0 0-.05-.403 5 5 0 0 0-.7-.478q-.406-.237-.84-.43a16 16 0 0 0-.877-.378q-.222-.09-.446-.173-.225-.086-.45-.168c.316.053.63.125.941.205q.304.078.604.174C20.018 3.209 16.616.787 12.901.787S5.783 3.209 4.36 6.929q.3-.095.603-.174c.311-.08.625-.152.942-.205q-.227.082-.452.168-.224.083-.445.173c-.296.12-.59.242-.877.377a9 9 0 0 0-.841.431c-.25.143-.488.3-.7.478a5 5 0 0 0-.05.403q-.019.239-.02.477a7 7 0 0 0 .246 1.888q.063.229.146.447a4 4 0 0 0 .138.315l.02.039.072.035.141.067.279.129.014-.014-.263-1a23 23 0 0 1 1.414-.308 4 4 0 0 1-.784-.228 3 3 0 0 1-.27-.131 1 1 0 0 1-.24-.182c.944.308 2.895.169 4.63-.01a48 48 0 0 1 4.773-.273 48 48 0 0 1 4.774.272c1.735.18 3.686.32 4.63.01a1 1 0 0 1-.238.183q-.133.074-.272.131a4 4 0 0 1-.576.184l-.087.02c.942.174 1.491.316 1.55.332l-.252.953q.077-.033.152-.068l.141-.067.072-.035.019-.04q.026-.049.049-.1.048-.105.09-.214a5 5 0 0 0 .146-.447c.086-.304.144-.619.187-.935a7 7 0 0 0 .038-1.43"/><path fill="#d7c184" d="M16.81 6.73c.014.425.004 1.198-.194 1.92a.16.16 0 0 0 0 .083 31 31 0 0 0-.758-.07c.283-.593.345-1.226.359-1.449a7 7 0 0 0 .593-.484m-7.224.485c.013.222.075.853.358 1.447q-.38.03-.757.07a.16.16 0 0 0 0-.082c-.198-.721-.208-1.493-.195-1.92.16.144.376.33.594.485M19.91 9.323l-.004.02.082.026c.234.076.468.156.69.26-.372-.243-.608-.941-.74-1.475.036.699-.024 1.142-.027 1.169M8.681 6.596l-2.41.685a8 8 0 0 0-.077 1.902l.012-.007s.078-1.021.238-1.413c.083-.201.587-.33.972-.422.386-.091 1-.275 1.12.266.073.335.175.613.272.818a7.5 7.5 0 0 1-.127-1.83m8.439.001c.02.372.03 1.143-.146 1.916.11-.21.232-.52.316-.905.12-.54.734-.357 1.12-.266.385.092.89.22.972.422.135.332.212 1.114.232 1.346a8.2 8.2 0 0 0-.083-1.828zm-7.553.208q.13.105.262.195a.16.16 0 0 1 .069.128c0 .008.018.802.37 1.478l.011.032c.873-.06 1.749-.083 2.622-.084q1.312-.002 2.621.086.005-.017.013-.034c.35-.676.37-1.47.37-1.478 0-.051.027-.1.069-.128q.127-.087.252-.188l.011-.03c.183-1.777-.152-3.414-.365-4.223-.01.553-.142 5.292-1.318 5.292h-3.246c-1.248 0-1.349-5.343-1.349-5.343l-.064.19c-.213.852-.506 2.418-.328 4.107m-3.671 2.54-.004-.021a6.7 6.7 0 0 1-.028-1.17c-.132.534-.369 1.234-.742 1.476.223-.103.458-.184.692-.26z"/><path fill="#9f8f78" d="M20.927 16.513c-.02.102-.037.184-.07.313.268.063.706.111.915.07.09-.097.206-.435.31-.84-.25.239-.697.57-1.155.457m-9.593 6.552c.64.175 1.292.25 1.936.208a7.7 7.7 0 0 0 2.373-.544 2.2 2.2 0 0 1-.576-.121c-.655.2-1.901.497-3.035.302-.3.1-.535.13-.558.133a2 2 0 0 0-.14.022m-6.201-5.916-.042-.143c-.468.086-.92-.162-1.227-.396.099.318.2.568.274.644.232.04.744-.031.995-.105m.691.792c.309.186.726.417.946.447.376.054 3.672-.929 4.193-1.087.322-.1.423-.28.452-.403l-4.755 1.06-.036.003a.16.16 0 0 1-.094-.03l-.185-.129-.556-.389-.224-.157.013.038.038.11v.001c.016.047.085.245.208.536m14.587-.914q.046-.168.087-.34l-.165.116-.444.31-.48.338a.17.17 0 0 1-.113.029l-4.788-.545-.008.075a.73.73 0 0 0 .364.198c.526.136 3.863.975 4.236.905.287-.053.899-.466 1.167-.654l.007-.02a17 17 0 0 0 .137-.412"/><path fill="#6e6a67" d="m15.345 10.576-.124.158a10 10 0 0 1-.915 1.013 43 43 0 0 0-3.519.032c.977-.404 2.15-.8 3.421-1.038q.557-.107 1.137-.165m-5.716.437c-.35.245-.742.557-1.124.937-.978.098-1.83.216-2.534.33a19.2 19.2 0 0 1 3.658-1.267m11.945 2.018-.398 2.782-1.905 1.335-4.968-.565-.748-2.463a.16.16 0 0 0-.13-.114 3 3 0 0 0-.483-.044q-.205 0-.484.044a.17.17 0 0 0-.13.114l-.729 2.403-4.94 1.1L4.7 16.25l-.386-3.122.256-.142q.181-.04.408-.082l.364 2.946a.16.16 0 0 0 .068.113l1.348.943a.17.17 0 0 0 .129.026l4.062-.904a.16.16 0 0 0 .12-.112l.732-2.408c.196-.05.699-.168 1.14-.168s.944.118 1.14.168l.732 2.408a.16.16 0 0 0 .138.115l4.062.462a.16.16 0 0 0 .111-.03l1.348-.941a.17.17 0 0 0 .068-.112l.36-2.517q.406.08.673.137m.503-1.743-.35 1.327a38 38 0 0 0-4.424-.676c.698-.298 1.41-.67 2.06-1.138a34 34 0 0 1 2.714.487m-18.22 0 .097.367c.273-.217.522-.396.732-.54a26 26 0 0 0-.829.173"/><path fill="#93232c" d="M17.574 10.547q-.803-.045-1.607-.078a10.2 10.2 0 0 1-1.763 1.965c.546-.173 2.711-.9 3.808-1.86zm-3.924-.142h.003l-.815-.008q-.599.003-1.198.014l-.736.349-.011.006a8.7 8.7 0 0 0-1.988 1.412l.251-.13c.498-.334 1.826-1.126 3.89-1.648q.303 0 .604.005m-4.525.09a98 98 0 0 0-1.023.052 61 61 0 0 0-1.183.078 22 22 0 0 0-.754.071c-.514.308-2.482 1.543-3.835 3.16l.072-.083c2.503-2.136 5.247-2.967 6.723-3.278m11.325 8.782-.045.023c-.251.132-.58.197-1.005.197-.253 0-.501-.021-.776-.046-.55-.05-1.48-.16-1.489-.161l-.071-.008-.056-.045c-.009-.006-.823-.655-1.481-1.173l-.073-.06c-.07-.059-.07-.059-.111-.059-.211 0-.825.19-2.17.607l-.082.026-.081-.03c-.01-.003-.891-.33-1.948-.33q-.13 0-.257.006c-.106.006-.7.288-1.46 1.49l-.049.077-.087.028c-.013.005-1.32.426-2.708.823l-.09.026-.085-.04c-.01-.003-.55-.255-1.067-.492l.114.053c.51.44 1.486 1.286 1.594 1.403q.023.026.061.061l-.073-.087-.001-.001c.225.213.476.397.75.527.137.064.28.114.426.138q.109.018.22.018a5 5 0 0 0 .229-.006q.457-.024.92-.069.46-.04.919-.095.46-.049.915-.119.229-.032.45-.08a1.3 1.3 0 0 0 .206-.061 1 1 0 0 0 .171-.124 6 6 0 0 0 .334-.315q.162-.164.322-.334c.18-.188.334-.388.508-.582l.068-.074.002.003q.055.038.108.08c.21.156.425.325.634.47.268.19.54.379.822.536a1.3 1.3 0 0 0 .236.105l.025.006.05.004.117-.003a6 6 0 0 0 .48-.06q.484-.076.966-.172.482-.091.961-.198.48-.103.957-.223c.157-.042.315-.081.456-.149.143-.067.277-.158.4-.264.247-.21.455-.472.628-.757v.001a3.4 3.4 0 0 0 .216-.49m-6-15.128h.565V3h-4.139v1.15h.566v-.584h1.17v3.552h-.481v.659h1.63v-.66h-.483v-3.55h1.171z"/><path fill="#731b2a" d="M18.732 10.625h-.004l-.703-.05h-.013c-1.097.96-3.262 1.687-3.808 1.86l-.031.026a12.7 12.7 0 0 0 2.841-.86 9.5 9.5 0 0 0 1.6-.891zm-5.686-.225c-2.064.521-3.392 1.314-3.89 1.648.4-.203.872-.427 1.404-.65l.008-.003.164-.068.054-.022.145-.058.08-.031.133-.051.1-.038.24-.089.114-.041.133-.046.105-.037.158-.052.087-.029a16 16 0 0 1 .81-.24q.372-.1.76-.188zm-3.921.095c-1.476.31-4.22 1.142-6.723 3.278l-.072.083c1.273-.884 3.46-2.2 6.164-3l.264-.075q.674-.19 1.385-.328-.51.018-1.018.042m11.812 8.547-.077.036-.042.019-.034.016-.05.024-.022.011-.058.027-.012.007-.061.03-.007.003-.124.062a3.4 3.4 0 0 1-.217.492v-.001.001a3.1 3.1 0 0 1-.628.755 1.8 1.8 0 0 1-.4.264c-.14.067-.298.106-.456.149q-.474.12-.956.222-.48.106-.962.199-.481.096-.965.172a6 6 0 0 1-.48.06l-.117.003-.076-.01-.023-.007a1.3 1.3 0 0 1-.212-.098 10 10 0 0 1-.823-.535c-.208-.146-.424-.315-.633-.471l-.019.026h.002l.039.035h-.001l-.028-.021.176.209.02.024c.09.105.464.54.908.98q.51.505 1.216.505.242 0 .497-.06c.157-.04.328-.08.504-.123.519-.123 1.094-.26 1.476-.36l.074-.02.147-.039q.104-.03.225-.056c.463-.107 1.097-.254 1.432-.926a133 133 0 0 1 .748-1.453l.065-.124.033-.064zm-7.583 1.45-.03-.029c-.174.194-.328.394-.508.582q-.16.17-.322.333-.164.167-.334.316a1 1 0 0 1-.171.124 1 1 0 0 1-.206.061 6 6 0 0 1-.45.08q-.456.07-.915.119-.46.055-.92.095-.462.045-.92.07a5 5 0 0 1-.229.005q-.11 0-.22-.018a1.6 1.6 0 0 1-.425-.138 3 3 0 0 1-.75-.527q.047.056.096.109l-.022-.021-.06-.061c-.11-.117-1.085-.963-1.595-1.403l-.114-.053c.09.134.19.279.292.427a26 26 0 0 0 .665.914c.554.713 1.252 1.372 2.59 1.372a5 5 0 0 0 .653-.045l.116-.014c1.163-.133 1.482-.19 1.66-.221.045-.008.084-.015.127-.021l.05-.007c.007 0 .4-.052.785-.239.265-.128.526-.322.654-.608.322-.72.387-.892.39-.899z"/><path fill="#0e0f0d" d="M16.506 13.951a.258.258 0 1 0-.01-.516.258.258 0 0 0 .01.516m1.585 1.161c-.34-.164-.713.044-1.39.057-.505.018-.928.023-.956-.768-.028-.794.295-1.45.8-1.467.504-.018.964.61 1.026 1.402.017.218-.007.377-.06.495.468-.056.575.262.58.281m-8.811-.97a.258.258 0 1 0-.014-.515.258.258 0 0 0 .014.515m.78.415c.007.792-.413.745-.918.75l-.148.002q-.084.003-.163.001c-.49 0-.803-.023-1.08.127.007-.017.128-.29.568-.4a1.3 1.3 0 0 1-.087-.462c-.03-.792.458-1.441.963-1.446s.857.636.864 1.428m9.556-5.447q-.009.105-.014.146-.3-.081-.603-.151a20 20 0 0 0-2.019-.333l-.071-.007.012-.03q.03-.112.055-.223a7.4 7.4 0 0 0 .145-1.916l2.411.685a8.2 8.2 0 0 1 .084 1.828m-3-.46a.16.16 0 0 0 0 .083q-.378-.039-.757-.07c.283-.593.345-1.226.359-1.448.218-.155.434-.34.593-.485.014.426.004 1.198-.194 1.92m-7.428.082a.16.16 0 0 0 0-.082c-.198-.721-.208-1.493-.195-1.92.16.144.375.33.594.485.013.222.075.853.358 1.447q-.38.03-.757.07m-.364.04q-.508.058-1.014.14c-.506.082-.672.118-1.005.192q-.303.07-.603.15l-.007-.07A8 8 0 0 1 6.27 7.28l2.41-.685a7.5 7.5 0 0 0 .127 1.829q.032.154.075.31l.011.028zm12.084.973-.06-.03-.101-.049-.004-.001-.063-.036a6 6 0 0 0-.773-.285l.005-.021c.004-.027.064-.47.027-1.169a9 9 0 0 0-.11-1.022.16.16 0 0 0-.113-.127l-.344-.097c-.074-2.66-1.168-3.909-1.203-3.948.978 1.575.97 3.442.953 3.877l-2.13-.606-.006-.001-.027-.004h-.008q-.017-.002-.035.003l-.005.001-.028.01-.01.004-.02.014-.006.004-.004.004-.006.005-.148.142c.006-.2.007-.504-.015-.876l-.007-.108c-.067-.935-.288-2.25-.95-3.4.007.016.072.207.156.529.213.809.548 2.446.365 4.222l-.002.025-.009.006q-.125.1-.252.188a.16.16 0 0 0-.07.128c0 .008-.018.802-.369 1.478q-.009.018-.013.034a39 39 0 0 0-2.62-.086c-.874 0-1.75.025-2.623.084l-.012-.032c-.35-.676-.369-1.47-.37-1.478a.16.16 0 0 0-.068-.128 4 4 0 0 1-.262-.195c-.178-1.69.115-3.255.328-4.107.1-.405.184-.65.19-.668-.958 1.668-.991 3.682-.97 4.384a4 4 0 0 1-.148-.142l-.007-.005-.004-.004-.005-.004-.021-.013-.01-.006-.027-.008-.006-.003a.1.1 0 0 0-.035-.003h-.009l-.026.005h-.005l-2.13.606c-.017-.435-.026-2.302.952-3.876C7.6 3 6.505 4.25 6.43 6.908l-.342.097a.16.16 0 0 0-.114.127 9 9 0 0 0-.111 1.021c-.036.7.024 1.144.028 1.17l.004.02-.082.026a6 6 0 0 0-.692.26l-.063.036-.003.002-.101.049-.053.025-.033.019c.158-.062.322-.107.485-.148q.246-.06.494-.108.498-.094.998-.156.502-.066 1.005-.108c.335-.029.67-.057 1.007-.076a69 69 0 0 1 4.043-.105c1.35 0 2.698.022 4.043.104q.505.032 1.008.076a22 22 0 0 1 2.002.265q.248.047.494.108c.164.04.327.086.485.148z"/><path fill="#0e0f0d" d="M13.278 3.566v3.551h.482v.66h-1.63v-.66h.483v-3.55h-1.17v.583h-.567V3h4.14v1.15h-.567v-.584zm2.163 1.01V2.574h-4.99v2h1.417V3.99h.319v2.7h-.481V8.2h2.48V6.69h-.482v-2.7h.32v.584z"/></svg>