<svg xmlns="http://www.w3.org/2000/svg" fill="none" viewBox="0 0 96 96" height="24" width="24"><desc>Turborepo Icon Streamline Icon: https://streamlinehq.com</desc><path fill="url(#a)" d="M40.731 1.028C29.919.655 19.109 4.01 10.161 11.093l5.965 3.356c7.084-5.22 16.03-7.456 24.605-7.084z"/><path fill="url(#b)" d="M72.418 15.195C64.962 7.366 55.269 2.52 44.831 1.4v6.34c8.948 1.491 16.777 5.592 23.114 11.93z"/><path fill="url(#c)" d="M85.839 45.764c-.373-9.693-4.1-19.386-10.438-27.587l-4.474 4.473c5.22 7.083 8.202 14.912 8.575 23.114z"/><path fill="url(#d)" d="M75.401 77.823c6.337-8.201 10.065-17.894 10.438-27.587h-6.337c-.373 8.202-3.356 16.03-8.575 23.113z"/><path fill="url(#e)" d="M44.832 94.599c10.065-1.119 20.13-5.965 27.586-13.794l-4.473-4.473c-6.337 6.71-14.54 10.811-23.113 11.93z"/><path fill="url(#f)" d="M10.162 84.906C19.109 91.989 29.92 95.344 40.73 94.97v-6.337c-8.575.373-17.149-1.864-24.605-7.083z"/><path fill="#000" d="M39.029 22.09q5.977 0 11.032 2.036 5.056 1.97 8.669 5.516 3.677 3.546 5.713 8.34 2.037 4.728 2.036 10.245c-.001 5.517-.678 7.114-2.036 10.31a25.3 25.3 0 0 1-5.713 8.274q-3.612 3.546-8.668 5.582-5.057 1.97-11.033 1.97-6.042 0-11.098-1.97-4.992-2.036-8.603-5.582t-5.648-8.274q-2.036-4.794-2.036-10.31c0-5.516.679-7.093 2.036-10.245q2.037-4.794 5.648-8.34t8.603-5.516q5.056-2.037 11.098-2.036m0 12.477q-2.825 0-5.385 1.05a13.3 13.3 0 0 0-4.4 2.825 13.8 13.8 0 0 0-3.02 4.334q-1.117 2.495-1.117 5.45t1.116 5.451a13.8 13.8 0 0 0 3.021 4.334 14.2 14.2 0 0 0 4.4 2.89 14.9 14.9 0 0 0 5.385.985q2.824 0 5.32-.985 2.561-1.05 4.465-2.89a13.3 13.3 0 0 0 3.086-4.334q1.117-2.495 1.117-5.45T51.9 42.776a13.3 13.3 0 0 0-3.086-4.334 13.1 13.1 0 0 0-4.466-2.824q-2.494-1.05-5.32-1.05"/><defs><linearGradient id="a" x1="3794.02" x2="3794.02" y1="1" y2="9400.97" gradientUnits="userSpaceOnUse"><stop stop-color="#1e90ff"/><stop offset="1" stop-color="#ff1e56"/></linearGradient><linearGradient id="b" x1="361.689" x2="361.689" y1="-38.672" y2="9361.3" gradientUnits="userSpaceOnUse"><stop stop-color="#1e90ff"/><stop offset="1" stop-color="#ff1e56"/></linearGradient><linearGradient id="c" x1="-2221.71" x2="-2221.71" y1="-1699.46" y2="7700.51" gradientUnits="userSpaceOnUse"><stop stop-color="#1e90ff"/><stop offset="1" stop-color="#ff1e56"/></linearGradient><linearGradient id="d" x1="-2221.71" x2="-2221.71" y1="-4873.42" y2="4526.55" gradientUnits="userSpaceOnUse"><stop stop-color="#1e90ff"/><stop offset="1" stop-color="#ff1e56"/></linearGradient><linearGradient id="e" x1="361.689" x2="361.689" y1="-7456.88" y2="1943.09" gradientUnits="userSpaceOnUse"><stop stop-color="#1e90ff"/><stop offset="1" stop-color="#ff1e56"/></linearGradient><linearGradient id="f" x1="3794.02" x2="3794.02" y1="-7973.57" y2="1426.4" gradientUnits="userSpaceOnUse"><stop stop-color="#1e90ff"/><stop offset="1" stop-color="#ff1e56"/></linearGradient></defs></svg>
