<svg xmlns="http://www.w3.org/2000/svg" fill="none" viewBox="0 0 96 96" height="24" width="24"><desc>Visual Studio Code Streamline Icon: https://streamlinehq.com</desc><mask id="a" width="94" height="94" x="1" y="1" maskUnits="userSpaceOnUse" style="mask-type:luminance"><path fill="#fff" d="M67.657 94.358a5.85 5.85 0 0 0 4.663-.18l19.353-9.312A5.88 5.88 0 0 0 95 79.573V16.428a5.88 5.88 0 0 0-3.327-5.294L72.32 1.82a5.85 5.85 0 0 0-6.677 1.137l-37.05 33.8-16.137-12.25a3.91 3.91 0 0 0-4.999.223l-5.176 4.71a3.92 3.92 0 0 0-.004 5.793L16.272 48 2.277 60.768a3.92 3.92 0 0 0 .004 5.792l5.176 4.708a3.91 3.91 0 0 0 4.999.223l16.138-12.25 37.049 33.8a5.8 5.8 0 0 0 2.014 1.317m3.857-67.697L43.402 48l28.112 21.339z"/></mask><g mask="url(#a)"><path fill="#0065a9" d="M91.73 11.148 72.364 1.823a5.86 5.86 0 0 0-6.681 1.135L2.278 60.768a3.917 3.917 0 0 0 .004 5.793l5.18 4.708a3.92 3.92 0 0 0 5 .222l76.354-57.923c2.562-1.944 6.241-.117 6.241 3.099v-.225a5.88 5.88 0 0 0-3.326-5.294"/></g><mask id="b" width="94" height="94" x="1" y="1" maskUnits="userSpaceOnUse" style="mask-type:luminance"><path fill="#fff" d="M67.657 94.358a5.85 5.85 0 0 0 4.663-.18l19.353-9.312A5.88 5.88 0 0 0 95 79.573V16.428a5.88 5.88 0 0 0-3.327-5.294L72.32 1.82a5.85 5.85 0 0 0-6.677 1.137l-37.05 33.8-16.137-12.25a3.91 3.91 0 0 0-4.999.223l-5.176 4.71a3.92 3.92 0 0 0-.004 5.793L16.272 48 2.277 60.768a3.92 3.92 0 0 0 .004 5.792l5.176 4.708a3.91 3.91 0 0 0 4.999.223l16.138-12.25 37.049 33.8a5.8 5.8 0 0 0 2.014 1.317m3.857-67.697L43.402 48l28.112 21.339z"/></mask><g mask="url(#b)"><path fill="#007acc" d="m91.73 84.85-19.367 9.326a5.86 5.86 0 0 1-6.681-1.135L2.278 35.231a3.917 3.917 0 0 1 .004-5.792l5.18-4.709a3.92 3.92 0 0 1 5-.222l76.354 57.923c2.562 1.944 6.241.117 6.241-3.098v.224a5.88 5.88 0 0 1-3.326 5.294"/></g><mask id="c" width="94" height="94" x="1" y="1" maskUnits="userSpaceOnUse" style="mask-type:luminance"><path fill="#fff" d="M67.657 94.358a5.85 5.85 0 0 0 4.663-.18l19.353-9.312A5.88 5.88 0 0 0 95 79.573V16.428a5.88 5.88 0 0 0-3.327-5.294L72.32 1.82a5.85 5.85 0 0 0-6.677 1.137l-37.05 33.8-16.137-12.25a3.91 3.91 0 0 0-4.999.223l-5.176 4.71a3.92 3.92 0 0 0-.004 5.793L16.272 48 2.277 60.768a3.92 3.92 0 0 0 .004 5.792l5.176 4.708a3.91 3.91 0 0 0 4.999.223l16.138-12.25 37.049 33.8a5.8 5.8 0 0 0 2.014 1.317m3.857-67.697L43.402 48l28.112 21.339z"/></mask><g mask="url(#c)"><path fill="#1f9cf0" d="M72.302 94.184a5.86 5.86 0 0 1-6.681-1.136c2.168 2.167 5.875.632 5.875-2.434V5.398c0-3.066-3.707-4.602-5.875-2.434a5.86 5.86 0 0 1 6.68-1.137l19.366 9.313a5.88 5.88 0 0 1 3.329 5.294v63.144a5.88 5.88 0 0 1-3.33 5.294z"/></g><mask id="d" width="94" height="94" x="1" y="1" maskUnits="userSpaceOnUse" style="mask-type:luminance"><path fill="#fff" d="M67.657 94.358a5.85 5.85 0 0 0 4.663-.18l19.353-9.312A5.88 5.88 0 0 0 95 79.573V16.428a5.88 5.88 0 0 0-3.327-5.294L72.32 1.82a5.85 5.85 0 0 0-6.677 1.137l-37.05 33.8-16.137-12.25a3.91 3.91 0 0 0-4.999.223l-5.176 4.71a3.92 3.92 0 0 0-.004 5.793L16.272 48 2.277 60.768a3.92 3.92 0 0 0 .004 5.792l5.176 4.708a3.91 3.91 0 0 0 4.999.223l16.138-12.25 37.049 33.8a5.8 5.8 0 0 0 2.014 1.317m3.857-67.697L43.402 48l28.112 21.339z"/></mask><g mask="url(#d)"><path fill="url(#e)" fill-opacity=".25" d="M67.657 94.358c1.48.577 3.169.54 4.663-.18l19.353-9.312A5.88 5.88 0 0 0 95 79.572V16.428a5.88 5.88 0 0 0-3.327-5.294L72.32 1.82a5.85 5.85 0 0 0-6.677 1.137l-37.05 33.8-16.137-12.25a3.91 3.91 0 0 0-4.999.223l-5.176 4.71a3.92 3.92 0 0 0-.004 5.793L16.272 48 2.277 60.768a3.92 3.92 0 0 0 .004 5.792l5.176 4.708a3.91 3.91 0 0 0 4.999.223l16.138-12.25 37.049 33.8a5.8 5.8 0 0 0 2.014 1.317m3.857-67.697L43.403 48l28.111 21.339z"/></g><defs><linearGradient id="e" x1="4701.01" x2="4701.01" y1="1.242" y2="9352.77" gradientUnits="userSpaceOnUse"><stop stop-color="#fff"/><stop offset="1" stop-color="#fff" stop-opacity="0"/></linearGradient></defs></svg>