<svg xmlns="http://www.w3.org/2000/svg" width="24" height="24" fill="none" viewBox="0 0 24 24"><desc>Yarn Streamline Icon: https://streamlinehq.com</desc><path fill="#368fb9" d="M12 .25C5.513.25.25 5.513.25 12S5.513 23.75 12 23.75 23.75 18.487 23.75 12 18.487.25 12 .25"/><path fill="#fff" d="M18.914 16.228c-.726.173-1.093.331-1.992.917-1.401.907-2.935 1.329-2.935 1.329s-.127.19-.494.277c-.636.154-3.026.285-3.244.29-.585.005-.944-.15-1.044-.39-.303-.726.436-1.044.436-1.044s-.163-.1-.259-.19c-.086-.086-.177-.259-.204-.195-.113.277-.172.953-.476 1.256-.417.422-1.207.282-1.674.037-.513-.272.036-.912.036-.912s-.277.163-.499-.173c-.2-.308-.385-.834-.336-1.483.055-.74.88-1.456.88-1.456s-.145-1.094.332-2.214c.43-1.02 1.592-1.842 1.592-1.842s-.975-1.08-.612-2.05c.236-.636.33-.631.408-.658.272-.105.535-.218.73-.431.976-1.053 2.219-.853 2.219-.853S12.368 4.65 12.912 5c.168.109.771 1.452.771 1.452s.644-.377.717-.236c.39.757.435 2.205.263 3.085-.29 1.452-1.016 2.232-1.306 2.722-.069.113.78.472 1.315 1.955.495 1.357.055 2.495.132 2.622l.018.032s.567.045 1.706-.658c.608-.376 1.329-.798 2.15-.807.794-.014.835.916.236 1.061m1.08-.667c-.082-.644-.626-1.088-1.325-1.08-1.043.014-1.92.554-2.5.913a5 5 0 0 1-.59.322 4.8 4.8 0 0 0-.267-1.974c-.331-.907-.776-1.465-1.094-1.787.368-.536.872-1.316 1.107-2.523.205-1.03.141-2.631-.326-3.53a.72.72 0 0 0-.454-.367c-.082-.022-.236-.068-.54.018-.458-.948-.617-1.048-.74-1.13a.93.93 0 0 0-.834-.094c-.377.136-.699.499-1.003 1.143a5 5 0 0 0-.122.277c-.576.04-1.484.25-2.25 1.08-.096.104-.282.18-.477.253h.005c-.4.141-.58.468-.803 1.057-.309.826.009 1.638.322 2.164-.426.381-.994.99-1.293 1.702a5.4 5.4 0 0 0-.4 2.209c-.317.336-.807.966-.861 1.674-.073.989.286 1.66.444 1.905.046.073.096.132.15.191a1.05 1.05 0 0 0 .567 1.13c.6.317 1.434.453 2.078.131.231.245.653.481 1.42.481h.045c.195 0 2.673-.132 3.394-.308a1.65 1.65 0 0 0 .69-.336c.462-.145 1.742-.58 2.948-1.361.853-.554 1.148-.672 1.783-.826a1.204 1.204 0 0 0 .926-1.334"/></svg>