<svg xmlns="http://www.w3.org/2000/svg" fill="none" viewBox="0 0 24 24" height="24" width="24"><desc>Zeplin Streamline Icon: https://streamlinehq.com</desc><path fill="#fdbd39" d="m3.872 15.56-1.23.448-.065 3.658 4.255-1.555c-1.46-.49-2.525-1.353-2.96-2.552"/><path fill="#f69833" d="M4.516 11.69.25 13.25l2.393 2.758 1.23-.449c-.434-1.195-.167-2.546.642-3.868"/><path fill="#fecf33" d="M11.694 6.413c-5.432 1.985-8.934 6.08-7.822 9.146l19.67-7.186c-1.112-3.066-6.417-3.944-11.848-1.96"/><path fill="#ee6723" d="M15.72 17.519c5.432-1.984 8.94-6.06 7.822-9.145l-19.67 7.185c1.119 3.085 6.417 3.944 11.849 1.96"/><path fill="#f69833" d="m23.542 8.374-19.67 7.185c.385 1.062 1.854 1.586 3.915 1.586 2.01 0 4.581-.497 7.262-1.477 5.432-1.984 9.254-5.197 8.493-7.294"/><path fill="#fdbd39" d="M19.627 6.788c-2.009 0-4.58.497-7.262 1.477-5.432 1.984-9.253 5.197-8.493 7.294l19.67-7.185c-.385-1.063-1.854-1.586-3.915-1.586"/><path fill="#ee6723" d="M18.541 19.859c-.579 0-1.433-.523-2.538-1.554-1.307-1.22-2.805-3.006-4.217-5.03S9.213 9.227 8.519 7.577c-.757-1.799-.865-2.904-.321-3.287a.73.73 0 0 1 .427-.126c.443 0 1.305.33 2.9 1.9l.035.034-.005.048-.03.339-.017.221-.157-.157C9.633 4.818 8.876 4.63 8.631 4.63a.3.3 0 0 0-.166.042c-.236.166-.251.978.483 2.722.682 1.62 1.826 3.614 3.22 5.612s2.868 3.758 4.152 4.956c1.385 1.291 2.01 1.43 2.213 1.43q.106 0 .17-.044c.25-.175.25-1.045-.569-2.922l-.037-.086.082-.045.236-.132.099-.056.045.104c.58 1.33 1.123 3.02.412 3.52a.73.73 0 0 1-.43.127m0-.205v.102z"/><path fill="#ee6723" d="m15.852 17.463-.008.102c-.137 1.7-.499 3.742-1.441 3.825l-.059.002c-.64 0-1.246-.917-1.8-2.727-.525-1.712-.932-4.011-1.147-6.473s-.211-4.796.01-6.574c.24-1.938.697-2.95 1.359-3.008l.06-.002c.464 0 1.164.526 1.881 2.976l-.468.09c-.24-.818-.5-1.484-.759-1.942-.24-.423-.472-.656-.656-.656h-.018c-.287.026-.705.721-.937 2.6-.217 1.746-.22 4.045-.008 6.475s.613 4.695 1.128 6.376c.23.754.484 1.374.732 1.795.229.389.45.603.623.603l.018-.001c.274-.024.792-.748 1.01-3.296z"/></svg>
