<svg xmlns="http://www.w3.org/2000/svg" width="24" height="24" fill="none" viewBox="0 0 24 24"><desc>Apollostack Streamline Icon: https://streamlinehq.com</desc><path fill="#112b49" d="M14.958 16.637h2.537L13.445 6.13h-2.803l-4.05 10.508H9.13l.662-1.78h3.825l-.692-1.97h-2.519l1.639-4.52zm8.364-7.78a.61.61 0 1 0-1.176.327c.255.917.383 1.864.383 2.816 0 5.806-4.723 10.53-10.529 10.53S1.47 17.805 1.47 12 6.195 1.47 12 1.47c2.46 0 4.84.874 6.718 2.43a1.468 1.468 0 1 0 .907-.832A11.78 11.78 0 0 0 12 .25C5.521.25.25 5.521.25 12S5.521 23.75 12 23.75 23.75 18.479 23.75 12c0-1.062-.144-2.12-.428-3.142"/></svg>