<svg xmlns="http://www.w3.org/2000/svg" fill="none" viewBox="0 0 24 24" height="24" width="24"><desc>Appveyor Streamline Icon: https://streamlinehq.com</desc><path fill="#00b3e0" fill-rule="evenodd" d="M11.962.25c6.54 0 11.788 5.248 11.788 11.712A11.75 11.75 0 0 1 11.962 23.75C5.498 23.75.25 18.502.25 11.962.25 5.498 5.498.25 11.962.25m2.89 13.994c-1.293 1.673-3.65 1.977-5.248.684-1.597-1.217-1.825-3.574-.532-5.248 1.369-1.597 3.727-1.9 5.324-.684a3.66 3.66 0 0 1 .456 5.248m-6.236 7.68 4.487-4.334c-1.673.38-3.423.076-4.791-1.065-1.598-1.217-2.282-3.27-2.054-5.171l-4.03 4.41s-.533-.988-.685-2.813l7.073-5.552c2.13-1.521 5.02-1.597 7.073 0 2.281 1.825 2.737 5.171 1.064 7.681l-5.171 7.377c-.76 0-2.282-.228-2.966-.532" clip-rule="evenodd"/></svg>
