<svg xmlns="http://www.w3.org/2000/svg" fill="none" viewBox="0 0 24 24" height="24" width="24"><desc>Aws Streamline Icon: https://streamlinehq.com</desc><path fill="#252f3e" d="M6.872 10.077c0 .29.032.524.086.696.063.172.141.36.25.563a.34.34 0 0 1 .055.18q.002.117-.148.234l-.493.328a.4.4 0 0 1-.203.07c-.078 0-.156-.039-.234-.109a2.4 2.4 0 0 1-.282-.367 6 6 0 0 1-.242-.461q-.915 1.078-2.298 1.078c-.656 0-1.18-.187-1.563-.563q-.576-.562-.578-1.5c0-.665.234-1.204.71-1.61.478-.407 1.11-.61 1.916-.61q.396.001.828.063c.29.039.586.101.899.172V7.67c0-.594-.125-1.008-.367-1.25-.25-.243-.673-.36-1.274-.36-.274 0-.555.031-.844.102q-.434.103-.845.265a2 2 0 0 1-.273.102.5.5 0 0 1-.125.023q-.164.002-.164-.242v-.383c0-.125.015-.219.054-.273.04-.055.11-.11.22-.165a4.5 4.5 0 0 1 .984-.351q.575-.151 1.22-.149 1.393 0 2.047.633.647.633.649 1.923v2.532zM3.7 11.265q.385 0 .805-.14c.282-.094.532-.266.743-.5a1.24 1.24 0 0 0 .265-.5c.047-.188.079-.415.079-.68v-.33a7 7 0 0 0-.72-.132 6 6 0 0 0-.734-.047c-.524 0-.907.102-1.165.313q-.385.314-.383.899c0 .367.094.64.29.828q.28.291.82.29m6.276.844c-.14 0-.234-.023-.297-.078-.062-.047-.117-.156-.164-.305L7.677 5.685a1.4 1.4 0 0 1-.07-.313c0-.125.063-.195.188-.195h.766c.148 0 .25.023.304.078.063.047.11.156.157.305l1.313 5.174 1.22-5.174q.055-.235.148-.305c.093-.07.172-.078.312-.078h.626c.148 0 .25.023.312.078.063.047.117.156.149.305l1.235 5.236 1.352-5.236q.072-.235.156-.305a.5.5 0 0 1 .305-.078h.727c.125 0 .195.062.195.195 0 .04-.008.078-.016.125s-.023.11-.054.196l-1.884 6.041q-.07.235-.164.305a.5.5 0 0 1-.297.078h-.672c-.149 0-.25-.023-.313-.078-.062-.055-.117-.156-.148-.313l-1.212-5.04-1.203 5.033c-.04.156-.086.258-.149.312-.062.055-.172.078-.313.078zm10.044.211c-.407 0-.813-.046-1.204-.14-.39-.094-.696-.196-.899-.313-.125-.07-.21-.148-.242-.219a.6.6 0 0 1-.047-.219v-.398c0-.164.063-.243.18-.243q.07 0 .14.024c.047.016.118.047.196.078q.4.178.86.274c.312.062.617.093.93.093.492 0 .875-.086 1.14-.257a.84.84 0 0 0 .407-.743.76.76 0 0 0-.21-.547c-.141-.149-.407-.281-.79-.407l-1.133-.351c-.571-.18-.993-.446-1.251-.797a1.86 1.86 0 0 1-.39-1.134q0-.492.21-.867c.14-.25.328-.47.563-.641.234-.18.5-.313.813-.407s.64-.133.985-.133c.172 0 .351.008.523.032.18.023.344.054.508.086q.235.056.446.125.21.07.328.14.165.093.235.196.07.093.07.258v.367c0 .164-.063.25-.18.25a.8.8 0 0 1-.297-.094 3.6 3.6 0 0 0-1.5-.304c-.446 0-.798.07-1.04.218-.242.149-.367.376-.367.696 0 .219.078.407.234.555s.446.297.86.43l1.11.352c.562.18.969.43 1.211.75s.36.688.36 1.094q-.002.506-.204.907c-.14.266-.328.5-.57.688a2.5 2.5 0 0 1-.868.437c-.351.11-.719.164-1.117.164"/><path fill="#f90" d="M21.496 16.119c-2.571 1.9-6.307 2.907-9.52 2.907-4.502 0-8.558-1.664-11.622-4.431-.242-.22-.023-.516.266-.344 3.314 1.923 7.401 3.087 11.63 3.087 2.853 0 5.987-.594 8.87-1.813.43-.196.798.281.376.594m1.07-1.22c-.327-.422-2.172-.203-3.008-.101-.25.031-.29-.188-.063-.352 1.47-1.031 3.885-.734 4.166-.39.281.351-.078 2.766-1.454 3.923-.21.18-.414.086-.32-.149.312-.773 1.008-2.516.68-2.93"/></svg>
