<svg xmlns="http://www.w3.org/2000/svg" fill="none" viewBox="0 0 24 24" height="24" width="24"><desc>Bem Streamline Icon: https://streamlinehq.com</desc><path fill="#010101" d="M.25 5.306h5.494V6.92H.25zm0-3.001h5.494V3.92H.25zm9.857 5.978H.25V9.9h9.488c1.039 0 3.462.023 4.363 1.478v-.9c-.439-1.432-1.732-2.194-3.994-2.194m.023 3.001H.25V12.9h9.488c2.308 0 3.762.093 4.363.416V12.6c-.462-1.13-2.401-1.316-3.97-1.316m-.023 7.618H.25v-1.616h9.488c1.039 0 3.462-.023 4.363-1.477v.9c-.439 1.432-1.732 2.193-3.994 2.193m.023-3H.25v-1.617h9.488c2.308 0 3.762-.092 4.363-.415v.716c-.462 1.13-2.401 1.315-3.97 1.315m6.371 5.794h7.249v-.993h-7.04c-.624 0-2.101-.023-2.632-.877v.554c.254.854 1.038 1.316 2.423 1.316m-.023-1.824h7.249v-.993H16.71c-1.408 0-2.285-.046-2.631-.254v.439c.277.692 1.454.808 2.4.808"/></svg>
