<svg xmlns="http://www.w3.org/2000/svg" fill="none" viewBox="0 0 96 96" height="24" width="24"><desc>Chai Streamline Icon: https://streamlinehq.com</desc><path fill="#a1070c" d="m10.817 69.468 37.182 21.468 37.185-21.468V26.533L47.999 5.066 10.816 26.533zM47.999 95 7.296 71.5v-47L47.999 1l40.705 23.501V71.5z"/><path fill="url(#a)" d="M10.342 26.258 48 4.517l37.658 21.741v43.484L48 91.484 10.342 69.742z"/><path fill="#a1070c" d="M65.278 32.09q0 2.563-1.011 5.091a18.8 18.8 0 0 1-2.714 4.686 20 20 0 0 1-3.928 3.776q-2.225 1.618-4.618 2.326l-.708-1.18a10.8 10.8 0 0 0 2.595-1.82 11.8 11.8 0 0 0 2.023-2.512q.843-1.399 1.298-2.967t.455-3.185q0-1.855-.539-3.507-.54-1.651-1.585-2.882a7.4 7.4 0 0 0-2.579-1.938q-1.534-.708-3.523-.708-2.427 0-4.45.944c-2.023.944-2.562 1.477-3.64 2.545a17.3 17.3 0 0 0-2.816 3.675 25.3 25.3 0 0 0-1.989 4.348 29 29 0 0 0-1.196 4.602q-.405 2.327-.405 4.383 0 2.09.438 4.315a25.7 25.7 0 0 0 1.281 4.383 22.5 22.5 0 0 0 2.09 4.079 16.4 16.4 0 0 0 2.883 3.371 13.4 13.4 0 0 0 3.641 2.31q2.006.86 4.366.86 1.619 0 3.152-.439a15.5 15.5 0 0 0 2.95-1.18 16.7 16.7 0 0 0 2.68-1.753 20.6 20.6 0 0 0 2.343-2.191l1.113 1.078q-1.485 1.956-3.523 3.76a29 29 0 0 1-4.4 3.202 24 24 0 0 1-4.939 2.225q-2.58.825-5.107.826-2.461 0-4.636-.86a15.3 15.3 0 0 1-3.995-2.326q-1.82-1.466-3.253-3.438c-1.433-1.972-1.764-2.714-2.427-4.198a24 24 0 0 1-1.517-4.585 21.3 21.3 0 0 1-.523-4.618q0-3.27 1.096-6.726a32.5 32.5 0 0 1 3.017-6.709 38.2 38.2 0 0 1 4.534-6.152 35 35 0 0 1 5.63-5.057 28.3 28.3 0 0 1 6.305-3.422q3.286-1.264 6.557-1.264 2.022 0 3.776.59 1.752.59 3.034 1.702t2.022 2.765q.742 1.652.742 3.775"/><defs><linearGradient id="a" x1="3776.15" x2="3776.15" y1="3937.77" y2="8701.26" gradientUnits="userSpaceOnUse"><stop stop-color="#f7f6f3"/><stop offset="1" stop-color="#fef6d5"/></linearGradient></defs></svg>
