<svg xmlns="http://www.w3.org/2000/svg" width="400" height="400" fill="none" viewBox="0 0 400 400"><rect width="400" height="400" fill="#e88c1f" rx="30"/><path fill="#fff" stroke="#000" stroke-width="18" d="M312 122.5c.2-2.1-1.4-3.1-2.5-4.5-13.1-15.8-29.1-27.9-47.6-36.3-10.6-4.8-22-8-33.9-9.4-11.4-1.4-22.6-2.1-34-.8-14.5 1.6-28.3 5.8-41.5 12-21.1 9.9-38 24.9-51.3 43.6-8.5 11.8-14.6 25.1-18.2 39.4-3.7 14.6-5.8 29.3-4.2 44.5 1.1 10.4 2.6 20.5 5.7 30.5 4.5 14.6 11.8 27.9 21.1 39.9 10.6 13.7 23.4 25.1 38.5 33.5 17.5 9.7 36.3 15.5 56.4 16.7 7.4.4 14.8.5 22-.4 8.6-1 17.2-2.9 25.6-5.5 10.4-3.3 20.2-7.6 29.4-13.3 13.2-8.2 25.1-18 34.4-31.1-21.9-16.5-43.8-32.8-65.9-49.4-10.1 11.4-22.4 17.2-37.4 17.1-13.6-.2-25.1-5.7-33.9-15.6-17.8-20-15.2-51.1 5.8-68 18.7-15.1 49.3-13 65.5 7.2 22-16.5 44-33 66-50.1z"/></svg>