<svg xmlns="http://www.w3.org/2000/svg" fill="none" viewBox="0 0 24 24" height="24" width="24"><desc>Docker Icon Streamline Icon: https://streamlinehq.com</desc><path fill="#2396ed" d="M23.265 9.992c-.53-.367-1.742-.505-2.69-.321-.11-.918-.617-1.721-1.5-2.433l-.507-.367-.352.528c-.441.688-.662 1.652-.596 2.57.022.321.133.895.463 1.4-.308.184-.948.413-1.786.413H.356l-.044.184c-.154.918-.154 3.786 1.654 5.99 1.367 1.674 3.395 2.523 6.063 2.523 5.777 0 10.054-2.776 12.06-7.802.795.023 2.492 0 3.352-1.721.022-.046.066-.138.22-.482l.089-.184zM13.1 3.521h-2.425v2.294H13.1zm0 2.753h-2.425V8.57H13.1zm-2.866 0H7.809V8.57h2.425zm-2.866 0H4.942V8.57h2.426zM4.5 9.028H2.076v2.295H4.5zm2.867 0H4.942v2.295h2.426zm2.866 0H7.809v2.295h2.425zm2.866 0h-2.425v2.295H13.1zm2.867 0H13.54v2.295h2.426z"/></svg>
