<svg xmlns="http://www.w3.org/2000/svg" width="24" height="24" fill="none" viewBox="0 0 24 24"><desc>Expo Icon Streamline Icon: https://streamlinehq.com</desc><path fill="#000020" d="M11.386 9.201c.192-.283.402-.319.573-.319s.455.036.647.32c1.515 2.08 4.016 6.225 5.86 9.282 1.203 1.994 2.127 3.526 2.316 3.72.712.732 1.688.276 2.255-.554.558-.817.713-1.39.713-2.002 0-.417-8.088-15.459-8.902-16.71-.784-1.205-1.039-1.51-2.38-1.51h-1.003c-1.336 0-1.53.305-2.313 1.51C8.338 4.188.25 19.23.25 19.647c0 .612.155 1.185.713 2.002.567.83 1.543 1.286 2.255.555.19-.195 1.113-1.727 2.316-3.72 1.844-3.058 4.337-7.203 5.852-9.284"/></svg>