<svg xmlns="http://www.w3.org/2000/svg" fill="none" viewBox="0 0 24 24" height="24" width="24"><desc>Flow Streamline Icon: https://streamlinehq.com</desc><path fill="#ffca20" d="M21.64 10.401 13.808 2.57h7.834z" opacity=".7"/><path fill="#ffca20" d="M8.32.25h4.441l3.394 3.393H8.321z" opacity=".7"/><path fill="#ffcf39" d="M8.575 8.084.742.25h9.418v7.833zm6.882 7.833 7.833 7.833h-7.833z" opacity=".9"/><path fill="#ffe490" d="M10.16 15.918 2.328 8.083h7.833zm8.436-3.965-6.244-6.248H18.6zm.73 11.068-7.104-7.103h7.104z" opacity=".7"/><path fill="#fcbc7c" d="M10.16 6.49 3.92.25h6.24z" opacity=".9"/><path fill="#f9a040" d="m12.254 15.917 7.833 7.833h-7.833z" opacity=".8"/><path fill="#f9a040" d="m20.182 19.044-7.823-7.823h7.823z" opacity=".7"/><path fill="#ffcf39" d="m12.351 5.705 7.739 7.738h-7.74z" opacity=".9"/><path fill="#ffc737" d="M10.16 23.72.71 14.266h9.45z" opacity=".7"/></svg>
