<svg xmlns="http://www.w3.org/2000/svg" width="24" height="24" fill="none" viewBox="0 0 24 24"><desc>Git Icon Streamline Icon: https://streamlinehq.com</desc><path fill="#de4c36" d="M23.307 10.953 13.047.693a1.513 1.513 0 0 0-2.14 0L8.775 2.824l2.702 2.703a1.797 1.797 0 0 1 2.276 2.291l2.605 2.605a1.8 1.8 0 1 1-1.079 1.015L12.852 9.01v6.393a1.8 1.8 0 1 1-1.48-.052V8.896a1.8 1.8 0 0 1-.977-2.362L7.728 3.871.693 10.906a1.514 1.514 0 0 0 0 2.14l10.26 10.26c.592.592 1.55.592 2.141 0l10.213-10.212a1.514 1.514 0 0 0 0-2.14"/></svg>