<svg xmlns="http://www.w3.org/2000/svg" fill="none" viewBox="0 0 24 24" height="24" width="24"><desc>Github Actions Streamline Icon: https://streamlinehq.com</desc><path fill="#4a7ebf" d="M5.17.25a4.92 4.92 0 0 1 .139 9.835c0 .226.01.653.138.91.178.358 1.242 1.024 2.285 1.024h.375a3.453 3.453 0 0 1 6.834-.02h1.94a3.453 3.453 0 1 1 0 1.009h-1.94a3.453 3.453 0 0 1-6.83.01l-.415.012c-.682-.006-1.403-.188-1.982-.581-.158-.108-.314-.22-.476-.327v.224c0 .072-.014 1.162-.015 2.371v.256c0 .794.007 1.611.025 2.207.041 1.308 1.105 2.364 2.279 2.61.153.033.415.037.58.022a3.453 3.453 0 1 1 .008 1.027h-.299c-2.243-.123-3.637-2.18-3.613-3.849.03-2.1.008-4.2.007-6.301v-.695A4.92 4.92 0 0 1 5.17.25m6.356 17.605a2.443 2.443 0 1 0 0 4.886 2.443 2.443 0 0 0 0-4.886m0-7.795a2.443 2.443 0 1 0 0 4.887 2.443 2.443 0 0 0 0-4.887m8.77 0a2.443 2.443 0 1 0 0 4.887 2.443 2.443 0 0 0 0-4.887m1.393 1.415c.192.191.197.5.015.698l-.014.015-1.498 1.5a.505.505 0 0 1-.695.019l-.016-.015-.733-.722a.504.504 0 0 1 .693-.733l.015.014.376.37 1.143-1.146a.505.505 0 0 1 .714 0m-8.812-.008c.192.192.198.5.016.698l-.015.016-1.497 1.5a.505.505 0 0 1-.696.018l-.016-.015-.732-.721a.504.504 0 0 1 .692-.734l.016.015.375.37 1.143-1.146a.505.505 0 0 1 .714 0M5.171 1.26a3.91 3.91 0 1 0-.001 7.822 3.91 3.91 0 0 0 0-7.822m-.407 1.573a68 68 0 0 1 2.435 1.534c.67.443.67 1.245-.009 1.689A56 56 0 0 1 4.705 7.59c-.684.398-1.45-.06-1.469-.858-.012-.514-.002-1.029-.003-1.544 0-.5-.01-1.001.002-1.502.02-.849.802-1.29 1.528-.853m-.543.815V6.52c.001.18.095.173.216.098L6.532 5.32c.116-.071.12-.146.006-.217C5.789 4.63 5.04 4.16 4.22 3.647"/><path fill="#85b3df" d="M12.48 20.801a.505.505 0 1 0 0-1.009.505.505 0 0 0 0 1.01m-1.932-.001a.505.505 0 1 0 0-1.009.505.505 0 0 0 0 1.01m9.749 1.938a2.443 2.443 0 1 1 0-4.886 2.443 2.443 0 0 1 0 4.887m0-5.894a3.45 3.45 0 0 0-3.416 2.947h-.565c-.246 0-.446.226-.446.505 0 .278.2.504.446.504h.565a3.453 3.453 0 1 0 3.416-3.956"/></svg>
