<svg xmlns="http://www.w3.org/2000/svg" fill="none" viewBox="0 0 96 96" height="24" width="24"><desc>Grafana Streamline Icon: https://streamlinehq.com</desc><path fill="url(#a)" d="M91.11 42.484a35.5 35.5 0 0 0-.931-5.412 33 33 0 0 0-2.434-6.474 36 36 0 0 0-4.532-6.94 33 33 0 0 0-2.46-2.64c1.32-5.258-1.606-9.815-1.606-9.815-5.05-.311-8.26 1.58-9.452 2.434-.207-.078-.388-.181-.595-.259a36 36 0 0 0-2.667-.958 44 44 0 0 0-2.797-.777 36 36 0 0 0-2.9-.57c-.182-.026-.337-.052-.518-.077C58.017 3.952 51.698 1 51.698 1c-7.07 4.48-8.39 10.747-8.39 10.747s-.026.129-.078.362c-.388.104-.776.233-1.165.337a17 17 0 0 0-1.605.57 42 42 0 0 0-1.606.647 40 40 0 0 0-3.16 1.554 43 43 0 0 0-2.951 1.838l-.26-.104c-9.787-3.728-18.462.751-18.462.751-.803 10.41 3.91 16.962 4.842 18.153a57 57 0 0 0-.647 1.942 45 45 0 0 0-1.606 7.277 16 16 0 0 0-.13 1.087C7.417 50.641 4.75 59.782 4.75 59.782c7.536 8.675 16.34 9.22 16.34 9.22l.026-.027a40 40 0 0 0 3.858 5.671 38 38 0 0 0 1.916 2.15c-2.744 7.872.389 14.397.389 14.397 8.39.311 13.906-3.677 15.071-4.583a28 28 0 0 0 2.538.75c2.59.674 5.23 1.063 7.872 1.166.647.026 1.32.052 1.968.026h.932l.415-.026v.026C60.036 94.197 66.976 95 66.976 95c4.947-5.205 5.231-10.384 5.231-11.497v-.467a29 29 0 0 0 2.952-2.356 31.8 31.8 0 0 0 5.153-6.034l.389-.621c5.593.31 9.555-3.47 9.555-3.47-.932-5.827-4.247-8.675-4.946-9.219 0 0-.026-.026-.077-.052s-.052-.051-.052-.051c-.026-.026-.078-.052-.13-.078l.078-1.062c.052-.621.052-1.269.052-1.89v-.984l-.026-.389-.026-.518c0-.18-.026-.336-.052-.492s-.026-.336-.051-.492l-.052-.492-.078-.492a25 25 0 0 0-.362-1.916 25.5 25.5 0 0 0-2.849-7.043 23.8 23.8 0 0 0-4.739-5.646 23.8 23.8 0 0 0-5.982-3.858 23.6 23.6 0 0 0-6.603-1.864 21 21 0 0 0-3.34-.182h-.829l-.414.026c-.156 0-.311.026-.44.026-.57.052-1.14.13-1.684.233a18.4 18.4 0 0 0-6.163 2.33c-1.838 1.114-3.444 2.487-4.739 4.04a18.5 18.5 0 0 0-3.004 5.076 17.9 17.9 0 0 0-1.19 5.438c-.027.44-.027.906-.027 1.346v.337l.026.363c.026.207.026.44.052.647.078.906.259 1.787.492 2.615a14.4 14.4 0 0 0 2.227 4.506c.958 1.295 2.123 2.357 3.34 3.211a14 14 0 0 0 3.833 1.813c1.295.388 2.59.544 3.807.544h.673c.078 0 .155 0 .233-.026.13 0 .259-.026.388-.026.026 0 .078 0 .104-.026l.13-.026c.077 0 .155-.026.233-.026.155-.026.284-.052.44-.077a2 2 0 0 0 .414-.104c.285-.052.544-.155.803-.233a11 11 0 0 0 1.476-.622c.466-.233.88-.517 1.295-.776.103-.078.233-.156.336-.26a.983.983 0 0 0 .156-1.372.954.954 0 0 0-1.217-.233l-.311.155a8.4 8.4 0 0 1-2.33.777c-.208.026-.415.052-.648.078-.104 0-.207.026-.337.026h-.621c-.13 0-.26 0-.389-.026h-.156c-.05 0-.129 0-.18-.026-.13-.026-.233-.026-.363-.052a10 10 0 0 1-2.822-.828 9.9 9.9 0 0 1-2.616-1.71 9.86 9.86 0 0 1-3.16-5.775 10 10 0 0 1-.103-1.734c0-.155.026-.31.026-.466v-.207c0-.078.026-.156.026-.233.026-.311.078-.622.13-.933a12.46 12.46 0 0 1 3.599-6.758 14.5 14.5 0 0 1 1.554-1.27c.544-.388 1.14-.724 1.76-1.01a12 12 0 0 1 1.917-.698c.647-.182 1.32-.285 2.02-.363.336-.026.673-.052 1.035-.052h.803l.285.026c.751.052 1.476.156 2.201.337 1.45.31 2.875.855 4.195 1.58 2.642 1.476 4.894 3.754 6.267 6.5a14.5 14.5 0 0 1 1.424 4.376c.052.388.104.776.13 1.165l.026.285.025.285v1.113c0 .181-.026.492-.026.673-.025.415-.077.855-.129 1.27-.052.414-.13.828-.207 1.242a17 17 0 0 1-.285 1.217 22 22 0 0 1-.777 2.409 21 21 0 0 1-2.434 4.428 20 20 0 0 1-7.82 6.396c-1.554.699-3.185 1.217-4.869 1.476-.828.155-1.683.233-2.537.259H54.78c-.466 0-.907-.026-1.373-.078-1.812-.13-3.6-.466-5.36-.958-1.735-.492-3.418-1.191-5.024-2.02-3.185-1.709-6.06-4.04-8.286-6.862a26.7 26.7 0 0 1-2.9-4.506 27 27 0 0 1-1.917-4.946 27.3 27.3 0 0 1-.88-5.205l-.026-.336v-2.305a31.3 31.3 0 0 1 .647-5.309c.182-.88.389-1.76.648-2.641a35 35 0 0 1 1.838-4.998c1.476-3.16 3.393-5.982 5.697-8.235.57-.57 1.166-1.087 1.787-1.605a27 27 0 0 1 1.942-1.398 20 20 0 0 1 2.046-1.192c.337-.18.699-.362 1.062-.517l.543-.234.544-.233c.725-.31 1.476-.57 2.253-.802.181-.052.389-.104.57-.182.181-.051.388-.103.57-.155.388-.104.776-.207 1.165-.285.181-.052.388-.078.595-.13.208-.051.389-.077.596-.129.207-.026.388-.077.596-.103l.284-.052.311-.052c.207-.026.389-.052.596-.078l.673-.077c.181-.026.492-.052.673-.078.13-.026.285-.026.415-.052l.285-.026.129-.026h.155c.233-.026.44-.026.674-.051l.336-.026h.259c.181 0 .389-.026.57-.026.75-.026 1.528-.026 2.279 0a30.5 30.5 0 0 1 4.402.492 31 31 0 0 1 8.027 2.667c2.46 1.191 4.636 2.667 6.552 4.273.13.103.233.207.362.31.104.104.233.208.337.311.233.207.44.415.673.622s.44.414.648.621c.207.207.414.415.621.648a33.4 33.4 0 0 1 5.516 7.743l.155.31.156.31c.103.208.207.415.284.622.104.207.182.389.285.596.078.207.182.388.26.595.31.777.62 1.528.854 2.227.388 1.14.673 2.15.906 3.03a.69.69 0 0 0 .777.544.714.714 0 0 0 .673-.725c.026-.932 0-2.046-.13-3.315"/><defs><linearGradient id="a" x1="4329.27" x2="4329.27" y1="11511.3" y2="2928.07" gradientUnits="userSpaceOnUse"><stop stop-color="#fff100"/><stop offset="1" stop-color="#f05a28"/></linearGradient></defs></svg>
