<svg xmlns="http://www.w3.org/2000/svg" width="24" height="24" fill="none" viewBox="0 0 24 24"><desc>Gulp Streamline Icon: https://streamlinehq.com</desc><path fill="#d34a47" d="m14.873 23.042.226-3.757.622-1.063s-1.417.58-3.789.58-3.768-.57-3.768-.57l.698 1.16.247 3.65c0 .39 1.29.708 2.882.708s2.882-.317 2.882-.708m-.711-17.545.473-1.87 2.62-2.758-.69-.588-2.774 2.937-.55 2.235q-.598-.02-1.241-.02c-2.922 0-5.291.332-5.291.743 0 .41 2.369.744 5.291.744s5.291-.333 5.291-.744c0-.302-1.285-.563-3.13-.679"/><path fill="#fff" d="M13.887 6.545s-.103.023-.404.024-.516-.002-.601-.08a.14.14 0 0 1-.036-.09c0-.053.038-.085.087-.105l.045.072q-.03.01-.03.024c-.001.04.308.068.543.065.237-.003.522-.022.522-.062q-.002-.019-.06-.033L14 6.29c.061.018.115.055.115.118 0 .108-.138.125-.227.137"/><path fill="#d34a47" d="M17.25.874c.067-.076-.033-.27-.223-.434-.189-.164-.396-.236-.462-.16-.066.077.034.271.224.435.189.164.396.235.462.16m-2.504 12.99c-.062-.598 1.307-1.463.956-1.491-.757.043-1.133.887-1.514 1.77-.14.323-.616 1.704-.93 1.534-.312-.17.406-1.305.608-1.98-.233.171-1.085.833-1.305.213-.353.3-1.107.463-1.022-.325-.188.333-.61.797-1.116.604-.665-.253.385-2.37.646-2.264s-.052.59-.135.777c-.18.412-.39.93-.25 1.036.24.182.89-.687.904-.706.122-.161.468-1.212.747-1.092.28.121-.696 1.509-.331 1.784.073.056.374-.034.557-.232.119-.128.078-.412.473-1.354s.747-2.115 1.018-2.026c.27.09.048.692-.05.916-.456 1.054-1.244 2.794-.872 2.662s.565-.14.93-.566c.363-.426.347-1.128.59-1.113.242.015.201.24.143.412.238-.274 1.132-.85 1.348-.28.255.676-1.279 1.651-.896 1.601.373-.048.977-.43 1.235-.779l.71-6.382s-.715.591-5.26.591-5.185-.579-5.185-.579l.604 5.826c.321-.912 1.083-2.756 2.284-2.694.546.028 1.275 1.08.65 1.115-.264.015-.29-.525-.604-.604-.226-.057-.54.126-.743.325-.406.397-1.278 1.963-1.163 2.743.147.995 1.373-.346 1.581-.744.146-.28.245-1.11.564-1.024.32.087-.028.945-.26 1.703-.26.85-.396 1.749-.722 1.645-.327-.103.205-1.202.186-1.394-.307.283-.872.999-1.595.644l.376 3.618s.997.788 4.003.788c3.005 0 4.04-.775 4.04-.775l.466-4.19c-.382.37-1.589 1.03-1.666.287"/></svg>