<svg xmlns="http://www.w3.org/2000/svg" fill="none" viewBox="0 0 24 24" height="24" width="24"><desc>Jenkins Streamline Icon: https://streamlinehq.com</desc><path fill="#d33833" d="M18.92 9.781c0 3.918-3.106 7.096-6.94 7.096-3.833 0-6.94-3.178-6.94-7.096s3.107-7.096 6.94-7.096 6.94 3.178 6.94 7.096"/><path fill="#ef3d3a" d="M5.326 11.538s-.504-7.398 6.319-7.611l-.476-.795-3.7 1.243-1.057 1.214-.924 1.769-.526 2.06.157 1.376"/><path fill="#231f20" d="M7.229 4.94a6.96 6.96 0 0 0-1.97 4.869 6.96 6.96 0 0 0 1.97 4.869c1.22 1.248 2.893 2.015 4.751 2.015s3.532-.767 4.752-2.015a6.96 6.96 0 0 0 1.97-4.869 6.96 6.96 0 0 0-1.97-4.869c-1.22-1.242-2.894-2.015-4.752-2.015A6.62 6.62 0 0 0 7.23 4.94m-.31 10.035a7.37 7.37 0 0 1-2.093-5.166c0-2.015.8-3.845 2.093-5.171a7.07 7.07 0 0 1 5.06-2.144c1.975 0 3.766.823 5.059 2.144a7.37 7.37 0 0 1 2.093 5.171c0 2.015-.8 3.845-2.093 5.166a7.04 7.04 0 0 1-10.119 0"/><path fill="#f0d6b7" d="m14.902 9.82-1.058.157-1.427.162-.923.023-.901-.028-.689-.213-.61-.66-.476-1.35-.106-.29-.632-.213-.37-.61-.263-.873.291-.767.689-.24.554.263.263.582.319-.05.106-.135-.106-.61-.028-.767.156-1.058-.005-.604.481-.772.845-.61L12.49.524l1.64.24 1.427 1.03.66 1.058.425.767.107 1.903-.32 1.64-.581 1.455-.549.778"/><path fill="#335061" d="m14.006 14.393-3.777.156v.633l.319 2.222-.157.184-2.642-.9-.184-.32-.263-2.988-.622-1.791-.134-.426 2.116-1.455.66-.263.582.717.504.447.582.185.263.078.319 1.377.24.291.61-.213-.425.823 2.295 1.086z"/><path fill="#6d6b6d" d="m7.738 5.17.689-.241.554.263.263.582.319-.05.078-.32-.157-.61.157-1.455-.134-.794.476-.554 1.03-.817-.292-.398-1.455.717-.61.475-.341.739-.526.716-.157.845z"/><path fill="#dcd9d8" d="M8.824 2.685s.397-.98 1.981-1.455.078-.342.078-.342l-1.718.66-.66.66-.291.527zm-.794 2.3s-.555-1.853 1.56-2.116l-.078-.319-1.455.342-.425 1.376.106.901z"/><path fill="#f7e4cd" d="m8.874 7.442.347-.336s.157.017.185.201c.028.185.106 1.853 1.242 2.748.107.084-.845-.134-.845-.134L8.958 8.6m4.78-1.662s.061-.8.28-.739c.218.062.218.28.218.28s-.526.336-.498.459m2.194-2.933s-.437.09-.476.476c-.04.386.476.078.554.05m-3.274-.498s-.582.079-.582.448.66.341.845.185M9.143 5.751s-1.002-.61-1.108-.028c-.106.583-.341 1.002.157 1.612L7.85 7.23l-.319-.817-.106-.795.61-.632.688.05.398.32zm.476-1.667s.447-2.328 2.72-2.776c1.869-.37 2.854.078 3.223.504 0 0-1.668-1.982-3.251-1.377-1.584.61-2.748 1.718-2.72 2.429.044 1.22.028 1.22.028 1.22m6.128-2.009s-.767-.028-.795.66c0 0 0 .106.05.213 0 0 .61-.689.98-.32"/><path fill="#f7e4cd" d="M12.395 3.02s-.135-1.052-1.03-.442c-.582.398-.526.952-.426 1.058.107.106.079.319.157.174s.056-.622.347-.756c.286-.134.767-.28.952-.034"/><path fill="#49728b" d="M9.91 10.162 7.425 11.27s1.03 4.096.504 5.367l-.37-.135-.028-1.561-.688-2.955-.291-.817 2.591-1.746zm.251 2.266.353.431v1.584h-.42s-.05-1.108-.05-1.242c0-.135.05-.61.05-.61m.079 2.093-1.192.05.341.24.845.135"/><path fill="#335061" d="m14.241 14.42.98-.027.24 2.428-1.001.135z"/><path fill="#335061" d="m14.505 14.42 1.477-.078s.61-1.533.61-1.612c0-.078.526-2.221.526-2.221l-1.192-1.243-.24-.213-.633.633v2.457z"/><path fill="#49728b" d="m15.165 14.236-.924.185.135.738c.341.157.923-.263.923-.263m-.106-5.288 1.852 1.376.05-.632-1.398-1.293z"/><path fill="#fff" d="m11.09 19.625-.548-2.221-.274-1.64-.045-1.215 2.48-.134h1.538l-.14 2.776.241 2.143-.028.398-2.009.156z"/><path fill="#dcd9d8" d="M13.9 14.393s-.134 2.747.263 4.706c0 0-.795.504-1.953.633l2.222-.079.263-.156-.32-4.332-.083-.93"/><path fill="#fff" d="m15.5 16.614 1.03-.29 1.953-.107.291-.901-.526-1.561-.61-.079-.845.263-.806.398-.43-.079-.336.135"/><path fill="#dcd9d8" d="M15.484 16.083s.688-.32.794-.291l-.29-1.455.34-.135s.241 1.377.241 1.534c0 0 1.478.078 1.612.078 0 0 .32-.61.24-1.242l.292.845.028.475-.425.633-.476.106-.795-.028-.263-.341-.923.134-.291.106"/><path fill="#fff" d="m14.443 14.208-.582-1.478-.61-.873s.134-.369.319-.369h.61l.582.213-.05.98z"/><path fill="#dcd9d8" d="M14.56 13.704s-.738-1.427-.738-1.64c0 0 .134-.319.319-.24s.582.29.582.29v-.503l-.901-.185-.61.079 1.03 2.44.212.028"/><path fill="#fff" d="m11.326 10.218-.733-.079-.689-.212v.24l.336.37 1.058.475"/><path fill="#dcd9d8" d="M10.145 10.296s.817.341 1.085.263l.028.319-.738-.157-.448-.319z"/><path fill="#d33833" d="M15.5 11.578a5 5 0 0 1-1.208-.168c.022-.146-.023-.286.017-.392.1-.073.263-.073.414-.09a.7.7 0 0 0-.46-.05c-.005-.1-.05-.162-.077-.24.251-.09.845-.678 1.18-.488.163.096.23.622.241.885.011.212-.022.425-.106.543"/><path fill="#000" stroke="#d33833" stroke-width=".5" d="M15.5 11.578a5 5 0 0 1-1.208-.168c.022-.146-.023-.286.017-.392.1-.073.263-.073.414-.09a.7.7 0 0 0-.46-.05c-.005-.1-.05-.162-.077-.24.251-.09.845-.678 1.18-.488.163.096.23.622.241.885.011.212-.022.425-.106.543Z"/><path fill="#d33833" d="M13.357 10.844q.001.051-.005.101c-.14.09-.364.09-.52.168.223.011.402.067.559.14-.006.084-.006.173-.011.257-.258.174-.493.437-.795.605-.146.078-.644.28-.795.24-.084-.022-.095-.128-.129-.229-.072-.213-.24-.56-.257-.884-.017-.409-.062-1.097.38-1.013.359.067.773.23 1.047.38.174.101.269.213.526.235"/><path fill="#000" stroke="#d33833" stroke-width=".5" d="M13.357 10.844q.001.051-.005.101c-.14.09-.364.09-.52.168.223.011.402.067.559.14-.006.084-.006.173-.011.257-.258.174-.493.437-.795.605-.146.078-.644.28-.795.24-.084-.022-.095-.128-.129-.229-.072-.213-.24-.56-.257-.884-.017-.409-.062-1.097.38-1.013.359.067.773.23 1.047.38.174.101.269.213.526.235Z"/><path fill="#d33833" d="M13.609 11.331c-.04-.224-.084-.285-.067-.481.599-.397.705.683.067.481"/><path fill="#000" stroke="#d33833" stroke-width=".5" d="M13.609 11.331c-.04-.224-.084-.285-.067-.481.599-.397.705.683.067.481Z"/><path fill="#ef3d3a" d="M14.47 11.51s-.184-.263-.05-.341c.135-.078.263 0 .342-.134.078-.135 0-.213.028-.37.028-.156.156-.184.29-.212.135-.028.504-.079.555.05l-.157-.476-.319-.106-1.002.582-.05.291v.582m-2.412 1.007-.1-1.236c-.057-.616.145-.51.682-.51.084 0 .504.095.532.157.145.297-.24.23.168.453.341.185.951-.112.811-.531-.078-.095-.403-.028-.52-.09l-.622-.319c-.263-.134-.867-.336-1.147-.145-.71.48.045 1.69.297 2.193"/><path fill="#231f20" d="M12.395 3.02c-.722-.168-1.08.303-1.299.79-.196-.045-.117-.314-.067-.448.129-.353.65-.829 1.075-.761.179.022.425.19.29.42m3.51.816h.033c.162.336.302.694.51.997-.14.324-1.042.604-1.03.033.195-.084.531-.017.705-.128-.101-.275-.24-.51-.219-.902m-3.145.012c.157.285.207.582.426.794.1.096.29.213.196.482-.023.061-.185.201-.28.23-.342.1-1.142.022-.873-.41.285.012.666.185.878-.022-.162-.257-.453-.772-.347-1.074m3.017 2.876c-.515.33-1.091.694-1.942.61-.18-.156-.252-.509-.073-.738.09.156.034.447.291.492.482.084 1.041-.297 1.388-.425.213-.364-.017-.493-.212-.728-.398-.475-.924-1.069-.907-1.78.162-.117.173.18.196.23.207.481.727 1.102 1.102 1.517.095.1.246.201.263.268.05.19-.128.426-.106.554m-6.817-.347c-.162-.095-.201-.498-.392-.509-.274-.017-.223.526-.223.845-.185-.168-.219-.694-.084-.963-.157-.078-.224.084-.314.14.118-.811 1.192-.375 1.013.487m7.142.689c-.241.459-.583.962-1.288.98-.017-.146-.028-.376 0-.465.543-.056.879-.33 1.287-.515m-3.38.296c.448.235 1.276.263 1.892.247.033.134.033.302.033.464-.789.034-1.718-.162-1.925-.71m-.084.436c.314.783 1.383.694 2.284.671-.04.101-.124.224-.235.263-.291.118-1.086.208-1.49-.005-.251-.134-.419-.442-.559-.621-.061-.084-.397-.303 0-.308"/><path fill="#81b0c4" d="M15.736 12.115c-.364.627-.717 1.27-1.148 1.819.18-.532.258-1.427.286-2.11.38-.18.705.039.862.29"/><path fill="#231f20" d="M17.7 14.365c-.408.084-.694.48-1.097.453.224-.308.605-.442 1.097-.453m.18.638c-.337.033-.728.09-1.064.061.162-.246.778-.157 1.063-.061m.118.554c-.375.005-.84 0-1.198-.028.213-.23.957-.084 1.198.028"/><path fill="#dcd9d8" d="M15.03 17.068c.056.47.241.946.219 1.46-.207.068-.325.13-.605.13-.017-.437-.078-1.109-.061-1.529.134.011.336-.095.447-.061"/><path fill="#f0d6b7" d="M14.426 10.128c-.19.123-.347.274-.532.409-.403.022-.62-.028-.912-.258.006-.017.034-.011.034-.033.43.19.979-.079 1.41-.118"/><path fill="#81b0c4" d="M12.176 13.055c.118-.51.582-.778 1.002-1.058.431.549.694 1.254.985 1.937-.688-.207-1.388-.538-1.987-.879"/><path fill="#231f20" d="M14.583 17.135c-.017.42.039 1.086.061 1.528.28 0 .398-.062.605-.129.022-.515-.163-.99-.219-1.46-.111-.04-.313.066-.447.06m-4.32-2.373c.184 1.685.447 3.095.934 4.59 1.08.33 2.378.357 3.335.06-.173-.839-.1-1.863-.201-2.764-.078-.677-.04-1.354-.146-2.043-1.158-.24-2.792-.056-3.923.157m4.197-.146a23 23 0 0 0 .09 2.16c.279-.038.464-.066.721-.128-.084-.694-.073-1.483-.246-2.099-.196.006-.37 0-.565.067m1.404-.117c-.134-.028-.285 0-.408 0 .061.588.201 1.237.252 1.858.196.006.302-.09.464-.118.011-.542-.045-1.292-.308-1.74m2.133 1.948c.414-.101.671-.605.554-1.125-.079-.347-.213-1.008-.364-1.232-.106-.162-.403-.38-.644-.23-.386.247-1.063.32-1.343.617.14.47.185 1.108.24 1.7.482.029 1.07-.133 1.473.04-.28.09-.638.09-.879.224.202.095.66.078.963.006m-3.84-2.513c-.29-.683-.554-1.388-.985-1.937-.42.28-.878.549-1.001 1.058.604.341 1.304.672 1.986.879m.717-2.11c-.028.683-.107 1.578-.286 2.11.431-.554.784-1.192 1.148-1.82-.157-.251-.482-.47-.862-.29m-.812-.286c-.162-.016-.302.19-.515.101-.05.056-.095.112-.145.168.47.57.688 1.377 1.052 2.043.196-.644.174-1.343.218-2.043-.268.011-.42-.252-.61-.269m-.52-.688c-.017.196.028.257.067.481.638.202.532-.878-.067-.481m-.711-.235a3.9 3.9 0 0 0-1.047-.38c-.442-.085-.397.604-.38 1.012.017.325.185.666.257.885.034.1.045.207.13.229.15.034.654-.162.794-.24.302-.163.537-.426.794-.605.006-.084.006-.174.012-.257a1.35 1.35 0 0 0-.56-.14c.151-.079.38-.079.52-.168q-.002-.05.006-.101c-.257-.028-.352-.14-.526-.235m-2.63-.476c-.23.235.643.549.917.565 0-.145.084-.285.068-.391-.33-.056-.761-.017-.985-.174m2.82.107c0 .022-.028.016-.033.033.296.23.515.28.912.258.179-.13.341-.286.532-.409-.437.04-.985.308-1.41.118m2.586.783c-.011-.257-.078-.79-.24-.884-.337-.196-.93.397-1.182.487.028.078.073.14.079.24a.7.7 0 0 1 .459.05c-.151.018-.314.018-.414.09-.034.107.01.247-.017.392.352.1.76.151 1.209.168.084-.112.117-.325.106-.543m-5.792-.666c-.073-.05-.56-.683-.627-.655-.879.347-1.702.946-2.435 1.517.7 1.505.985 3.347 1.036 5.12.8.376 1.505.919 2.596.975a44 44 0 0 1-.313-2.53c-.274-.118-.666.006-.923-.034 0-.307.391-.134.425-.341.022-.157-.218-.168-.14-.414.201.073.308.235.52.296.196-.425 0-1.18.028-1.539.006-.067.034-.369.185-.319.134.045-.006.812.006 1.148.01.313-.04.61.09.806a30 30 0 0 1 3.262-.27c-.252-.105-.548-.206-.873-.39-.18-.102-.733-.309-.784-.477-.084-.268.213-.408.263-.638-.531.291-.632-.28-.76-.677a5.6 5.6 0 0 1-.208-.845c-.464-.235-.957-.453-1.348-.733m5.327-.582c.734-.353.868 1.326.577 1.87.045.162.196.223.257.369-.408.733-.862 1.416-1.281 2.138.307-.196.755-.034 1.119-.18.134-.05.23-.358.33-.604.28-.672.571-1.522.7-2.16.028-.146.112-.465.09-.593-.034-.236-.348-.409-.51-.549-.297-.269-.481-.498-.795-.75-.117.185-.386.308-.487.459m-7-6.498c-.348.387-.275 1.103-.236 1.618.632-.398 1.466.033 1.46.705.303-.006.113-.375.057-.616-.18-.778.302-1.617.022-2.328-.543.045-.985.263-1.304.621m2.495-2.233c-.789.224-1.802.8-2.126 1.511.251-.039.425-.162.671-.179.095-.005.218.04.325.012.212-.056.397-.538.56-.717.156-.173.346-.252.475-.408.084-.04.207-.04.213-.163-.034-.039-.073-.067-.118-.056m4.114.213C13.928.8 12.54.452 11.667.888c-.705.353-1.657.935-1.981 1.668.302.71-.09 1.36-.118 2.082-.011.386.18.716.196 1.136-.106.173-.42.19-.638.179-.073-.37-.201-.784-.582-.828-.537-.062-.935.386-.957.85-.028.549.42 1.455 1.058 1.394.246-.022.308-.269.576-.269.146.291-.224.38-.263.588-.011.056.028.263.056.364.118.475.375 1.097.627 1.46.325.465.957.532 1.64.577.123-.263.57-.24.862-.174-.353-.14-.678-.475-.946-.772-.308-.341-.621-.705-.638-1.153.587.812 1.069 1.522 2.132 1.88.806.27 1.746-.123 2.367-.56.258-.178.409-.47.594-.727.682-.985 1.001-2.384.934-3.744-.028-.56-.028-1.12-.218-1.494-.196-.392-.862-.75-1.254-.392-.072-.386.325-.621.79-.481-.33-.431-.678-.94-1.153-1.209m1.533 12.654c.644-.32 1.841-.856 2.239 0 .15.319.324.85.397 1.18.106.46-.117 1.433-.593 1.585-.42.134-.907.128-1.41.028a.8.8 0 0 1-.174-.224c-.358-.012-.7.016-.98.168.029.268-.15.307-.324.363-.123.498.252 1.148.162 1.595-.061.325-.459.375-.75.431-.01.18.012.33.034.482-.067.246-.364.386-.65.42-.934.111-2.35.162-3.245-.163-.252-.616-.448-1.36-.655-2.06-.873.096-1.584-.374-2.25-.688-.23-.106-.548-.168-.638-.352-.084-.18-.05-.52-.073-.84-.05-.823-.1-1.617-.313-2.457-.095-.38-.269-.71-.386-1.074-.112-.336-.302-.756-.353-1.092-.073-.498.398-.526.694-.744.465-.336.828-.52 1.332-.823.151-.09.599-.313.65-.42.1-.207-.174-.498-.247-.66a2 2 0 0 1-.196-.727 1.4 1.4 0 0 1-.934-.6c-.32-.47-.543-1.337-.263-1.992.022-.05.128-.156.145-.235.034-.156-.061-.363-.067-.531-.028-.857.145-1.595.722-1.853.235-.934 1.074-1.242 1.864-1.707.296-.173.62-.285.957-.408 1.203-.442 3.055-.358 4.057.397.425.32 1.103.996 1.343 1.489.644 1.293.593 3.458.146 5.037-.062.212-.146.52-.269.778-.084.179-.347.531-.319.688.034.162.605.593.728.71.218.213.638.493.671.762.04.285-.123.677-.207.951a37 37 0 0 1-.845 2.586"/><path fill="#f7e4cd" d="M12.003 7.56c.033-.046.224-.118.492.01 0 0-.319.05-.29.582l-.135-.028c.005.006-.135-.475-.067-.565"/><path fill="#1d1919" d="M14.32 12.104a.15.15 0 0 1-.146.145.15.15 0 0 1-.145-.145c0-.079.067-.146.145-.146.084 0 .146.067.146.146m.145.676a.15.15 0 0 1-.145.146.15.15 0 0 1-.146-.145c0-.079.067-.146.146-.146.084 0 .145.062.145.146"/></svg>
