<svg xmlns="http://www.w3.org/2000/svg" fill="none" viewBox="0 0 24 24" height="24" width="24"><desc>Kafka Icon Streamline Icon: https://streamlinehq.com</desc><path fill="#1a1919" d="M9.718 2.34a1.44 1.44 0 0 0-1.022-.42c-.4 0-.759.16-1.015.42h-.007c-.259.26-.42.621-.42 1.022s.162.76.42 1.018l.007.005c.256.26.615.419 1.015.419.402 0 .763-.16 1.022-.419l.004-.005c.26-.258.419-.617.419-1.018 0-.4-.16-.762-.419-1.021zM8.696 22.08c.402 0 .763-.163 1.022-.42l.004-.007a1.42 1.42 0 0 0 .419-1.014c0-.402-.16-.762-.419-1.023h-.004a1.42 1.42 0 0 0-1.022-.422c-.4 0-.759.159-1.015.422h-.007c-.259.26-.42.62-.42 1.023 0 .397.162.759.42 1.014l.007.008c.256.256.615.42 1.015.42m7.857-4.368a1.42 1.42 0 0 0 .878-.67l.027-.05c.175-.33.207-.71.114-1.045a1.43 1.43 0 0 0-.673-.878l-.02-.014a1.45 1.45 0 0 0-1.074-.13 1.4 1.4 0 0 0-.877.673 1.44 1.44 0 0 0-.145 1.096c.098.355.328.677.672.878h.002a1.45 1.45 0 0 0 1.096.14m-6.377-7.19a2.083 2.083 0 0 0-2.956 0 2.1 2.1 0 0 0 0 2.957 2.09 2.09 0 0 0 2.956 0 2.1 2.1 0 0 0 0-2.957m-.832-2.458c.839.138 1.593.54 2.169 1.12h.004q.139.141.264.294l1.44-.833a3.06 3.06 0 0 1-.047-1.77 3.1 3.1 0 0 1 1.45-1.887l.024-.015a3.105 3.105 0 0 1 4.225 1.152v.002a3.103 3.103 0 0 1-1.139 4.245l-.197.116h-.02a3.11 3.11 0 0 1-3.652-.728l-1.437.83c.165.438.257.91.257 1.407 0 .496-.092.973-.257 1.414l1.438.827a3.07 3.07 0 0 1 1.507-.924 3.07 3.07 0 0 1 2.361.313l.047.022v.003a3.1 3.1 0 0 1 1.402 1.866 3.1 3.1 0 0 1-.31 2.354l-.027.052-.003-.004a3.13 3.13 0 0 1-1.858 1.406 3.13 3.13 0 0 1-2.362-.31v-.007a3.1 3.1 0 0 1-1.45-1.887 3.06 3.06 0 0 1 .048-1.768l-1.44-.83a4 4 0 0 1-.264.289l-.004.004c-.576.578-1.33.98-2.169 1.113v1.664a3.1 3.1 0 0 1 1.553.844l.002.004c.563.56.91 1.34.91 2.197 0 .854-.347 1.629-.91 2.191l-.002.01a3.11 3.11 0 0 1-4.397 0h-.002v-.01a3.1 3.1 0 0 1-.912-2.191c0-.858.349-1.637.912-2.197v-.004H6.5c.42-.42.956-.72 1.552-.844V15.93a3.93 3.93 0 0 1-2.167-1.113l-.006-.004a3.976 3.976 0 0 1 0-5.628h.006a3.95 3.95 0 0 1 2.167-1.12V6.407A3.15 3.15 0 0 1 6.5 5.563h-.002v-.005a3.1 3.1 0 0 1 0-4.393l.002-.003a3.103 3.103 0 0 1 4.397 0v.003h.002a3.105 3.105 0 0 1 0 4.393l-.002.005c-.42.416-.955.715-1.553.845zM17.43 6.96l-.012-.018a1.45 1.45 0 0 0-1.964-.512h.002a1.44 1.44 0 0 0-.529 1.973l.007.01c.2.339.516.566.87.658.356.1.753.058 1.094-.14l.019-.01c.336-.2.56-.518.654-.866a1.44 1.44 0 0 0-.14-1.095"/></svg>
