<svg xmlns="http://www.w3.org/2000/svg" fill="none" viewBox="0 0 24 24" height="24" width="24"><desc>Kubernetes Streamline Icon: https://streamlinehq.com</desc><path fill="#326de6" d="M7.753 23.077a1.8 1.8 0 0 1-1.413-.684l-5.318-6.61c-.35-.44-.487-1.002-.35-1.55l1.9-8.25c.121-.547.486-.988.987-1.231l7.689-3.677c.243-.122.516-.183.79-.183s.547.061.79.183l7.689 3.662c.501.243.866.684.987 1.23l1.9 8.251c.121.547 0 1.11-.35 1.55l-5.318 6.61a1.84 1.84 0 0 1-1.413.684z"/><path fill="#fff" d="M12.023 1.272c.213 0 .425.046.623.137l7.688 3.662c.396.198.7.562.79.988l1.9 8.25c.106.441 0 .897-.289 1.247l-5.318 6.61a1.45 1.45 0 0 1-1.14.546H7.753c-.44 0-.866-.197-1.14-.547l-5.318-6.61a1.52 1.52 0 0 1-.289-1.245l1.9-8.251c.106-.44.395-.806.79-.988l7.689-3.677a1.8 1.8 0 0 1 .638-.122m0-.714a2.3 2.3 0 0 0-.942.213L3.392 4.448a2.15 2.15 0 0 0-1.185 1.474l-1.9 8.25c-.151.654 0 1.323.426 1.855l5.318 6.61c.41.516 1.033.805 1.687.805h8.524c.654 0 1.277-.289 1.687-.806l5.318-6.61c.426-.516.577-1.2.426-1.853l-1.9-8.251a2.15 2.15 0 0 0-1.185-1.474L12.95.771a2.2 2.2 0 0 0-.927-.213"/><path fill="#fff" d="M19.727 13.656q-.024 0 0 0h-.016c-.015 0-.03 0-.03-.015-.03 0-.06-.015-.091-.015-.107-.015-.198-.03-.289-.03-.045 0-.091 0-.152-.016h-.015c-.32-.03-.577-.06-.82-.137-.107-.045-.137-.106-.168-.167 0-.015-.015-.015-.015-.03l-.197-.06a6 6 0 0 0-.107-2.143 6.3 6.3 0 0 0-.85-1.99l.151-.138v-.03c0-.076.015-.152.076-.228.183-.167.41-.304.684-.471.046-.03.091-.046.137-.076.091-.046.167-.091.258-.152.015-.015.046-.03.076-.06.015-.016.03-.016.03-.031.213-.182.259-.486.107-.684a.43.43 0 0 0-.35-.167.56.56 0 0 0-.334.122l-.03.03c-.03.015-.046.046-.076.06-.076.077-.137.137-.198.213-.03.03-.06.076-.106.107-.213.228-.41.41-.608.547a.25.25 0 0 1-.137.045c-.03 0-.06 0-.09-.015h-.031l-.183.122a7 7 0 0 0-.623-.578 6.07 6.07 0 0 0-3.175-1.26l-.016-.198-.03-.03c-.046-.046-.106-.092-.122-.198-.015-.243.016-.517.046-.82v-.016a.5.5 0 0 1 .03-.152c.016-.091.03-.182.046-.289V4.57c0-.274-.213-.502-.471-.502a.5.5 0 0 0-.334.152.48.48 0 0 0-.137.35v.121c0 .107.015.198.046.289.015.045.015.091.03.152v.015c.03.304.076.577.046.82-.016.107-.076.152-.122.198l-.03.03-.016.198c-.273.03-.547.06-.82.122a5.86 5.86 0 0 0-3.009 1.701L7.54 8.11h-.03c-.03 0-.06.015-.091.015a.25.25 0 0 1-.137-.045c-.198-.137-.395-.335-.608-.563-.03-.03-.06-.076-.106-.106a3 3 0 0 0-.198-.213c-.015-.015-.045-.03-.076-.06-.015-.016-.03-.016-.03-.03a.53.53 0 0 0-.334-.122.43.43 0 0 0-.35.167c-.152.197-.106.501.106.684.016 0 .016.015.03.015.031.015.046.045.077.06.091.061.167.107.258.152.046.016.091.046.137.076.273.168.501.304.684.471.076.076.076.152.076.228v.03l.152.138c-.03.045-.061.076-.076.121a5.92 5.92 0 0 0-.851 4.012l-.198.06c0 .016-.015.016-.015.03a.35.35 0 0 1-.167.168c-.228.076-.502.106-.82.137h-.016c-.045 0-.106 0-.152.015-.091 0-.182.015-.289.03-.03 0-.06.015-.09.015-.016 0-.031 0-.046.016a.5.5 0 0 0-.395.562c.045.213.243.35.486.35.045 0 .076 0 .121-.016.016 0 .03 0 .03-.015.031 0 .062-.015.092-.015.106-.03.182-.061.274-.107.045-.015.09-.045.136-.06h.015c.29-.107.547-.198.79-.228h.031c.091 0 .152.045.198.076.015 0 .015.015.03.015l.213-.03a6 6 0 0 0 1.99 2.856c.213.167.426.304.654.44l-.092.198c0 .015.016.015.016.03.03.061.06.137.03.244a4.3 4.3 0 0 1-.395.714v.015c-.03.046-.06.076-.091.122-.061.076-.107.152-.167.243-.016.015-.03.045-.046.076 0 .015-.015.03-.015.03-.122.259-.03.547.197.654q.091.045.183.045a.55.55 0 0 0 .456-.289c0-.015.015-.03.015-.03.015-.03.03-.06.045-.076.046-.106.061-.182.091-.273l.046-.137c.106-.304.182-.547.32-.76.06-.091.136-.106.197-.137.015 0 .015 0 .03-.015l.106-.197a5.9 5.9 0 0 0 2.128.395c.44 0 .896-.046 1.322-.152a7 7 0 0 0 .79-.228l.091.167c.015 0 .015 0 .03.015a.28.28 0 0 1 .198.137c.122.213.213.47.32.76v.015l.045.137c.03.09.045.182.09.273.016.03.031.046.046.076 0 .015.016.03.016.03a.52.52 0 0 0 .455.29q.092 0 .183-.046a.45.45 0 0 0 .228-.274.55.55 0 0 0-.03-.38c0-.015-.016-.015-.016-.03-.015-.03-.03-.061-.045-.076-.046-.091-.107-.167-.168-.243-.03-.046-.06-.076-.09-.122v-.015c-.168-.258-.32-.486-.396-.714-.03-.107 0-.167.015-.243 0-.016.016-.016.016-.03l-.076-.183a5.9 5.9 0 0 0 2.005-1.96 6 6 0 0 0 .638-1.368l.183.03c.015 0 .015-.015.03-.015.061-.03.107-.076.198-.076h.03c.243.03.502.122.79.228h.015c.046.016.092.046.137.061.091.046.167.076.274.107.03 0 .06.015.09.015.016 0 .031 0 .046.015a.51.51 0 0 0 .608-.334c0-.183-.167-.426-.44-.502m-7.036-.744-.668.319-.669-.32-.167-.713.456-.578h.744l.456.578zm3.966-1.58c.122.516.152 1.033.107 1.534l-2.325-.668a.41.41 0 0 1-.289-.487.36.36 0 0 1 .091-.167l1.839-1.656c.258.425.456.912.577 1.443M15.35 8.975l-1.99 1.413a.405.405 0 0 1-.532-.09.34.34 0 0 1-.076-.168l-.137-2.477a4.6 4.6 0 0 1 2.735 1.322M10.944 7.73c.167-.03.319-.06.486-.091l-.137 2.431a.416.416 0 0 1-.41.395.36.36 0 0 1-.182-.045L8.68 8.976a4.64 4.64 0 0 1 2.264-1.246M7.95 9.888l1.808 1.61a.405.405 0 0 1 .045.563.3.3 0 0 1-.182.121l-2.355.684a4.9 4.9 0 0 1 .684-2.978m-.41 4.118 2.415-.41a.41.41 0 0 1 .426.319.43.43 0 0 1-.015.243L9.44 16.39a4.8 4.8 0 0 1-1.9-2.385m5.545 3.023c-.35.076-.699.122-1.063.122a5.2 5.2 0 0 1-1.535-.243l1.2-2.173c.122-.137.32-.197.487-.106a.7.7 0 0 1 .182.167l1.17 2.112c-.137.046-.289.076-.44.121m2.963-2.112a4.8 4.8 0 0 1-1.458 1.474l-.958-2.294a.41.41 0 0 1 .213-.471.5.5 0 0 1 .213-.046l2.431.41a3 3 0 0 1-.44.927"/></svg>
