<svg xmlns="http://www.w3.org/2000/svg" fill="none" viewBox="0 0 24 24" height="24" width="24"><desc>Markdown Streamline Icon: https://streamlinehq.com</desc><path fill="#000" d="M22.132 19.247H1.939A1.71 1.71 0 0 1 .25 17.558V6.442c0-.915.774-1.689 1.689-1.689H22.06c.915 0 1.689.774 1.689 1.689v11.116c0 .915-.704 1.689-1.618 1.689M1.939 5.879c-.282 0-.563.281-.563.563v11.116c0 .352.281.563.563.563H22.06a.555.555 0 0 0 .563-.563V6.442a.555.555 0 0 0-.563-.563zm1.688 9.99V8.13H5.88l2.251 2.815 2.252-2.815h2.251v7.74h-2.251v-4.433L8.13 14.252l-2.25-2.815v4.433zm14.142 0-3.377-3.728h2.252V8.13h2.251v3.94h2.252z"/></svg>
