<svg xmlns="http://www.w3.org/2000/svg" fill="none" viewBox="0 0 24 24" height="24" width="24"><desc>Mocha Streamline Icon: https://streamlinehq.com</desc><path fill="#8d6748" d="M21.713 18.332 12.63 23.58c-.391.227-.87.227-1.262 0l-9.082-5.248a1.26 1.26 0 0 1-.63-1.085V6.753c0-.455.24-.858.63-1.085L11.37.42c.391-.227.87-.227 1.262 0l9.082 5.248c.39.227.63.643.63 1.084v10.496a1.32 1.32 0 0 1-.63 1.084"/><path fill="#fff" d="M11.987 1.846c-.189 0-.378.05-.542.151L3.599 6.526a1.07 1.07 0 0 0-.542.933v9.057c0 .39.201.744.542.933l7.846 4.529a1.04 1.04 0 0 0 1.085 0l7.846-4.529a1.07 1.07 0 0 0 .542-.933V7.459c0-.391-.202-.744-.542-.933L12.53 1.997a1.04 1.04 0 0 0-.543-.151m0 .378c.127 0 .24.038.354.101l7.846 4.529a.73.73 0 0 1 .353.618v9.057a.73.73 0 0 1-.353.618l-7.846 4.528a.68.68 0 0 1-.707 0l-7.846-4.528a.73.73 0 0 1-.353-.618V7.472c0-.253.139-.492.353-.619l7.846-4.528c.114-.063.24-.1.353-.1m-.725 7.897h1.06a.12.12 0 0 0 .088-.038c.63-.707.694-2.183.694-2.624a.126.126 0 0 0-.126-.126h-2.372a.126.126 0 0 0-.126.126c0 .429.063 1.905.694 2.624.025.025.05.038.088.038m-.29-2.397h1.665c.063 0 .126.05.126.126 0 .353-.063 1.35-.492 1.867-.038.025-.063.038-.1.038h-.745a.11.11 0 0 1-.088-.038c-.43-.505-.48-1.514-.492-1.867 0-.063.05-.126.126-.126m1.06-.643s.454-.265.176-.745c-.164-.252-.24-.466-.176-.555-.164.202-.442.417-.14.87a.7.7 0 0 1 .14.43m-.505.037s.303-.176.114-.504c-.114-.164-.164-.315-.114-.366-.114.139-.29.277-.088.593.063.063.088.227.088.277m-.038 2.485h.63q.039 0 .076-.037c.215-.253.316-.644.366-.984 0 0-.012.113-.315.227-.416.151-1.148.05-1.148.05.063.265.164.517.315.707.013.025.05.037.076.037m-4.743 3.545v-2.523H6.28l-.769 1.186-.77-1.186h-.466v2.536h.441v-1.804l.782 1.173h.013l.795-1.186v1.804zm2.826-2.472c-.164-.064-.34-.101-.53-.101s-.366.025-.53.1a1.2 1.2 0 0 0-.416.278 1.3 1.3 0 0 0-.278.416c-.063.164-.1.328-.1.505v.013c0 .176.037.353.1.504q.096.246.265.416c.114.114.253.215.417.278s.34.1.53.1c.189 0 .365-.024.53-.1.163-.063.302-.164.415-.278.127-.126.215-.265.278-.416.063-.164.1-.328.1-.504v-.013c0-.177-.037-.353-.1-.505a1.2 1.2 0 0 0-.681-.694m.303 1.223c0 .114-.026.227-.064.34-.05.102-.1.202-.176.278a1 1 0 0 1-.265.19.75.75 0 0 1-.34.075.8.8 0 0 1-.341-.076q-.152-.075-.265-.189a.9.9 0 0 1-.177-.29 1.1 1.1 0 0 1-.063-.353v-.013c0-.113.025-.227.063-.34a1 1 0 0 1 .177-.278q.114-.114.265-.19.15-.075.34-.075t.341.076q.151.075.265.19a.9.9 0 0 1 .176.29c.038.113.064.226.064.353zm1.866-.378a1 1 0 0 1 .177-.278q.114-.114.265-.19c.1-.05.202-.075.328-.075a.8.8 0 0 1 .39.089c.114.063.215.138.316.227l.29-.328c-.063-.063-.126-.114-.189-.164s-.139-.089-.214-.126c-.089-.026-.164-.05-.265-.076a3 3 0 0 0-.315-.025c-.202 0-.366.037-.53.1a1.2 1.2 0 0 0-.417.278 1.5 1.5 0 0 0-.264.416 1.3 1.3 0 0 0-.101.505v.013c0 .176.037.34.1.504q.096.246.265.416c.114.114.253.215.404.278s.315.1.505.1c.113 0 .227 0 .34-.024a1 1 0 0 0 .265-.089c.076-.038.152-.075.227-.139.076-.063.139-.113.202-.189l-.29-.29a2.4 2.4 0 0 1-.328.24.75.75 0 0 1-.391.088 1 1 0 0 1-.328-.076.8.8 0 0 1-.265-.189.9.9 0 0 1-.177-.29 1.1 1.1 0 0 1-.063-.353v-.013c0-.113.026-.227.063-.34m2.662-.896v2.523h.441v-1.06h1.211v1.06h.442v-2.523h-.442v1.047h-1.21v-1.047zm4.844 1.917.252.606h.467l-1.11-2.535h-.404l-1.11 2.535h.454l.265-.606zm-.593-1.4.429 1.01h-.858zm-14.695 2.94H20.04v-.14H3.96zM13.205 9.2c0 .05-.013.088-.013.138h6.85V9.2zm-2.813 0H3.959v.138h6.445c0-.05-.012-.088-.012-.138"/></svg>
