<svg xmlns="http://www.w3.org/2000/svg" fill="none" viewBox="0 0 24 24" height="24" width="24"><desc>Momentjs Streamline Icon: https://streamlinehq.com</desc><path fill="#376660" fill-rule="evenodd" d="M12 23.75c6.49 0 11.75-5.26 11.75-11.75S18.49.25 12 .25.25 5.51.25 12 5.51 23.75 12 23.75m0-1.762c-5.516 0-9.987-4.472-9.987-9.988S6.483 2.013 12 2.013s9.988 4.47 9.988 9.987-4.472 9.988-9.988 9.988" clip-rule="evenodd"/><path fill="#529990" fill-rule="evenodd" d="M12 21.4a9.4 9.4 0 1 0 0-18.8 9.4 9.4 0 0 0 0 18.8m0-18.213a.59.59 0 0 0-.588.592v7.633H7.298a.585.585 0 0 0-.586.588.59.59 0 0 0 .585.587h5.29V3.776a.586.586 0 0 0-.587-.59" clip-rule="evenodd"/></svg>
