<svg xmlns="http://www.w3.org/2000/svg" fill="none" viewBox="0 0 24 24" height="24" width="24"><desc>Mysql Icon Streamline Icon: https://streamlinehq.com</desc><path fill="#00546b" d="M21.896 18.308c-1.279-.032-2.27.096-3.1.447-.24.096-.624.096-.656.4.128.128.144.335.256.511.192.32.527.751.83.975.336.256.672.512 1.024.735.623.384 1.326.608 1.934.991.351.224.703.512 1.055.752.175.127.287.335.511.415v-.048c-.112-.144-.144-.351-.256-.511-.16-.16-.32-.304-.48-.464a7.6 7.6 0 0 0-1.661-1.614c-.512-.352-1.63-.831-1.839-1.423l-.031-.032c.351-.031.767-.16 1.102-.255.544-.144 1.04-.112 1.599-.256a14 14 0 0 0 .767-.224v-.144c-.288-.287-.496-.67-.8-.943a21 21 0 0 0-2.636-1.966c-.496-.32-1.135-.527-1.663-.799-.191-.096-.511-.144-.623-.303-.288-.352-.448-.815-.655-1.231a40 40 0 0 1-1.311-2.781c-.288-.623-.463-1.247-.815-1.822C12.802 6 11.012 4.354 8.262 2.74c-.591-.335-1.294-.48-2.045-.655-.4-.016-.8-.048-1.2-.064-.255-.112-.51-.416-.734-.56C3.372.887 1.023-.36.35 1.287c-.432 1.039.64 2.061 1.007 2.589.272.368.623.783.815 1.199.112.271.144.56.256.847.255.703.495 1.486.83 2.142.177.335.368.687.592.99.128.176.352.256.4.544-.224.32-.24.799-.368 1.199-.575 1.806-.352 4.043.464 5.37.255.4.863 1.279 1.678.943.719-.288.56-1.199.767-1.998.048-.192.016-.32.112-.447v.032c.224.447.447.879.655 1.326.496.783 1.359 1.598 2.078 2.142.384.287.687.783 1.167.959v-.048h-.032c-.096-.144-.24-.208-.368-.32a8 8 0 0 1-.83-.959c-.672-.895-1.264-1.886-1.791-2.909-.256-.495-.48-1.039-.687-1.534-.096-.192-.096-.48-.256-.575-.24.351-.591.655-.767 1.086-.304.688-.336 1.535-.448 2.414-.064.016-.032 0-.064.032-.511-.128-.687-.656-.879-1.103-.48-1.135-.56-2.957-.144-4.267.112-.336.592-1.391.4-1.71-.096-.304-.416-.48-.591-.72a6.4 6.4 0 0 1-.576-1.023c-.383-.895-.575-1.886-.99-2.781-.193-.416-.528-.847-.8-1.23-.304-.432-.64-.736-.879-1.247-.08-.176-.192-.464-.064-.656.032-.127.096-.175.224-.207.208-.176.799.048 1.007.143.591.24 1.087.464 1.582.8.224.16.464.463.751.543h.336c.511.112 1.087.032 1.566.176.847.271 1.615.671 2.302 1.103a14.2 14.2 0 0 1 4.987 5.466c.191.367.271.703.447 1.087.336.783.751 1.582 1.087 2.35.336.75.655 1.518 1.135 2.141.24.336 1.198.511 1.63.687.32.144.815.272 1.103.448.543.335 1.087.719 1.598 1.087.256.191 1.055.591 1.103.91"/><path fill="#00546b" d="M5.593 4.418a2.5 2.5 0 0 0-.655.08v.032h.032c.128.256.351.432.511.655.128.256.24.512.368.768l.032-.032c.224-.16.335-.416.335-.8-.096-.111-.112-.223-.191-.335-.096-.16-.304-.24-.432-.368"/></svg>
