<svg xmlns="http://www.w3.org/2000/svg" fill="none" viewBox="0 0 24 24" height="24" width="24"><desc>Nestjs Streamline Icon: https://streamlinehq.com</desc><path fill="#e0234e" d="M14.087.296c-.17 0-.328.036-.473.085.31.206.48.48.564.789.006.042.018.073.024.115a1 1 0 0 1 .013.11c.024.534-.14.6-.255.916-.176.407-.128.844.085 1.196a.7.7 0 0 0 .072.133c-.23-1.535 1.05-1.766 1.287-2.245.018-.42-.328-.698-.6-.893a1.34 1.34 0 0 0-.717-.206m1.93.346c-.024.14-.006.103-.012.176-.006.049-.006.11-.012.158a1 1 0 0 1-.043.145q-.02.074-.048.146c-.025.049-.043.091-.067.14-.018.024-.03.048-.049.073l-.036.054q-.045.066-.091.122c-.036.036-.067.078-.11.109v.006c-.036.03-.072.067-.115.097-.127.097-.273.17-.406.26-.043.031-.085.056-.122.092a1 1 0 0 0-.115.097c-.042.036-.073.073-.11.115-.03.037-.066.08-.09.122q-.046.063-.085.127l-.067.14c-.018.048-.036.09-.048.14-.019.054-.03.103-.043.151-.006.024-.006.055-.012.079s-.006.049-.012.073c0 .048-.006.103-.006.152q-.001.054.006.109a.7.7 0 0 0 .018.151q.01.074.03.146c.019.049.03.097.049.146.012.03.03.06.042.085l-1.395-.54a15 15 0 0 0-.704-.182l-.383-.092a11 11 0 0 0-1.104-.163c-.012 0-.019-.006-.03-.006a11 11 0 0 0-1.882-.025 11.5 11.5 0 0 0-1.93.304l-.273.073c-.091.036-.176.078-.261.115l-.2.09c-.012.007-.025.007-.03.013-.061.03-.116.055-.17.085l-.043.018a3 3 0 0 0-.188.097c-.043.019-.085.043-.122.061l-.054.03q-.084.045-.158.091-.082.045-.146.091c-.042.03-.085.055-.121.085-.006.006-.012.006-.018.012a1 1 0 0 0-.116.085l-.012.013-.09.072c-.013.006-.025.019-.037.025-.03.024-.06.054-.091.079-.006.012-.018.018-.024.024l-.11.103c-.006 0-.006.006-.012.012q-.054.047-.109.103c-.006.006-.006.013-.012.013q-.045.043-.091.097c-.012.012-.03.024-.043.036q-.046.054-.103.11c-.006.011-.018.017-.024.03-.049.048-.091.097-.14.145l-.018.018c-.097.104-.2.207-.31.298a4 4 0 0 1-.34.267 3.7 3.7 0 0 1-.746.413 4 4 0 0 1-.394.145c-.255.055-.516.158-.74.176-.05 0-.104.012-.152.018l-.152.037-.146.054a2 2 0 0 0-.145.067c-.043.03-.091.055-.134.085a1 1 0 0 0-.121.103c-.043.03-.085.073-.122.11-.036.042-.073.078-.103.121-.03.049-.067.091-.09.14q-.048.064-.086.14c-.024.054-.048.102-.067.157q-.027.074-.054.158c-.012.048-.025.097-.03.145 0 .006-.007.013-.007.019-.012.054-.012.127-.018.163-.006.043-.012.08-.012.122 0 .024 0 .054.006.079a.6.6 0 0 0 .067.224v.006q.028.055.067.11.034.054.079.109c.03.03.066.067.103.097a1 1 0 0 0 .115.097c.146.127.182.17.37.267.03.018.06.03.097.049.006 0 .012.006.018.006 0 .012 0 .018.007.03a1.3 1.3 0 0 0 .078.291c.019.037.03.073.049.11q.009.02.018.03.037.07.073.133l.091.128c.03.036.067.079.103.115.037.037.073.067.116.103 0 0 .006.006.012.006q.054.047.109.085.062.044.133.08a1 1 0 0 0 .14.066c.036.018.079.03.121.043.006.006.013.006.025.012l.079.018c-.019.328-.025.637.024.746.055.122.322-.248.589-.673-.037.418-.061.91 0 1.056.066.151.43-.322.746-.844 4.303-.995 8.23 1.979 8.642 6.178-.079-.655-.886-1.02-1.256-.928-.182.449-.492 1.025-.99 1.383a3.9 3.9 0 0 0-.06-1.213 3.9 3.9 0 0 1-.753 1.529c-.576.043-1.153-.237-1.456-.655-.024-.019-.03-.055-.049-.08q-.028-.063-.048-.127a.5.5 0 0 1-.037-.127q-.008-.062-.006-.134v-.09a1 1 0 0 1 .03-.128q.018-.064.043-.128c.024-.042.043-.085.073-.127.103-.291.103-.528-.085-.668a1 1 0 0 0-.115-.06c-.025-.006-.055-.019-.08-.025l-.048-.018q-.063-.02-.127-.03a.5.5 0 0 0-.128-.018 1 1 0 0 0-.133-.013c-.03 0-.06.007-.091.007a.5.5 0 0 0-.134.018q-.063.008-.127.024a1 1 0 0 0-.128.043c-.042.018-.078.036-.121.054-.036.018-.073.043-.115.06-1.414.923-.57 3.084.394 3.709-.364.067-.734.146-.837.224l-.012.013q.39.234.819.406c.388.128.8.243.983.292v.006q.756.155 1.53.109c2.688-.188 4.89-2.233 5.291-4.928l.037.158c.018.109.042.224.055.34v.006q.017.083.024.157v.025q.01.083.012.158.01.1.012.2v.097c0 .03.006.067.006.097 0 .036-.006.073-.006.11v.084c0 .043-.006.08-.006.122q.002.035-.006.078c0 .043-.006.085-.006.134a.2.2 0 0 0-.006.055l-.018.14q.002.026-.007.054c-.006.06-.018.115-.024.176v.012l-.036.17v.018l-.037.164c0 .006-.006.018-.006.024q-.016.083-.042.164v.018q-.029.09-.049.17-.007.01-.006.012l-.054.182c-.025.061-.043.116-.067.176-.025.061-.043.122-.067.176-.024.061-.049.116-.073.176h-.006c-.024.055-.048.116-.079.17l-.018.043c-.006.006-.006.012-.012.018a5.74 5.74 0 0 1-1.706 2.04q-.072.047-.145.102c-.012.013-.03.019-.043.03q-.062.046-.133.092l.018.036h.006l.255-.036h.006q.237-.039.473-.085c.043-.006.091-.018.134-.03l.085-.019c.042-.006.085-.018.127-.024.037-.012.073-.018.11-.03a11.5 11.5 0 0 0 1.76-.583 9.7 9.7 0 0 1-3.77 3.077 10 10 0 0 0 2.07-.358 9.7 9.7 0 0 0 5.735-4.582 9.7 9.7 0 0 1-1.632 3.902 9.6 9.6 0 0 0 1.62-1.347 9.6 9.6 0 0 0 2.555-5.159c.207.96.267 1.948.176 2.925 4.382-6.11.364-12.447-1.317-14.116-.006-.012-.012-.018-.012-.03-.006.006-.006.006-.006.012 0-.006 0-.006-.006-.012q-.001.11-.012.218a8 8 0 0 1-.06.407q-.048.2-.104.4a5 5 0 0 1-.146.389 5 5 0 0 1-.182.37 4.6 4.6 0 0 1-.467.674c-.091.109-.188.206-.285.303a4 4 0 0 1-.176.152l-.14.121a3 3 0 0 1-.34.237 4 4 0 0 1-.358.206q-.191.09-.382.17a4.3 4.3 0 0 1-.801.219c-.14.024-.28.036-.413.048a5 5 0 0 1-.291.012c-.14 0-.28-.012-.413-.024a3 3 0 0 1-.413-.06 3 3 0 0 1-.406-.104h-.006a5 5 0 0 0 .4-.048 4.4 4.4 0 0 0 .801-.219c.134-.048.261-.109.383-.17a4 4 0 0 0 .364-.2q.174-.117.34-.243.163-.128.31-.273c.102-.09.193-.194.285-.297q.136-.165.254-.328c.013-.018.025-.042.037-.06q.092-.147.176-.292a4.2 4.2 0 0 0 .43-1.153c.025-.14.05-.273.061-.407.013-.14.025-.279.025-.412q-.002-.145-.012-.292a8 8 0 0 0-.049-.406 4 4 0 0 0-.091-.407c-.042-.127-.085-.26-.134-.388a4 4 0 0 0-.17-.377c-.066-.12-.133-.242-.206-.358a7 7 0 0 0-.243-.333 13 13 0 0 0-.279-.31c-.048-.048-.103-.103-.158-.152a11 11 0 0 0-.843-.594 1 1 0 0 0-.121-.061 2.4 2.4 0 0 0-.577-.255"/></svg>
