<svg xmlns="http://www.w3.org/2000/svg" width="24" height="24" fill="none" viewBox="0 0 24 24"><desc>Numpy Streamline Icon: https://streamlinehq.com</desc><path fill="#4dabcf" d="m17.458 16.25.005 5.198-4.612 2.302v-5.196zm5.536-2.778v5.216l-3.934 1.964-.003-5.193zm-5.543-4.18.005 5.144-4.605 2.289V11.58zm5.543-2.755v5.112l-3.938 2.002-.004-5.154zm-10.845-.604 4.117 2.078-4.271 2.145-4.04-2.029zm-5.726-2.89 3.927 1.981-4.204 2.194-4.032-2.025zm11.225.03 4.229 2.12-3.782 1.9-4.126-2.081zM12.02.25l3.807 1.909-3.65 1.949-3.924-1.979z"/><path fill="#4d77cf" d="m11.222 11.58-3.107-1.562v6.751s-3.8-8.084-4.151-8.81c-.046-.094-.232-.197-.28-.222-.681-.357-2.678-1.369-2.678-1.369v11.928l2.762 1.476v-6.234s3.76 7.223 3.797 7.302c.038.08.416.84.819 1.108.537.355 2.839 1.74 2.839 1.74z"/></svg>