<svg xmlns="http://www.w3.org/2000/svg" fill="none" viewBox="0 0 24 24" height="24" width="24"><desc>Openapi Icon Streamline Icon: https://streamlinehq.com</desc><path fill="#93d500" d="M6.46 13.763H.26l.003.09q.004.088.01.175l.005.075q.006.102.016.202l.005.045a10 10 0 0 0 .058.488q.107.742.32 1.465l.003.006q.033.114.07.226 0 .007.004.013l.004.014.068.203.018.05q.03.09.064.176l.03.08.056.145.045.109.048.113.06.138.037.082.077.165.026.053q.045.095.093.188l.014.028.114.216.024.041 5.296-3.19.02-.012a4.2 4.2 0 0 1-.388-1.384"/><path fill="#4d5a31" d="m7.984 16.61-.015.014-4.367 4.368.067.063.124.11.064.056.149.126.04.034.17.137.023.018.194.149q.395.294.817.552l.03.018.16.095.1.056a5 5 0 0 0 .264.145l.023.013q.24.124.483.234l.155-.376 2.197-5.335.008-.02q-.361-.192-.686-.458"/><path fill="#6ba43a" d="M7.53 16.174a4 4 0 0 1-.371-.478 5 5 0 0 1-.114-.177l-5.302 3.194q.122.204.253.398l.008.013.003.005.009.014.022.032.001.002q.139.205.285.401l.007.009.006.008a10 10 0 0 0 .283.36l.033.04.127.15.056.063q.054.062.11.123l.062.068.028.03.082.089.034.034.147.15 4.374-4.374a4 4 0 0 1-.144-.154"/><path fill="#4d5a31" d="M13.328 16.607a4 4 0 0 1-.147.113l.011.019 3.19 5.294q.221-.145.436-.3.462-.342.895-.74l-4.368-4.369z"/><path fill="#93d500" d="m15.918 22.076-.108-.18-2.977-4.94q-.09.052-.184.101a4.23 4.23 0 0 1-3.204.329q-.099-.032-.198-.07c-.066-.023-.133-.043-.198-.07l-2.195 5.331-.086.21-.074.178.017.007.018.007.005.002.156.06.196.075.1.038c.688.243 1.4.413 2.123.508l.085.012.089.01.167.018.042.003q.102.01.205.017l.07.005.18.01.11.005.143.005.207.002h.049q.869 0 1.727-.143l.03-.004.18-.033.103-.02.106-.022.177-.04.032-.007a10.5 10.5 0 0 0 2.496-.93l.153-.087q.093-.05.183-.103l.127-.071.001-.001.002-.001h.001l.002-.001.001-.001.007-.005.041-.024zM7.987 10.08q.072-.06.146-.114l-.011-.018-3.19-5.294a9.7 9.7 0 0 0-1.33 1.04l4.367 4.368z"/><path fill="#4d5a31" d="m3.298 5.985-.145.151q-.073.074-.145.152-.485.525-.884 1.095l-.038.055a10 10 0 0 0-.211.319 10.4 10.4 0 0 0-1.616 5.167l-.005.21q-.004.105-.004.21h6.186c0-.07.007-.14.01-.21.004-.07.005-.14.012-.21.08-.806.39-1.593.933-2.253.044-.054.094-.104.141-.156s.09-.106.14-.156zM16.063 4.45l-.026-.016-.164-.098-.096-.054-.097-.054-.168-.09-.026-.015a10.4 10.4 0 0 0-3.48-1.098l-.087-.012-.087-.01-.168-.018-.047-.004-.2-.017-.077-.004-.172-.01-.091-.004v6.201q.479.048.939.205l4.564-4.564a10 10 0 0 0-.517-.339"/><path fill="#6ba43a" d="m10.447 2.94-.21.005q-.656.026-1.307.135l-.029.005-.181.033-.103.02-.106.022-.177.038-.032.007a10.5 10.5 0 0 0-2.496.932q-.077.042-.153.086-.091.05-.183.103l-.136.077h-.001l-.01.006-.036.02.001.001.108.18 3.085 5.12q.09-.053.184-.102.092-.05.188-.094a4.2 4.2 0 0 1 1.804-.412V2.937q-.105 0-.21.004"/><path fill="#4d5a31" d="m21.051 12.832-.01-.167-.005-.083-.016-.196-.005-.051-.025-.237-.001-.008-.031-.236q0-.004-.002-.007a10.4 10.4 0 0 0-.32-1.463l-.002-.009-.069-.223-.01-.03a14 14 0 0 0-.149-.426 6 6 0 0 0-.087-.225l-.045-.112-.047-.11-.061-.14-.036-.08-.078-.167-.025-.051q-.046-.096-.094-.19l-.013-.026q-.054-.106-.11-.208l-.003-.007q-.27-.498-.592-.96l-4.566 4.565a4.3 4.3 0 0 1 .205.939h6.201z"/><path fill="#6ba43a" d="M14.877 13.343q-.002.105-.01.21c-.003.07-.004.14-.011.21a4.2 4.2 0 0 1-.933 2.253c-.044.054-.094.104-.14.156-.048.052-.092.106-.142.156l4.375 4.374q.073-.075.145-.152.073-.075.145-.152.486-.526.886-1.098l.031-.045.096-.141.083-.127.04-.062a10.4 10.4 0 0 0 1.612-5.162l.006-.21.003-.21z"/><path fill="#424143" d="M22.901 1.099a2.898 2.898 0 0 0-4.644 3.336l-6.313 6.313a2.898 2.898 0 1 0 1.308 1.308l6.313-6.313A2.897 2.897 0 0 0 22.9 1.099"/></svg>
