<svg xmlns="http://www.w3.org/2000/svg" fill="none" viewBox="0 0 24 24" height="24" width="24"><desc>Postman Icon Streamline Icon: https://streamlinehq.com</desc><path fill="#ff6c37" d="M23.654 13.492C24.476 7.054 19.93 1.168 13.504.346S1.168 4.07.346 10.496 4.07 22.82 10.496 23.654c6.438.822 12.324-3.724 13.158-10.162"/><path fill="#fff" d="m16.24 7.794-4.957 4.958-1.398-1.398c4.876-4.876 5.357-4.453 6.356-3.56"/><path fill="#ff6c37" d="M11.283 12.87a.1.1 0 0 1-.082-.036l-1.41-1.398a.114.114 0 0 1 0-.164c4.958-4.958 5.475-4.488 6.52-3.548a.1.1 0 0 1 .036.082.1.1 0 0 1-.035.082l-4.958 4.946c-.012.024-.047.035-.07.035m-1.233-1.516 1.233 1.233 4.782-4.781c-.87-.775-1.457-1.01-6.015 3.548"/><path fill="#fff" d="m12.705 14.173-1.351-1.35 4.957-4.958c1.328 1.339-.658 3.512-3.606 6.308"/><path fill="#ff6c37" d="M12.705 14.29a.1.1 0 0 1-.082-.034l-1.351-1.351c-.024-.024-.024-.047-.024-.083 0-.035.012-.058.035-.082l4.958-4.957a.114.114 0 0 1 .165 0c.305.282.47.68.458 1.092-.024 1.304-1.504 2.96-4.065 5.38a.2.2 0 0 1-.094.036m-1.187-1.468c.752.764 1.07 1.07 1.187 1.187 1.974-1.88 3.888-3.806 3.9-5.134a1.25 1.25 0 0 0-.305-.846z"/><path fill="#fff" d="m9.909 11.389.998.999q.036.035 0 .07c-.011.012-.011.012-.023.012l-2.068.446a.206.206 0 0 1-.223-.164.17.17 0 0 1 .047-.153l1.198-1.198c.024-.024.059-.035.07-.012"/><path fill="#ff6c37" d="M8.781 13.034a.306.306 0 0 1-.305-.317.32.32 0 0 1 .094-.224l1.198-1.198a.18.18 0 0 1 .235 0l.998.999c.07.058.07.164 0 .235a.2.2 0 0 1-.082.047l-2.067.446c-.024 0-.047.012-.071.012m1.093-1.516L8.722 12.67c-.023.023-.035.058-.011.094.011.035.047.047.082.035l1.938-.423z"/><path fill="#fff" d="M18.86 5.045a1.897 1.897 0 0 0-2.69.059 1.897 1.897 0 0 0 .06 2.69c.622.6 1.562.705 2.302.259l-1.34-1.34z"/><path fill="#ff6c37" d="M17.545 8.44a2.02 2.02 0 1 1 1.398-3.477.1.1 0 0 1 .035.082.1.1 0 0 1-.035.082l-1.586 1.586 1.245 1.246a.114.114 0 0 1 0 .164l-.023.024c-.306.188-.67.293-1.034.293m0-3.794c-.987 0-1.786.799-1.774 1.785 0 .987.799 1.786 1.786 1.774.27 0 .54-.058.787-.188L17.11 6.796a.1.1 0 0 1-.035-.083c0-.035.012-.058.035-.082l1.575-1.574a1.74 1.74 0 0 0-1.14-.411"/><path fill="#fff" d="m18.896 5.08-.024-.023-1.68 1.656 1.328 1.328c.13-.082.258-.176.364-.282.752-.74.752-1.939.012-2.679"/><path fill="#ff6c37" d="M18.532 8.17a.1.1 0 0 1-.082-.035l-1.34-1.34a.1.1 0 0 1-.035-.082c0-.035.012-.058.035-.082l1.669-1.668a.114.114 0 0 1 .164 0l.035.023c.787.787.787 2.056.012 2.855a2 2 0 0 1-.388.306c-.035.011-.058.023-.07.023m-1.175-1.457L18.544 7.9a1.79 1.79 0 0 0 .317-2.679z"/><path fill="#fff" d="M16.44 8.006a.723.723 0 0 0-1.021 0l-4.43 4.429.74.74 4.688-4.112a.724.724 0 0 0 .07-1.022.2.2 0 0 1-.046-.035"/><path fill="#ff6c37" d="M11.718 13.292a.1.1 0 0 1-.082-.035l-.74-.74a.114.114 0 0 1 0-.165l4.429-4.429a.837.837 0 0 1 1.186 0 .837.837 0 0 1 0 1.187l-.035.035-4.688 4.112q-.017.035-.07.035m-.564-.857.576.575 4.605-4.041a.61.61 0 0 0 .07-.858.61.61 0 0 0-.857-.07.2.2 0 0 1-.047.035z"/><path fill="#fff" d="M7.594 17.475c-.047.023-.07.07-.058.117l.2.846a.224.224 0 0 1-.153.294c-.094.035-.2 0-.259-.07L6.032 17.38l4.217-4.218 1.457.024.987.986c-.235.2-1.656 1.575-5.099 3.302"/><path fill="#ff6c37" d="M7.5 18.849a.32.32 0 0 1-.246-.106l-1.28-1.28a.1.1 0 0 1-.036-.083c0-.035.012-.058.035-.082l4.218-4.217a.13.13 0 0 1 .082-.035l1.457.023c.035 0 .058.012.082.035l.987.987a.13.13 0 0 1 .035.094c0 .035-.012.059-.047.082l-.082.07c-1.246 1.093-2.937 2.186-5.04 3.231l.2.835a.37.37 0 0 1-.177.399.4.4 0 0 1-.188.047M6.208 17.38l1.21 1.199c.035.059.106.082.165.047.058-.035.082-.106.047-.165l-.2-.846a.214.214 0 0 1 .117-.246c2.08-1.046 3.76-2.127 4.993-3.196l-.87-.869-1.35-.024z"/><path fill="#fff" d="m5.033 18.39 1.01-1.01 1.504 1.504-2.396-.164a.187.187 0 0 1-.165-.212c0-.047.012-.094.047-.117"/><path fill="#ff6c37" d="m7.548 18.99-2.409-.165c-.176-.011-.293-.164-.282-.34a.3.3 0 0 1 .094-.188l1.01-1.01a.114.114 0 0 1 .165 0L7.63 18.79a.11.11 0 0 1 .023.13q-.034.07-.105.07m-1.504-1.445-.928.928c-.035.024-.035.082 0 .106.012.011.023.023.047.023l2.08.141zm3.794-3.842a.12.12 0 0 1-.117-.117c0-.035.012-.059.035-.082l1.14-1.14a.114.114 0 0 1 .164 0l.74.74c.036.035.047.07.036.118a.13.13 0 0 1-.094.082l-1.88.4zm1.14-1.092-.775.775 1.268-.27z"/><path fill="#fff" d="m11.706 13.187-1.292.281a.175.175 0 0 1-.164-.293l.716-.717z"/><path fill="#ff6c37" d="M10.39 13.586a.29.29 0 0 1-.293-.294c0-.082.035-.153.082-.211l.717-.717a.114.114 0 0 1 .164 0l.74.74c.035.035.047.07.035.118a.13.13 0 0 1-.094.082l-1.292.282zm.588-.975-.634.634c-.024.024-.024.047-.012.07q.018.036.07.036l1.081-.235zm7.93-6.403c-.024-.07-.106-.105-.177-.082-.07.024-.105.106-.082.176 0 .012.012.024.012.036a.44.44 0 0 1-.047.446.143.143 0 0 0 .012.188.13.13 0 0 0 .188-.024.69.69 0 0 0 .094-.74"/></svg>
