<svg xmlns="http://www.w3.org/2000/svg" fill="none" viewBox="0 0 24 24" height="24" width="24"><desc>Postcss Streamline Icon: https://streamlinehq.com</desc><path fill="#dd3735" d="M23.741 11.388a35 35 0 0 0-.04-.913c-.016-.309-.023-.618-.055-.928-.056-.42-.111-.849-.206-1.261a7 7 0 0 0-.31-.992c-.15-.38-.301-.77-.492-1.134-.31-.587-.714-1.11-1.087-1.658-.245-.35-.563-.635-.8-.992-.136-.206-.334-.38-.532-.54-.318-.253-.65-.483-.984-.705a10 10 0 0 0-.777-.492c-.215-.12-.445-.214-.667-.317-.254-.12-.5-.262-.785-.318-.072-.016-.135-.04-.206-.063-.183-.064-.357-.135-.54-.19-.278-.088-.547-.191-.833-.262a8 8 0 0 0-.849-.16c-.317-.047-.642-.063-.96-.094-.206-.024-.412-.048-.61-.056-.302-.016-.611-.016-.913-.024-.15-.008-.31-.023-.46-.015-.23.007-.46.031-.69.063-.222.024-.444.063-.659.095-.261.032-.523.048-.785.08-.246.031-.5.079-.746.119-.087.015-.174.047-.261.063-.19.04-.39.056-.58.119-.34.103-.682.222-1.015.349-.31.127-.61.262-.904.42-.302.167-.587.365-.873.556-.27.182-.54.373-.801.579-.254.198-.492.42-.722.643-.127.126-.23.277-.35.42-.197.23-.396.452-.586.69-.159.198-.302.405-.452.611-.27.365-.5.754-.714 1.142-.088.159-.167.318-.246.476-.12.238-.246.468-.357.714a3 3 0 0 0-.19.532 50 50 0 0 0-.327 1.174c-.095.349-.119.714-.127 1.07-.008.318.024.628.056.945.008.08-.04.174.055.238.008 0 0 .032-.008.04-.023.047 0 .095.048.11 0 0 .008.009.008.016H.37c-.024.072.056.127.024.207-.008.016.024.047.04.071 0 .024-.008.056 0 .08.008.07.04.142.04.222 0 .055.047.119.063.174.008.024 0 .064-.016.08-.048.055-.04.103.032.134.016.008.04.04.04.056 0 .047-.017.095-.024.143.015.016.023.031.015.047 0 .024-.023.048-.015.064.063.127.087.27.095.412 0 .032.016.064.031.103.008 0 .032 0 .048.008l-.048.143c.04-.024.072-.032.112-.048q.033.156.079.286a.14.14 0 0 0 .047.048c-.008.016-.008.047-.023.055.031.143.047.278.103.413.008 0 .016-.008.024-.008-.024-.143-.04-.294-.064-.437v-.047s.016-.008.024-.008c.008.032.024.071.024.095.063 0 .158.04.222.04.008-.024.016-.056.024-.072-.048-.047-.088-.119-.135-.166.016.063 0 .087 0 .11l-.111-.047c.031-.04.063-.08.11-.127 0-.071-.039-.135-.15-.127.048-.015.095-.04.15-.055q.013.037.025.063c.063-.11-.032-.198-.032-.31.008-.134-.072-.269-.095-.412-.04-.222-.032-.555-.056-.777 0-.016-.024-.032-.04-.048-.008.008-.047.111-.055.12q.038.285.063.57c-.008 0-.016 0-.016.008-.031-.166-.063-.34-.103-.531-.007.055-.015.08-.015.111-.024-.008-.032-.016-.072-.032.032.072.064.12.087.175-.055-.024-.119-.016-.119-.016v.222c-.079-.08-.103-.143-.142-.198-.016-.064-.024-.127-.04-.19l.024-.009c-.008-.031-.024-.055-.024-.079l-.024-.19c.008-.008.04-.016.056-.032l-.064-.095c.064.008.103.016.143.016 0-.016.008-.024 0-.032-.08-.071-.024-.135.008-.198.016-.032.071-.04.087-.072.064-.119.167-.214.167-.365 0-.071.024-.15.031-.222.016-.135.032-.27.04-.404.016-.175 0-.35.04-.516.063-.278.143-.555.23-.833.063-.198.135-.389.214-.587.12-.31.23-.619.38-.912.215-.429.461-.841.699-1.262.15-.262.31-.507.476-.761.159-.246.317-.5.5-.73a6.5 6.5 0 0 1 .84-.897c.318-.285.62-.579.96-.84a9.7 9.7 0 0 1 1.413-.905c.404-.214.825-.38 1.245-.54.27-.102.563-.15.841-.237a3.3 3.3 0 0 1 .968-.159c.214-.008.42-.032.635-.055.19-.016.38-.032.587-.056a.4.4 0 0 0-.04.063c-.087.127-.183.254-.27.381l-.222.318c-.127.166-.262.333-.38.507-.183.262-.35.532-.54.794-.19.253-.397.491-.595.737-.262.341-.508.69-.77 1.032-.238.325-.492.634-.722.96-.206.285-.388.587-.587.88-.293.436-.587.865-.88 1.301-.23.333-.46.659-.698.992-.016.024-.04.032-.064.047-.016.016-.047.032-.047.048-.016.055-.016.111-.04.159q-.093.18-.198.349c-.04.063-.096.119-.143.182-.016-.008-.024-.016-.04-.016.032-.08.167-.127.103-.246-.04.064-.079.12-.119.183l-.095.19c.032.024.087.04.032.087-.024.04-.048.088-.072.127.008 0 .008.008.016.008.024-.031.048-.055.072-.087.008 0 .016.008.024.008-.024.08-.072.15-.112.222-.031.064-.11.111-.166.159.008.008.063.032.071.04.024-.032.032-.016.056-.048.016.024.04-.016.047.008.024-.032.048-.056.056-.08a.3.3 0 0 1 .159-.174q.045-.026.079-.064c.238-.246.484-.483.698-.745.333-.405.635-.825.952-1.238.135-.174.294-.349.436-.515.016.007.032.007.04.015-.016.167-.032.342-.04.508-.024.294-.04.587-.063.889-.008.119 0 .238-.008.357 0 .031-.024.055-.024.087 0 .08.024.166.024.246-.024.293-.056.579-.08.872-.007.064.024.127.04.183a.2.2 0 0 0-.04-.032c0 .46.088.912.016 1.365q.048-.01.048-.032c.008-.056.024-.111.024-.167.008-.047 0-.095 0-.15v-.08c.008-.143.04-.293.024-.436a1.5 1.5 0 0 1 .015-.46c.016-.064-.007-.143.032-.222v.119c-.008.452.008.904-.055 1.356-.008.04.023.111-.064.103-.008 0-.016.04-.031.064-.04.08.047.182-.032.262-.016.015.016.087.024.135 0 .015.008.031 0 .04-.032.055-.032.055.015.063.008.174.024.333.032.5h.024c.103-.302.04-.611.095-.92.008.126.016.253.008.388 0 .206-.008.404-.016.61 0 .04-.008.08-.016.12-.023.11-.031.222-.071.325-.032.08-.016.198-.016.294v.3c0 .009.024.033.024.064.008.072-.032.143-.008.223.008.015-.008.04-.016.055-.008.024-.016.048-.008.071l.024.12q.002.009.016.031.01-.05.008-.063c.135.016.063.135.127.198-.032.016-.056.024-.056.032.008.032.024.055.024.087 0 .071-.008.135-.016.206 0 .183-.008.365-.008.54 0 .024.008.047.008.071 0 .016-.008.032-.008.056v.166h.032q-.022.036-.056.072c-.008 0-.031 0-.031-.008v-1h-.12c-.015.476.024.905-.063 1.349-.095.008-.127.024-.23.024q-.369-.002-.738.008c-.293 0-.579.007-.872.007-.143 0-.294.016-.437.016-.19 0-.388-.023-.579-.023-.293 0-.579.023-.872.031-.215.008-.429.008-.643.016a8 8 0 0 0-.428.032c-.064.008-.12.032-.199.055-.023 0-.079-.008-.127 0-.079.016-.15.064-.23.08-.119.024-.15.055-.135.174v.08a.2.2 0 0 0-.055-.04c-.008 0-.016.008-.016.008.008.024.024.04.032.063.032-.016.071-.055.103-.055h.111c-.016 0-.024.047-.048.087l.143-.056c.008.024.008.056.008.064.111-.008.214-.04.31-.016.309.08.626.111.944.143.206.016.404.024.61.032.294.016.588.031.881.031.246 0 .484-.023.73-.023.341 0 .682.015 1.023.023.072 0 .15-.008.23-.008h.58c.515-.015 1.03-.023 1.546-.04.294-.007.595-.023.889-.03l.904-.025c.35-.008.698-.008 1.04-.016.261 0 .515-.008.777-.015.293-.008.595-.032.888-.048.159-.008.318-.024.476-.04.19-.016.39-.04.58-.047.285-.016.579-.024.864-.04.357-.024.714-.056 1.08-.063.332-.016.673-.008 1.007-.016.293-.008.587-.024.888-.032l.5-.024s.333-.008.5-.024c.285-.016.57-.047.856-.055.183-.008.365 0 .548-.008.293-.008.595-.024.888-.024.111 0 .23.016.373.024-.063.055-.103.087-.15.127a.5.5 0 0 1 .095.04c0 .007-.008.015-.008.031-.04 0-.08.008-.12.008-.015.04-.031.056-.047.135h.143c-.056 0-.103.071-.159.119.008.008.016.008.024.016-.087-.032-.143-.016-.175.071.024.008.04.008.064.008l-.024.08q-.014.02-.016.055l-.024-.024q.002-.024-.007-.047c-.048.047-.12.079-.08.182q-.05.022-.11.056c.007.016.023.031.03.055-.07.008-.142.024-.126.111.032.008.063.024.087.032-.04.016-.08.04-.119.055-.008.016-.016.056-.032.064-.11.024-.047.063-.015.103a.3.3 0 0 1-.072.04q.034.01.056.031c-.024.016-.04.024-.056.032.016.008.04.024.048.024l-.12.095c0 .016 0 .024.009.04-.032.032-.064.063-.095.11-.032.048-.048.112-.088.16-.166.182-.285.396-.5.539a2 2 0 0 0-.222.198c-.142.135-.27.286-.42.413a9 9 0 0 1-.619.468c-.262.182-.523.365-.785.54-.143.095-.302.166-.452.253l-.445.254c-.095.064-.182.15-.285.198-.262.112-.54.207-.81.31-.023.008-.039.016-.063.024-.198.087-.389.182-.587.253a5 5 0 0 1-.563.151c-.064.016-.135 0-.206.008-.135.024-.27.056-.405.072-.349.047-.698.079-1.047.126-.206.024-.405.064-.611.088-.143.008-.294-.008-.436-.008-.103 0-.215.024-.318.008-.166-.024-.333-.064-.5-.096-.04-.007-.095-.023-.126-.007-.064.031-.12-.016-.183 0-.04.007-.08-.024-.119-.024-.032-.008-.071.008-.11 0-.088-.024-.167-.056-.263-.048-.095.008-.19-.04-.293-.063-.143-.032-.278-.064-.42-.095a.7.7 0 0 1-.16-.072c-.015.008-.039.024-.07.024-.136-.024-.27-.032-.397-.08-.111-.04-.215-.095-.334-.079-.031.008-.055-.008-.087-.008-.024-.031-.047-.095-.071-.095-.159.008-.254-.127-.389-.166-.071-.024-.127-.104-.198-.127-.175-.072-.318-.223-.516-.246-.063-.008-.127-.04-.198-.064.024.032.04.056.063.08l-.016.015c-.214-.126-.428-.253-.642-.372-.032-.008-.056-.04-.08-.056l-.214-.143c-.024-.016-.071-.04-.071-.032-.048.056-.095.008-.127-.007-.214-.151-.46-.246-.666-.413-.088-.071-.19-.119-.254-.206a1.25 1.25 0 0 0-.397-.31 5 5 0 0 1-.341-.206c-.056-.04-.111-.087-.111-.174 0-.056-.024-.111-.095-.08-.032-.047-.064-.103-.103-.119-.096-.04-.16-.11-.23-.174-.072-.064-.127-.151-.215-.183-.158-.063-.254-.198-.349-.31-.222-.26-.42-.546-.627-.824-.015-.024-.047-.04-.07-.064l-.009.008c.04.08.08.151.12.23-.009.008-.025.016-.033.024-.047-.055-.103-.11-.15-.166q-.012.014-.024.015l.571.905c.048.071.087.143.135.214a.1.1 0 0 1-.032.024.31.31 0 0 1-.206-.15c-.071-.128-.15-.207-.31-.191a1.4 1.4 0 0 1-.04-.175c-.03 0-.055 0-.11-.008.11.175.206.326.31.5q-.058-.036-.08-.048c.143.151.246.342.428.437.04.182.246.27.294.444l-.111-.024c-.064-.08-.135-.158-.206-.246q.024.084.07.143c.096.12.183.238.294.341.04.04.096.056.096.127a.2.2 0 0 1 .063-.04l-.032.072c.032 0 .056.008.08.008.016.047-.008.119.087.103.008 0 .016.008.024.016.04.103.103.103.19.063.016-.008.056 0 .064.016.04.087.095.095.166.032 0 .04.008.08.008.11h.032c0-.015-.008-.039-.008-.078.04.031.063.047.08.063.079.111.15.214.261.301.15.127.286.262.428.381.278.23.587.42.897.595.38.214.746.445 1.134.65.468.247.968.413 1.484.532.19.04.373.08.563.127.167.048.333.12.5.159.254.055.515.103.77.15.055.009.11.017.174.024v.016c.071 0 .159-.031.174-.008.04.064.072.032.12.024.055-.016.118-.016.182-.016.222.008.436.056.658.04.048 0 .12-.04.159.04.016-.008.024-.016.04-.024.031-.008.071-.008.103-.016v.016c-.016.008-.032.008-.064.016.04.008.064.016.088.023-.016.016-.024.016-.04.024s-.04.016-.071.04c.285.055.555.063.793 0v-.048h.031q.002.024.016.048c.365.032.722-.016 1.063-.135.032.04.056.095.104.016.015-.024.055-.032.087-.04.071-.016.158-.047.222-.023.071.023.095-.04.15-.04.096 0 .183-.008.27-.024.048-.008.096-.032.151-.048 0-.008 0-.015-.008-.023a1 1 0 0 0-.166-.016c.095-.048.182-.088.27-.127 0 .008.007.008.007.016-.024.008-.04.04-.071.04h.11c-.023 0-.055.07-.094.118l.8-.198v-.016c-.03.008-.055.008-.078.016-.008-.167.174-.111.238-.206q-.12.037-.238.063v-.016l.817-.357c0 .008.008.008.008.016-.048.032-.096.056-.167.095.048.008.08.008.103.016q.002.036-.008.048c.135-.008.103-.127.143-.198.024.007.056.023.08.015.07-.015.134-.04.206-.063.079-.024.158-.048.238-.08.127-.055.246-.126.372-.19.024-.008.064 0 .096 0 .023 0 .04-.016.055-.031.032-.024.064-.072.087-.064.111.016.19-.024.223-.127.008 0 .008-.008.015-.008.04-.031.08-.063.12-.087.174-.095.34-.19.515-.286.008-.008.024 0 .04 0 .024 0 .055 0 .071-.008.103-.047.198-.103.294-.158-.024-.008 0-.016-.08-.024v-.016c.08-.016.103-.024.151-.04l-.016-.015c.206-.207.468-.357.667-.532.04.008.055.016.079.016q.01-.038.008-.064c.032-.04.063-.087.103-.119.174-.158.365-.293.524-.46q.347-.345.658-.714c.19-.222.38-.444.54-.69.222-.34.412-.69.61-1.047.143-.254.27-.508.413-.762.016-.023.047-.055.071-.055.214-.024.429-.04.635-.064.047-.007.103-.04.15-.063-.023-.04-.04-.087-.063-.127-.032-.048-.08-.087-.111-.135-.032-.04-.055-.087-.08-.135-.023-.04-.047-.071-.07-.11-.048-.088-.096-.175-.136-.27-.007-.024-.023-.064-.015-.088.142-.31.198-.642.333-.952.135-.317.174-.674.238-1.015.055-.325.087-.65.127-.976.024-.23.055-.452.063-.682.048-.365.032-.706.024-1.047M3.797 20.24c-.055-.063-.103-.135-.158-.198l.023-.024q.132.14.262.293c-.047-.023-.103-.04-.127-.071m.127.071c.024-.007.048-.007.072-.015.023.04.04.087.063.134-.111-.007-.167-.055-.135-.119m8.25 3.277v-.024l.445-.048v.024a4 4 0 0 1-.444.048m2-.207c-.111.024-.23.04-.341.056-.04.008-.088.048-.103-.024-.016.008-.032.008-.048.016.04.12.135.024.214.072-.174.023-.341.04-.508.063v-.016l.151-.024v-.023a2 2 0 0 0-.238-.016c-.024 0-.055.031-.08.04-.031.007-.063.015-.102.015-.135.008-.27.008-.397.016-.008 0-.024-.008-.032-.008v-.024l1.587-.214c.008.016.008.032.016.048-.048 0-.08.016-.12.023m.119-.079c.182-.024.349-.04.523-.063-.365.103-.484.119-.523.063M7.383 7.286c.254-.349.516-.698.77-1.055.079-.103.142-.214.222-.317.023-.032.055-.048.095-.08l-.008-.015c.032-.04.063-.072.08-.103.039-.064.063-.135.094-.207a.1.1 0 0 1 .032-.031c.111.055.111-.064.15-.104.072-.079.144-.166.207-.245.048-.064.095-.12.135-.19.008-.025-.016-.064-.024-.096h-.023c.023-.016.047-.04.07-.056.009 0 .009 0 .017-.007q.07-.11.143-.207c.095-.127.198-.254.309-.365-.016.04-.032.08-.048.111.008 0 .008.008.016.008.095-.127.199-.246.294-.373-.008-.007-.016-.015-.024-.015-.04.04-.072.079-.111.119q-.012-.014-.024-.016c.08-.103.159-.206.238-.326.016.024.032.056.063.12.032-.08.064-.135.088-.19-.024.023-.056.047-.08.07l-.023-.023.142-.214c.151-.215.302-.437.453-.651.055-.08.127-.143.174-.222.15-.302.389-.54.571-.817.04-.056.095-.103.143-.151.04-.048.072-.032.103.008.214.27.429.547.643.817.158.198.317.389.468.595.182.254.357.508.54.762.206.293.412.587.61.888.302.444.587.889.889 1.333.222.325.444.642.658.968h-.405c-.372-.008-.753-.04-1.126-.024-.508.024-1.023.08-1.531.119a23 23 0 0 1-1.936.063c-.23 0-.46.032-.69.048-.278.016-.547.032-.825.04a45 45 0 0 1-.968.031c-.182.008-.373 0-.57 0m9.1 3.65v.071c-.009 0-.017.008-.033.008-.031-.111-.063-.23-.103-.341a2.7 2.7 0 0 0-.309-.667c-.159-.222-.301-.452-.46-.682-.04-.055-.095-.103-.143-.15-.166-.183-.333-.373-.547-.508a6.5 6.5 0 0 0-.992-.508 2 2 0 0 1-.278-.143h.19l1.357-.024c.294-.008.58-.008.873-.023.071 0 .111.023.15.087q.106.179.223.357c.008.016.024.04.024.063 0 .175 0 .357.008.532.008.182.023.357.031.54 0 .182-.016.372-.008.562.008.27.016.548.016.826M7.945 8.278c.373-.016.73-.04 1.095-.056.286-.015.58-.023.865-.04.119-.007.23-.015.349 0a3 3 0 0 0-.365.207c-.143.095-.278.222-.42.325a2.4 2.4 0 0 0-.39.365c-.15.183-.317.341-.475.516-.111.127-.238.246-.333.38-.135.175-.254.366-.381.564.04-.754.087-1.5.055-2.261m5.18 7.632c-.253.063-.515.134-.777.166-.222.032-.452.024-.682.024-.206 0-.405-.008-.611-.024-.23-.024-.46-.047-.682-.15-.19-.088-.389-.167-.58-.262-.19-.096-.38-.207-.523-.381-.103-.127-.246-.23-.373-.341q.036.144.167.23c-.04.047-.095.024-.175-.103-.023.015-.047.023-.063.031q.036-.084.071-.158c-.031-.064-.071-.135-.103-.199a7 7 0 0 1-.182-.317c-.016-.024-.016-.048-.032-.071-.04-.048-.08-.096-.111-.143-.064-.095-.12-.198-.198-.294 0 .024.007.048.007.08-.007 0-.015.008-.015.008l-.167-.405c-.008 0-.008 0-.016.008l.143.524c-.008 0-.016.008-.024.008q-.037-.046-.063-.104c-.016-.063-.064-.063-.103-.04-.024.017-.04.072-.032.096.055.135.119.27.182.405a1 1 0 0 0 .056.134c.008.016.032.032.032.056.031.063.055.127.095.182.071.096.15.19.222.286.071.095.135.198.198.293.008.016.032.016.04.024.04.12.174.206.27.159.023.182.222.246.301.42a4 4 0 0 1-.23-.103c-.008.008-.008.016-.016.032.095.048.19.095.278.15q.12.07.23.151a.73.73 0 0 0 .341.167q-.014-.034-.016-.032c.222.103.452.214.627.302-.825.016-1.706.031-2.618.047 0-.15-.008-.293-.008-.444 0-.063.016-.119.008-.182-.024-.365-.024-.73-.071-1.087a8 8 0 0 1-.04-1.135c.008-.206-.008-.42-.016-.626 0-.278 0-.548.008-.825 0-.04.016-.072.032-.111h.023c.008.015 0 .04.016.047.024.024.064.064.08.056.047-.032.119-.064.134-.111a.8.8 0 0 0 .056-.294c0-.071.032-.119.063-.167.016-.023.024-.047.04-.079-.032-.024-.063-.04-.103-.071.032-.087.024-.19.143-.238.016-.008.016-.048.024-.072l.023-.198a.3.3 0 0 0 .04.048.1.1 0 0 1 .016-.024c0-.032-.008-.095 0-.095.095-.016.055-.12.103-.167.008-.008-.008-.032-.008-.047 0-.016 0-.04.008-.04.111-.024.095-.143.167-.199.023-.015.031-.04.063-.079.064.111-.047.167-.055.246.134-.08.174-.27.095-.325a.5.5 0 0 0 .087-.087c.087-.096.183-.183.262-.278.055-.072.087-.159.143-.23a.5.5 0 0 1 .142-.095c.143-.08.278-.167.365-.302a.4.4 0 0 1 .064-.047c.024-.016.071-.016.08-.04.007-.016-.017-.056-.033-.08.032-.015.064-.047.127-.079-.023.048-.031.08-.047.111l.04.04c.07-.056.182-.119.253-.167 0-.008-.04-.04-.04-.04-.047.025-.118.064-.19.096.016-.024.016-.04.024-.048.111-.071.222-.142.341-.198q.416-.192.833-.373c.048-.024.111-.008.167-.008.023 0 .04 0 .063-.008q.19-.062.381-.11a.7.7 0 0 1 .174-.025c.238.008.476.008.714.024.104.008.199.032.294.064.119.04.246.095.357.15q.2.108.389.238c.23.151.444.318.674.453.222.134.397.317.54.523.174.246.372.468.452.77l.119.523c.023.095.079.19.055.302-.04.198-.071.404-.103.603-.016.079-.032.158-.024.238.016.246-.08.46-.174.682-.032.071-.08.143-.12.222a.2.2 0 0 0 .064.032l.072-.143c.007 0 .007 0 .015.008-.04.11-.071.23-.11.341-.096.246-.191.5-.31.738-.064.135-.175.246-.254.373-.08.11-.143.23-.222.333a1.1 1.1 0 0 1-.238.238 6 6 0 0 1-.666.444c-.143.087-.31.135-.468.175m-4.228-.42-.008.007c-.016-.008-.04-.016-.055-.032l-.19-.285q-.026-.034-.016-.08c.087.135.174.262.27.39m4.935 1.086c.357-.15.65-.365.92-.61.04-.04.08-.08.127-.112.333-.206.579-.492.801-.81.254-.364.42-.777.627-1.165a1 1 0 0 1 .047-.088c-.015.905.088 1.793.207 2.69zm8.044-.238c-.008.016-.024.032-.032.048-.008-.016-.008-.04-.016-.072-.047.127-.15.064-.222.064-.428.008-.865.008-1.293.008-.413 0-.833 0-1.246.007-.134 0-.277.032-.412.04q-.487.022-.976.032c-.024 0-.047-.04-.087-.072l-.048.072c-.008-.016-.024-.032-.04-.056l-.023.064h-.024c-.016-.111-.048-.214-.048-.325 0-.238.024-.476.032-.714.008-.111 0-.215 0-.318l.087.064q.024-.046.048-.08s-.016-.008-.032-.023c.016-.008.032-.024.032-.032.008-.024.024-.048.024-.064 0-.055-.016-.103-.024-.15q.012.002.024-.008l.047.238h.024c-.031-.056.072-.103-.016-.167-.008-.008.008-.055.008-.08a2 2 0 0 1-.063-.158.2.2 0 0 1 .055-.024q-.045-.025-.079-.04c.08-.07.08-.11.008-.19.016-.008.032-.008.032-.016 0-.071 0-.142-.016-.214-.016-.08.024-.174-.095-.222a.2.2 0 0 0 .031.064s-.023.007-.047.023c-.103-.095-.04-.222-.064-.365.056.016.095.032.135.048-.016-.055-.055-.119-.08-.19h-.03v-.524c0 .008.055.008.086.016 0-.008.008-.016.008-.024-.024-.032-.055-.063-.087-.103l.016-.016c-.064-.08-.032-.19-.032-.214v-.555c.08.079-.04.182.08.23v-.08h-.008c-.008-.119-.008-.238-.016-.357h-.016c-.008.016-.008.024-.016.04h-.016l.048-1.896c.079.103.166.198.222.301.182.334.42.62.642.92.19.263.365.548.54.818.214.325.42.65.635.976.158.246.325.491.491.73.151.214.31.42.468.626.135.183.278.365.413.548.159.222.317.444.476.658q.121.167.254.333c.047.064.119.111.166.15q-.01.002-.031-.007.033.047.055.071c.087.048.095.096.048.167m.404-1.983v-.056c0 .016.008.04 0 .056m.27-3.499a.4.4 0 0 1-.063-.055c-.008.023 0 .047-.016.079-.008-.024-.064-.016-.064-.04-.008.111.048.223.04.334.024-.016.119-.024.143-.048a.06.06 0 0 0 .031.016c-.158.119-.119.238-.047.373.016.031.063.095.016.158-.016.016.008.064.016.104h.023v.015l-.071.024c-.016-.024-.111-.071-.111-.11v.404c.08.023.08.134.111.19a.2.2 0 0 0 .032-.063l.008.007a1 1 0 0 1-.032.143c-.016.072-.032.135-.04.207 0 .007.016.023.016.031-.087.199-.04.42-.071.627-.024.15 0 .31-.016.468a4 4 0 0 1-.08.413c-.007.023-.023.031-.063.047a.6.6 0 0 0-.008-.246c-.008 0-.111-.055-.119-.055 0 .11.064.262.087.388-.023-.007-.119-.063-.127-.063-.015.095-.015.222-.023.325-.008.08-.08.15-.088.238 0 .048.056.08.048.159h.063c0-.159.072-.302.072-.468h.024c.008.016.031.032.023.04-.015.087-.047.182-.04.27 0 .047.04.094.025.15a1 1 0 0 0-.032.166c-.008-.04-.016-.055-.016-.079l-.087-.008c-.008.048.055.095.047.135-.008.008-.016.008-.031.016l-.262-.38a91 91 0 0 1-.619-.913 2 2 0 0 1-.143-.238c-.246-.42-.515-.825-.817-1.214-.23-.293-.412-.61-.627-.92-.198-.294-.396-.58-.595-.873-.071-.095-.158-.182-.222-.285-.206-.326-.388-.659-.595-.984-.174-.27-.365-.531-.547-.793a9 9 0 0 1-.19-.278.1.1 0 0 1-.016-.055 12 12 0 0 1-.04-.516c0-.159.016-.317.016-.484v-.143c0-.04.008-.071.008-.11.008-.009.016-.025.024-.033-.23 0-.468-.008-.699 0-.15.008-.23-.055-.333-.166-.301-.341-.523-.73-.785-1.095-.246-.349-.5-.69-.754-1.031-.206-.278-.412-.548-.618-.825-.23-.318-.453-.635-.69-.952-.286-.381-.58-.762-.873-1.143-.135-.174-.286-.34-.437-.523.104.016.199.032.294.04l.38.023c.286.024.572.04.857.08.239.031.476.079.722.119.524.087 1.04.23 1.54.396.293.095.579.222.864.341.643.262 1.254.58 1.856.913.19.103.302.27.445.42.206.214.412.428.61.65.23.262.445.532.667.802.198.238.405.476.603.714.063.071.11.158.166.238.127.19.27.373.381.579.08.15.127.325.183.492.079.246.158.484.238.73q.083.275.142.563c.032.127.024.262.064.389.048.166 0 .349.048.515.007.016.015.04.023.056.032.032.056.063.008.11-.008.009-.008.04 0 .064.016-.016.024-.031.04-.055 0 .016.008.024.008.031 0 .032-.008.064 0 .096 0 .016.016.04.024.055.015-.016.031-.024.063-.047.071.27.08.539.08.817 0 .262.047.523-.064.777.024-.087-.032-.166-.008-.246"/><path fill="#dd3735" d="M17.508 13.967c.008 0 .016.008.016.008l-.008-.008q.002-.012-.008 0m1.253 7.838a.75.75 0 0 1-.285.143c-.008-.008-.008-.016-.016-.024.087-.056.182-.111.27-.167.008.016.023.032.031.048M3.887 11.055c.087-.11.174-.221.27-.332.008.007.071.023.079.031-.087.111-.206.262-.293.381-.016-.016-.04-.071-.056-.08m-2.253 3.888c-.064-.135-.127-.278-.19-.413a.3.3 0 0 1 .07-.031c.088.127.128.277.191.412 0 0-.063.032-.071.032m2.023-3.808c-.048.071-.095.15-.143.222-.008-.008-.095.032-.103.024.048-.071.167-.198.214-.27a.1.1 0 0 0 .032.024M17.913 22.13c.008 0 .008-.008.015-.008.056.008.12.016.183.016-.103.072-.167.064-.198-.008M3.673 11.468q.014-.035.04-.071c.015 0 .04-.008.04-.008.03-.056.03-.095.063-.143-.008-.008-.016-.008-.024-.016-.048.032-.095.072-.143.103.016.016.016.024.016.04-.064-.008-.087.024-.12.111-.007.024-.047.032-.086.064-.008.015-.016.055-.032.095l.008.008c-.016.015-.04.023-.04.023-.048.048-.103.088-.15.135a.2.2 0 0 0-.017.072c.056-.056.151-.159.223-.222l.008.007c.031-.047.055-.095.087-.142.008.008.008.016.016.024-.024.063-.048.134-.072.198-.016.008-.04.024-.04.016-.031.024-.055.055-.087.08l-.142.094c-.08.072-.16.135-.246.207-.056.087-.111.166-.175.27.095-.025.12.015.111.094.111.016.12-.071.15-.134.009-.016.017-.048.033-.056.071-.063.15-.119.23-.182.016-.016.016-.048.016-.072 0-.008-.04-.008-.064-.016.071-.079.175-.214.246-.301.04-.024.08-.056.08-.08-.009-.087.047-.11.11-.142-.031-.024-.04-.048-.04-.056"/><path fill="#dd3735" d="M3.831 11.381c-.031.056-.063.103-.095.159l-.048-.024c-.031.182-.142.341-.253.373.031.016.063.032.087.024s.04-.048.055-.072l.215-.31.071-.118zM1.19 14.864c.04 0 .079.008.126.008 0-.032.04-.024.04-.056h.024c0 .04.008.071.008.111H1.22c-.008-.008-.04-.055-.031-.063m-.064-.365c-.024-.024-.063-.048-.063-.072-.008-.031.015-.071.04-.11.015.055.023.102.039.158-.008.008-.016.016-.016.024m.198-.508c.032.08.064.167.096.246a.2.2 0 0 0-.064.032c-.032-.08-.071-.167-.103-.246a.2.2 0 0 1 .071-.032m17.66 7.584c.039-.016.087-.024.15-.04-.071.056-.127.096-.174.143-.008-.008-.016-.016-.024-.016.016-.031.031-.055.047-.087M9.233 4.813c.047-.032.087-.056.135-.088l.015.016c-.047.064-.087.127-.142.206-.008-.055-.008-.087-.016-.127-.008 0 0 0 .008-.007m2.324 4.014.23-.103c-.008.047-.008.079-.008.11a.3.3 0 0 0-.08-.015c-.047.008-.134.071-.174.079-.008 0 .032-.063.032-.071m5.95 6.727c.016.08.166.119.016.198.023.016.047.024.071.04a.06.06 0 0 1-.016.032c-.016.008-.047.023-.063.015-.008 0-.024-.031-.024-.047 0-.072.008-.143.016-.238"/></svg>
