<svg xmlns="http://www.w3.org/2000/svg" fill="none" viewBox="0 0 24 24" height="24" width="24"><desc>Prettier Streamline Icon: https://streamlinehq.com</desc><path fill="#56b3b4" d="M18.815 4.726h-1.32a.46.46 0 0 0-.46.46v.2c0 .254.206.46.46.46h1.32a.46.46 0 0 0 .459-.46v-.2a.46.46 0 0 0-.46-.46"/><path fill="#ea5e5e" d="M6.505 22.631H.71a.46.46 0 0 0-.459.459v.201c0 .254.205.459.459.459h5.796a.46.46 0 0 0 .46-.459v-.201a.46.46 0 0 0-.46-.459"/><path fill="#bf85bf" d="M17.696 13.678h-3.559a.46.46 0 0 0-.459.46v.2c0 .254.206.46.46.46h3.558a.46.46 0 0 0 .459-.46v-.2a.46.46 0 0 0-.46-.46"/><path fill="#ea5e5e" d="M12.1 13.678H7.424a.46.46 0 0 0-.459.46v.2c0 .254.206.46.46.46H12.1a.46.46 0 0 0 .459-.46v-.2a.46.46 0 0 0-.46-.46"/><path fill="#56b3b4" d="M5.386 13.678H.71a.46.46 0 0 0-.459.46v.2c0 .254.205.46.459.46h4.677a.46.46 0 0 0 .46-.46v-.2a.46.46 0 0 0-.46-.46"/><path fill="#bf85bf" d="M6.505 18.155H.71a.46.46 0 0 0-.459.459v.2c0 .254.205.46.459.46h5.796a.46.46 0 0 0 .46-.46v-.2a.46.46 0 0 0-.46-.46m-.001-8.952H.71a.46.46 0 0 0-.459.46v.2c0 .254.205.46.459.46h5.796a.46.46 0 0 0 .46-.46v-.2a.46.46 0 0 0-.46-.46"/><path fill="#f7ba3e" d="M17.696 2.488H6.304a.46.46 0 0 0-.459.459v.201c0 .254.206.46.46.46h11.39a.46.46 0 0 0 .46-.46v-.201a.46.46 0 0 0-.46-.459"/><path fill="#ea5e5e" d="M4.267 2.488H.71a.46.46 0 0 0-.459.459v.201c0 .254.205.46.459.46h3.558a.46.46 0 0 0 .46-.46v-.201a.46.46 0 0 0-.46-.459"/><path fill="#f7ba3e" d="M6.505 20.393h-1.32a.46.46 0 0 0-.459.459v.2c0 .254.206.46.46.46h1.32a.46.46 0 0 0 .458-.46v-.2a.46.46 0 0 0-.459-.46"/><path fill="#56b3b4" d="M6.505 6.964h-1.32a.46.46 0 0 0-.459.46v.2c0 .254.206.46.46.46h1.32a.46.46 0 0 0 .458-.46v-.2a.46.46 0 0 0-.459-.46M3.148 20.393H.71a.46.46 0 0 0-.459.459v.2c0 .254.205.46.459.46h2.44a.46.46 0 0 0 .458-.46v-.2a.46.46 0 0 0-.459-.46"/><path fill="#f7ba3e" d="M3.148 6.964H.71a.46.46 0 0 0-.459.46v.2c0 .254.205.46.459.46h2.44a.46.46 0 0 0 .458-.46v-.2a.46.46 0 0 0-.459-.46"/><path fill="#d0d4d8" d="M16.577 20.393h-1.32a.46.46 0 0 0-.46.459v.2c0 .254.206.46.46.46h1.32a.46.46 0 0 0 .459-.46v-.2a.46.46 0 0 0-.46-.46m-3.356.001H8.542a.46.46 0 0 0-.459.459v.2c0 .254.206.46.46.46h4.677a.46.46 0 0 0 .458-.46v-.2a.46.46 0 0 0-.459-.46m10.072.001h-4.677a.46.46 0 0 0-.46.459v.2c0 .254.206.46.46.46h4.677a.46.46 0 0 0 .459-.46v-.2a.46.46 0 0 0-.459-.46" opacity=".5"/><path fill="#56b3b4" d="M18.815 11.44H9.66a.46.46 0 0 0-.459.46v.2c0 .254.206.46.46.46h9.153a.46.46 0 0 0 .459-.46v-.2a.46.46 0 0 0-.46-.46"/><path fill="#f7ba3e" d="M7.624 11.44H4.066a.46.46 0 0 0-.459.46v.2c0 .254.206.46.459.46h3.558a.46.46 0 0 0 .46-.46v-.2a.46.46 0 0 0-.46-.46"/><path fill="#ea5e5e" d="M2.03 11.44H.708a.46.46 0 0 0-.459.46v.2c0 .254.205.46.459.46h1.32a.46.46 0 0 0 .46-.46v-.2a.46.46 0 0 0-.46-.46"/><path fill="#bf85bf" d="M15.458 4.726H10.78a.46.46 0 0 0-.459.46v.2c0 .254.206.46.46.46h4.677a.46.46 0 0 0 .459-.46v-.2a.46.46 0 0 0-.46-.46"/><path fill="#56b3b4" d="M8.743 4.726H.71a.46.46 0 0 0-.459.46v.2c0 .254.205.46.459.46h8.034a.46.46 0 0 0 .46-.46v-.2a.46.46 0 0 0-.46-.46"/><path fill="#f7ba3e" d="M14.339 15.917H4.066a.46.46 0 0 0-.459.459v.2c0 .254.206.46.46.46h10.272a.46.46 0 0 0 .459-.46v-.2a.46.46 0 0 0-.46-.46"/><path fill="#bf85bf" d="M2.03 15.917H.708a.46.46 0 0 0-.459.459v.2c0 .254.205.46.459.46h1.32a.46.46 0 0 0 .46-.46v-.2a.46.46 0 0 0-.46-.46"/><path fill="#ea5e5e" d="M19.934 6.964h-5.797a.46.46 0 0 0-.459.46v.2c0 .254.206.46.46.46h5.796a.46.46 0 0 0 .459-.46v-.2a.46.46 0 0 0-.46-.46"/><path fill="#f7ba3e" d="M19.934 9.202h-5.797a.46.46 0 0 0-.459.46v.2c0 .254.206.46.46.46h5.796a.46.46 0 0 0 .459-.46v-.2a.46.46 0 0 0-.46-.46"/><path fill="#56b3b4" d="M14.339.25H.709A.46.46 0 0 0 .25.709V.91c0 .254.205.459.459.459h13.63a.46.46 0 0 0 .459-.459v-.2a.46.46 0 0 0-.46-.459"/><path fill="#d0d4d8" d="M23.29.25h-6.914a.46.46 0 0 0-.46.459V.91a.46.46 0 0 0 .46.459h6.915A.46.46 0 0 0 23.75.91v-.2a.46.46 0 0 0-.46-.459m-4.475 15.666h-2.44a.46.46 0 0 0-.458.459v.2c0 .254.205.46.459.46h2.439a.46.46 0 0 0 .459-.46v-.2a.46.46 0 0 0-.46-.46m4.477.001h-2.44a.46.46 0 0 0-.458.459v.2c0 .254.205.46.459.46h2.439a.46.46 0 0 0 .459-.46v-.2a.46.46 0 0 0-.459-.46m0-2.238h-3.558a.46.46 0 0 0-.46.46v.2c0 .254.206.46.46.46h3.558a.46.46 0 0 0 .459-.46v-.2a.46.46 0 0 0-.459-.46m0-11.19h-3.558a.46.46 0 0 0-.46.459v.201c0 .254.206.46.46.46h3.558a.46.46 0 0 0 .459-.46v-.201a.46.46 0 0 0-.459-.459m0 8.952h-2.44a.46.46 0 0 0-.458.46v.2c0 .254.205.46.459.46h2.439a.46.46 0 0 0 .459-.46v-.2a.46.46 0 0 0-.459-.46m0-6.714h-2.44a.46.46 0 0 0-.458.46v.2c0 .254.205.46.459.46h2.439a.46.46 0 0 0 .459-.46v-.2a.46.46 0 0 0-.459-.46m0 2.238h-1.32a.46.46 0 0 0-.459.46v.2c0 .254.205.46.459.46h1.32a.46.46 0 0 0 .459-.46v-.2a.46.46 0 0 0-.459-.46m0 2.238h-1.32a.46.46 0 0 0-.459.46v.2c0 .254.205.46.459.46h1.32a.46.46 0 0 0 .459-.46v-.2a.46.46 0 0 0-.459-.46m-.001 8.953H13.019a.46.46 0 0 0-.459.459v.2c0 .254.206.46.46.46h10.27a.46.46 0 0 0 .459-.46v-.2a.46.46 0 0 0-.46-.46m-12.308.001H8.542a.46.46 0 0 0-.459.459v.2c0 .254.206.46.46.46h2.438a.46.46 0 0 0 .46-.46v-.2a.46.46 0 0 0-.46-.46m12.309 4.477h-5.795a.46.46 0 0 0-.46.459v.201a.46.46 0 0 0 .46.459h5.796a.46.46 0 0 0 .459-.459v-.201a.46.46 0 0 0-.46-.459m-7.832 0H8.542a.46.46 0 0 0-.459.459v.201a.46.46 0 0 0 .46.459h6.915a.46.46 0 0 0 .459-.459v-.201a.46.46 0 0 0-.46-.459M12.1 6.964H8.542a.46.46 0 0 0-.459.46v.2c0 .254.206.46.46.46H12.1a.46.46 0 0 0 .46-.46v-.2a.46.46 0 0 0-.46-.46m0 2.238H8.542a.46.46 0 0 0-.459.46v.2c0 .254.206.46.46.46H12.1a.46.46 0 0 0 .46-.46v-.2a.46.46 0 0 0-.46-.46" opacity=".5"/></svg>
