<svg xmlns="http://www.w3.org/2000/svg" width="24" height="24" fill="none" viewBox="0 0 24 24"><desc>Prisma Streamline Icon: https://streamlinehq.com</desc><path fill="#000" d="M21.602 18.154 13.52.99a1.3 1.3 0 0 0-1.104-.738 1.28 1.28 0 0 0-1.18.612L2.47 15.062c-.272.438-.266.993.015 1.425l4.285 6.636c.333.512.963.744 1.548.57l12.436-3.679c.38-.11.691-.38.856-.739.163-.357.16-.767-.007-1.122zm-1.81.736L9.24 22.01a.443.443 0 0 1-.564-.508l3.77-18.053c.07-.338.537-.391.684-.079l6.98 14.822a.504.504 0 0 1-.318.698"/></svg>