<svg xmlns="http://www.w3.org/2000/svg" width="24" height="24" fill="none" viewBox="0 0 24 24"><desc>Prometheus Streamline Icon: https://streamlinehq.com</desc><path fill="#da4e31" d="M12 .25C5.511.25.25 5.51.25 12c0 6.489 5.261 11.75 11.75 11.75S23.75 18.489 23.75 12C23.75 5.51 18.489.25 12 .25m0 21.991c-1.846 0-3.343-1.233-3.343-2.754h6.686c0 1.52-1.497 2.754-3.343 2.754m5.522-3.666H6.478v-2.003h11.044zm-.04-3.034H6.51q-.055-.062-.109-.126c-1.13-1.373-1.397-2.09-1.655-2.82-.005-.024 1.37.281 2.346.5 0 0 .502.117 1.235.25-.704-.825-1.122-1.875-1.122-2.947 0-2.356 1.806-4.414 1.154-6.078.635.052 1.313 1.34 1.359 3.351.674-.931.956-2.633.956-3.677 0-1.08.712-2.335 1.424-2.378-.634 1.046.165 1.943.875 4.168.267.836.233 2.242.438 3.134.069-1.853.387-4.555 1.562-5.488-.518 1.175.077 2.645.484 3.352.657 1.14 1.055 2.004 1.055 3.639a4.55 4.55 0 0 1-1.087 2.933c.776-.145 1.311-.277 1.311-.277l2.52-.491s-.366 1.505-1.773 2.955"/></svg>