<svg xmlns="http://www.w3.org/2000/svg" fill="none" viewBox="0 0 24 24" height="24" width="24"><desc>Typeorm Streamline Icon: https://streamlinehq.com</desc><path fill="#8e8f8f" d="M12.976 4.306a.52.52 0 0 1 .52.507v5.965a.52.52 0 0 1-.507.52H8.122a.52.52 0 0 1-.52-.506V4.826a.52.52 0 0 1 .507-.52zm0 .231H8.122a.29.29 0 0 0-.29.278v5.963a.29.29 0 0 0 .28.29h4.864a.29.29 0 0 0 .289-.28V4.827a.29.29 0 0 0-.29-.289m-4.16 5.317v.346h-.348v-.346zm3.871 0v.346H8.989v-.346zM8.815 8.35v.347h-.347V8.35zm3.872 0v.347H8.989V8.35zM8.815 6.906v.347h-.347v-.347zm3.872 0v.347H8.989v-.347zm0-1.329v.347H8.468v-.347zm.289 6.934v.004a.52.52 0 0 1 .52.503v5.966a.52.52 0 0 1-.507.52H8.122a.52.52 0 0 1-.52-.504v-5.968a.52.52 0 0 1 .507-.52zm0 .232H8.122a.29.29 0 0 0-.29.278v5.963a.29.29 0 0 0 .28.29h4.864a.29.29 0 0 0 .289-.278v-5.963a.29.29 0 0 0-.279-.288h-.01zm-4.16 5.318v.347h-.348v-.347zm3.871.003v.341H8.989v-.341zm-3.872-1.506v.347h-.347v-.347zm3.872.003v.342H8.989v-.342zm-3.872-1.447v.346h-.347v-.346zm3.872.003v.34H8.989v-.34zm0-1.332v.347H8.468v-.347zm1.689-5.984v.289h1.733v7.851h-1.733v.29h2.022v-8.43z"/><path fill="#fe0902" d="M2.025 2.705c.341-.56.904-.888 1.473-1.077l.078-.025.077-.024.116-.032.077-.02.038-.009.076-.017.038-.008.075-.016.075-.014.073-.012.072-.012.071-.01.07-.01.068-.008.067-.008.065-.006.094-.008.09-.007.084-.005.092-.004.084-.002h.051l.048-.001h.1l.031.001.059.002.025.001v1.388c-1.227-.117-1.774.254-2.016.649l-.021.037a1 1 0 0 0-.078.166l-.013.037-.006.018-.011.035-.01.036-.009.034-.004.017-.007.034-.003.016-.005.032-.005.031-.004.03-.004.044-.003.04-.001.032-.001.029v.051l.001.02.002.026.003.03v.51l-.003 1.041-.004.75-.004.63-.005.534-.004.42-.006.408-.005.349-.007.369-.004.192-.005.182-.006.202-.002.064v.117l-.001.072v.048l-.003.073-.003.071-.002.043-.003.044-.003.043-.007.065-.005.044-.005.044-.007.044-.003.022-.008.043-.004.022-.01.044-.01.043-.01.044-.013.043-.014.043-.014.043-.016.042c-.178.46-.58.868-1.491 1.058.886.184 1.291.575 1.476 1.019l.017.042.044.129.012.043.02.087.01.044.004.022.008.044.006.044.007.044.005.043.004.044.004.044.004.043.004.066.002.043.002.072.001.048v.047l.002.07v.117l.006.203.005.215.006.23.004.244.005.298.007.494.005.418.002.235.005.6.005.892.004.965h.001v.855l-.001.012-.002.019v.016l-.002.03v.081l.001.03.003.04.003.029.005.044.005.03.005.032.006.033.004.017.008.033.004.017.01.035.01.035.007.018.012.036.014.036.016.036c.193.433.701.9 2.016.792l.072-.006v1.387l-.037.002-.068.002-.056.001h-.117l-.054-.001-.058-.002-.076-.003-.053-.003-.055-.003-.058-.004-.059-.005-.061-.005-.063-.006-.065-.007-.066-.008-.067-.01-.034-.004-.07-.01-.034-.006-.071-.012-.036-.007-.072-.014-.037-.007-.073-.016-.074-.017-.075-.018-.074-.02c-.688-.187-1.41-.558-1.782-1.284.08-.892.448-1.653 1.107-2.126q.045-.034.094-.064l.036-.023a2 2 0 0 0-.131.087c-.658.473-1.025 1.234-1.106 2.123a2.44 2.44 0 0 1-.253-1.074l-.009-.383-.01-.464-.014-.542-.018-.692-.017-.6-.023-.786-.026-.841-.044-1.324-.01-.307c-.026-.695-.305-1.034-.595-1.197l-.035-.019-.017-.008-.034-.016-.034-.015-.034-.013-.033-.012-.034-.011-.032-.01-.026-.006-.026-.007-.025-.005-.025-.005-.035-.006-.024-.004-.022-.003-.033-.003H.25v-1.626q.112.003.21-.002l.033-.004.022-.003.024-.003.035-.006.025-.005.025-.006.026-.006.026-.007.032-.01.034-.01.033-.012c.338-.126.718-.45.749-1.268l.04-1.176.03-.96.016-.546.026-.874.016-.609.012-.463.015-.62.01-.386.006-.306c.01-.481.129-.872.317-1.19zm16.582.034V1.352l.037-.002.052-.002h.034l.059-.001h.095l.076.002.098.003.052.003.054.003.086.006.06.005.06.005.063.007.065.007.066.008.067.009.068.01.07.01.035.007.071.013.072.014.073.015.073.016.074.018.112.029.074.021c.699.205 1.417.605 1.754 1.38.129.302.196.627.198.956l.009.383.01.464.008.31.012.464.016.612.013.448.023.786.026.841.044 1.324.01.307c.026.707.314 1.045.61 1.205l.034.018.017.008.034.016.034.014.017.006.033.012.017.006.033.01.016.005.049.012.031.007.03.006.03.005.024.004.022.003.033.003q.084.005.178.004l.032-.001v1.626a2 2 0 0 0-.21.002l-.022.003-.022.002-.035.005-.035.006-.025.005-.025.006-.026.006-.026.007-.016.004-.033.01-.017.006-.033.012-.017.007-.034.014c-.324.139-.669.47-.698 1.247l-.04 1.176-.03.96-.016.545-.026.875-.016.608-.012.464-.015.62-.01.385-.006.306c-.002.286-.053.57-.15.838l-.011.032v.003c-.346.893-1.183 1.314-1.956 1.51l-.075.018-.038.008-.075.017-.037.008-.074.014-.037.007-.072.012-.036.006-.07.011-.07.01-.069.009-.066.008-.066.007-.063.006-.092.007-.059.005-.084.004-.078.004-.097.003h-.055l-.05.001h-.123l-.043-.002-.038-.002h-.013v-1.388c1.285.122 1.825-.29 2.049-.704l.019-.038.017-.037.016-.037.015-.036.013-.037.012-.036.005-.017.01-.036.009-.034.007-.034.007-.033.005-.032.005-.031.004-.03.004-.044.002-.027.002-.045.001-.029v-.051l-.001-.02-.001-.019-.003-.026v-.772l.001-.709.004-.73.004-.617.005-.629.007-.564.004-.328.004-.265.006-.303.003-.192.005-.182.004-.172.006-.2v-.116l.001-.07v-.049l.002-.048.003-.073.002-.05.003-.043.003-.044.004-.044.004-.044.005-.044.006-.044.003-.022.007-.044.008-.044.01-.044.01-.044q.017-.077.042-.153l.015-.043q.03-.086.073-.17l.022-.041c.21-.385.617-.716 1.41-.88-1-.208-1.387-.679-1.538-1.19l-.012-.044-.02-.087-.01-.044-.004-.022-.008-.043-.007-.044-.006-.044-.005-.044-.004-.044-.004-.043-.004-.044-.004-.065-.002-.043-.002-.073-.001-.047v-.048l-.002-.07v-.117l-.004-.135-.005-.173-.005-.221-.005-.237-.004-.248-.006-.348-.006-.5-.005-.467-.004-.541L20.808 6l-.004-1.042q.119-.066.23-.144c.367-.263.644-.618.83-1.035l.013-.03a2.53 2.53 0 0 1-.845 1.066 3 3 0 0 1-.19.12l-.04.023v-.774l.002-.012.002-.019v-.016l.002-.03v-.081l-.001-.03-.002-.027-.004-.042-.005-.044-.005-.03-.005-.032-.006-.033-.004-.016-.008-.034-.004-.017-.01-.035-.01-.035-.007-.018-.012-.036-.014-.036-.016-.036c-.193-.432-.701-.9-2.016-.792z"/><path fill="#ffab00" d="m3.111 4.66.043.029.043.027v-.51l-.002-.011-.001-.019-.001-.016-.002-.03v-.081l.002-.03.002-.027.002-.028.003-.03.004-.03.004-.03.006-.033.007-.033q0-.009.003-.017l.008-.034.01-.035.005-.018.01-.035.007-.018.013-.037q.03-.082.077-.166l.022-.037c.242-.395.79-.766 2.016-.65V1.375h-.025l-.044-.002-.03-.001-.073-.001h-.091l-.078.002-.072.002-.077.003-.085.005-.09.007-.062.005-.096.01-.067.007-.068.008-.07.01-.071.01-.072.012-.073.012-.075.014-.075.016-.038.008-.076.017-.038.01-.077.019-.116.032-.077.024-.078.025c-.569.19-1.132.516-1.473 1.077.11.819.47 1.516 1.086 1.955M5.393 22.65v-1.39c-1.342.128-1.872-.328-2.076-.76l-.017-.037-.023-.055-.013-.037-.006-.018-.01-.035-.01-.036-.01-.034-.007-.034-.007-.033-.005-.032-.005-.032-.004-.03-.004-.043-.003-.04-.001-.032v-.1l.002-.019.002-.026.001-.012v-.855q-.072.044-.142.094c-.66.473-1.026 1.234-1.107 2.126.372.726 1.094 1.097 1.782 1.284l.074.02.075.018.074.017.073.016.073.015.036.006.071.013.036.006.07.01q.016.004.034.006l.068.01.033.004.066.008.065.007.063.006.06.005.06.005.058.004.055.003.079.004.05.002.058.002h.054l.05.001h.123l.045-.002zM22.107 2.938c-.358-.824-1.148-1.224-1.887-1.417l-.073-.018-.074-.017-.036-.009-.072-.015-.036-.007-.072-.014-.07-.012-.07-.011-.068-.01-.067-.01-.065-.008-.065-.007-.063-.007-.06-.006-.09-.007-.084-.005-.08-.005-.074-.003-.047-.001-.057-.001-.052-.001h-.128l-.047.002-.034.001-.029.002v1.387c1.342-.128 1.871.328 2.076.76l.017.037.022.055.014.037.006.018.01.036.01.035.01.034.007.034.006.033.006.032.005.032.003.03.005.043.003.04.001.032v.1l-.002.026-.003.031v.774q.118-.065.229-.143c.597-.427.954-1.094 1.075-1.877m-1.016 16.271a3 3 0 0 0-.287-.175v.76l.001.013.002.018.001.016.001.03.001.024v.057l-.003.044-.002.027-.004.043-.004.03-.005.032-.005.032-.007.033-.007.034-.01.034-.009.036-.005.017-.012.036-.013.037-.015.036-.016.037-.017.037-.02.038c-.223.414-.763.826-2.048.704v1.388h.02l.06.003.073.001h.119l.056-.001.06-.002.074-.003.08-.004.056-.003.087-.007.06-.005.062-.006.064-.007.065-.008.066-.009.068-.01.069-.01.035-.006.07-.012.072-.014.036-.007.072-.015.037-.008.073-.017c.785-.19 1.65-.61 2.002-1.521-.14-.728-.491-1.344-1.053-1.747"/></svg>
