<svg xmlns="http://www.w3.org/2000/svg" width="24" height="24" fill="none" viewBox="0 0 24 24"><desc>Upstash Icon Streamline Icon: https://streamlinehq.com</desc><path fill="#00c98d" d="M3.175 20.826c3.899 3.899 10.221 3.899 14.12 0 3.9-3.9 3.9-10.222 0-14.121L15.53 8.47A7.489 7.489 0 1 1 4.94 19.06z"/><path fill="#00c98d" d="M6.705 17.295a4.993 4.993 0 0 0 7.06-7.06L12 12a2.496 2.496 0 0 1-3.53 3.53zm14.12-14.12c-3.899-3.9-10.221-3.9-14.12 0-3.9 3.899-3.9 10.221 0 14.12L8.47 15.53A7.489 7.489 0 0 1 19.06 4.94z"/><path fill="#00c98d" d="M17.295 6.704a4.993 4.993 0 0 0-7.06 7.06L12 12a2.496 2.496 0 0 1 3.53-3.53z"/><path fill="#fff" fill-opacity=".4" d="M20.825 3.175c-3.899-3.9-10.221-3.9-14.12 0-3.9 3.899-3.9 10.221 0 14.12L8.47 15.53A7.489 7.489 0 0 1 19.06 4.94z"/><path fill="#fff" fill-opacity=".4" d="M17.295 6.704a4.993 4.993 0 0 0-7.06 7.06L12 12a2.496 2.496 0 0 1 3.53-3.53z"/></svg>