<svg xmlns="http://www.w3.org/2000/svg" fill="none" viewBox="0 0 24 24" height="24" width="24"><desc>W3c Streamline Icon: https://streamlinehq.com</desc><path fill="#005a9c" d="m6.48 5.805 2.23 7.584 2.231-7.584h1.615l-3.692 12.46H8.71l-2.307-7.722-2.308 7.722h-.154L.25 5.805h1.615l2.23 7.584 1.508-5.107-.738-2.477z"/><path fill="#005a9c" d="M17.141 14.265q0 1.693-.899 2.846-.9 1.154-2.33 1.154a2.8 2.8 0 0 1-1.877-.685q-.8-.686-1.185-1.853l1.261-.523q.278.708.731 1.114.453.409 1.07.409.645 0 1.092-.724.445-.721.445-1.738 0-1.122-.477-1.738-.554-.722-1.737-.723h-.616v-.738l2.154-3.722h-2.6l-.723 1.23h-.461V5.805h5.998v.754l-2.276 3.923q1.2.384 1.815 1.4.615 1.014.615 2.383"/><path fill="#221b0a" d="m23.401 5.735.261 1.59-.926 1.772s-.355-.751-.946-1.167c-.498-.351-.822-.427-1.328-.323-.652.135-1.39.913-1.712 1.873-.385 1.148-.39 1.704-.403 2.215-.021.818.107 1.302.107 1.302s-.562-1.04-.556-2.564c.003-1.087.175-2.074.678-3.047.443-.855 1.1-1.369 1.684-1.429.603-.063 1.081.228 1.45.544.386.33.779 1.053.779 1.053zm.113 9s-.408.732-.664 1.013c-.255.282-.711.778-1.275 1.027-.563.249-.859.296-1.416.242s-1.074-.376-1.255-.511c-.18-.134-.644-.53-.905-.898-.263-.37-.672-1.108-.672-1.108s.228.74.371 1.053c.082.181.335.734.693 1.216.334.448.983 1.22 1.97 1.395.986.174 1.664-.268 1.831-.376s.522-.403.746-.642c.234-.25.455-.57.576-.76.09-.14.236-.423.236-.423z"/></svg>
